{
.appVersion = "3151";
.formatVersion = 3;
customParameters = (
{
name = vendorID;
value = "1BOU";
},
{
name = panose;
value = (
0,
0,
9,
0,
0,
0,
0,
0,
0,
0
);
},
{
name = unicodeRanges;
value = (
0,
1,
2,
3,
5,
13,
31,
33,
35,
38,
45,
60,
63,
67
);
},
{
name = codePageRanges;
value = (
"1252"
);
},
{
name = glyphOrder;
value = (
.notdef,
uni000D,
space,
exclam,
quotedbl,
numbersign,
dollar,
percent,
ampersand,
quotesingle,
parenleft,
parenright,
asterisk,
plus,
comma,
hyphen,
period,
slash,
zero,
one,
two,
three,
four,
five,
six,
seven,
eight,
nine,
colon,
semicolon,
less,
equal,
greater,
question,
at,
A,
B,
C,
D,
E,
F,
G,
H,
I,
J,
K,
L,
M,
N,
O,
P,
Q,
R,
S,
T,
U,
V,
W,
X,
Y,
Z,
bracketleft,
backslash,
bracketright,
asciicircum,
underscore,
grave,
a,
b,
c,
d,
e,
f,
g,
h,
i,
j,
k,
l,
m,
n,
o,
p,
q,
r,
s,
t,
u,
v,
w,
x,
y,
z,
braceleft,
bar,
braceright,
asciitilde,
exclamdown,
cent,
sterling,
yen,
brokenbar,
section,
dieresis,
copyright,
ordfeminine,
guillemotleft,
uni00AD,
registered,
macron,
degree,
plusminus,
twosuperior,
threesuperior,
acute,
paragraph,
periodcentered,
cedilla,
onesuperior,
ordmasculine,
guillemotright,
onequarter,
onehalf,
threequarters,
questiondown,
Agrave,
Aacute,
Acircumflex,
Atilde,
Adieresis,
Aring,
AE,
Ccedilla,
Egrave,
Eacute,
Ecircumflex,
Edieresis,
Igrave,
Iacute,
Icircumflex,
Idieresis,
Eth,
Ntilde,
Ograve,
Oacute,
Ocircumflex,
Otilde,
Odieresis,
multiply,
Oslash,
Ugrave,
Uacute,
Ucircumflex,
Udieresis,
Yacute,
Thorn,
germandbls,
agrave,
aacute,
acircumflex,
atilde,
adieresis,
aring,
ae,
ccedilla,
egrave,
eacute,
ecircumflex,
edieresis,
igrave,
iacute,
icircumflex,
idieresis,
eth,
ntilde,
ograve,
oacute,
ocircumflex,
otilde,
odieresis,
divide,
oslash,
ugrave,
uacute,
ucircumflex,
udieresis,
yacute,
thorn,
ydieresis,
dotlessi,
Lslash,
lslash,
OE,
oe,
Scaron,
scaron,
Ydieresis,
Zcaron,
zcaron,
florin,
circumflex,
caron,
breve,
dotaccent,
ring,
ogonek,
tilde,
hungarumlaut,
uni03BC,
uni060C,
uni061B,
uni061F,
uni0621,
uni0622,
uni0623,

glyphs = (
{
glyphname = .notdef;
layers = (
{
layerId = m01;
shapes = (
{
closed = 1;
nodes = (
(235,-107,o),
(225,-96,o),
(225,-80,cs),
(225,-63,o),
(237,-51,o),
(252,-51,cs),
(267,-51,o),
(280,-64,o),
(280,-80,cs),
(280,-96,o),
(269,-107,o),
(252,-108,cs)
);
},
{
closed = 1;
nodes = (
(238,59,ls),
(238,90,o),
(253,112,o),
(299,147,cs),
(353,189,o),
(371,218,o),
(372,262,cs),
(372,327,o),
(328,367,o),
(257,367,cs),
(216,367,o),
(169,352,o),
(136,326,c),
(134,325,o),
(131,323,o),
(128,322,c),
(123,340,ls),
(122,343,o),
(121,346,o),
(122,349,cs),
(123,356,o),
(131,363,o),
(149,372,cs),
(182,390,o),
(218,398,o),
(256,399,cs),
(351,399,o),
(408,347,o),
(406,263,cs),
(405,213,o),
(382,180,o),
(309,122,cs),
(298,113,o),
(291,107,o),
(288,104,cs),
(271,91,o),
(267,81,o),
(267,55,cs),
(267,22,l),
(238,22,l)
);
},
{
closed = 1;
nodes = (
(486,539,l),
(486,-248,l),
(37,-248,l),
(37,539,l)
);
},
{
closed = 1;
nodes = (
(60,-226,l),
(464,-226,l),
(464,517,l),
(60,517,l)
);
}
);
width = 524;
}
);
note = ".notdef";
},
{
glyphname = exclam;
layers = (
{
layerId = m01;
shapes = (
{
closed = 1;
nodes = (
(60,122,o),
(61,121,o),
(63,121,cs),
(81,121,ls),
(82,121,o),
(83,122,o),
(83,124,cs),
(85,528,ls),
(85,548,o),
(73,556,o),
(63,556,cs),
(62,556,ls),
(60,556,o),
(59,554,o),
(59,553,cs),
(60,124,ls)
);
},
{
closed = 1;
nodes = (
(39,-4,o),
(53,-18,o),
(70,-18,cs),
(87,-18,o),
(101,-4,o),
(101,13,cs),
(101,30,o),
(87,45,o),
(70,45,cs),
(53,45,o),
(39,30,o),
(39,13,cs)
);
}
);
width = 139;
}
);
note = exclam;
unicode = 33;
},
{
glyphname = quotedbl;
layers = (
{
layerId = m01;
shapes = (
{
closed = 1;
nodes = (
(50,383,o),
(51,382,o),
(53,382,cs),
(65,382,ls),
(67,382,o),
(68,383,o),
(68,384,cs),
(72,528,ls),
(72,548,o),
(61,556,o),
(51,556,cs),
(47,556,ls),
(45,556,o),
(44,554,o),
(44,553,cs),
(50,384,ls)
);
},
{
closed = 1;
nodes = (
(120,383,o),
(120,382,o),
(122,382,cs),
(134,382,ls),
(136,382,o),
(137,383,o),
(137,384,cs),
(141,528,ls),
(142,548,o),
(130,556,o),
(120,556,cs),
(116,556,ls),
(115,556,o),
(113,554,o),
(113,553,cs),
(120,384,ls)
);
}
);
width = 186;
}
);
note = quotedbl;
unicode = 34;
},
{
glyphname = numbersign;
layers = (
{
layerId = m01;
shapes = (
{
closed = 1;
nodes = (
(82,2,o),
(82,0,o),
(85,0,cs),
(98,0,ls),
(107,0,o),
(110,1,o),
(111,8,c),
(149,162,l),
(328,162,l),
(288,4,l),
(288,2,o),
(288,0,o),
(290,0,cs),
(304,0,ls),
(313,0,o),
(315,1,o),
(317,8,cs),
(355,162,l),
(440,162,ls),
(445,162,o),
(445,163,o),
(446,166,cs),
(450,179,l),
(450,183,o),
(450,185,o),
(446,185,cs),
(360,185,l),
(403,366,l),
(492,366,ls),
(496,366,o),
(497,367,o),
(498,369,c),
(501,383,ls),
(502,387,o),
(501,388,o),
(498,388,cs),
(410,388,l),
(442,525,ls),
(447,546,o),
(442,556,o),
(432,556,cs),
(431,556,ls),
(427,556,o),
(426,554,o),
(426,551,c),
(385,388,l),
(204,388,l),
(237,525,ls),
(242,546,o),
(237,556,o),
(227,556,cs),
(226,556,ls),
(222,556,o),
(221,554,o),
(220,551,cs),
(179,388,l),
(91,388,ls),
(87,388,o),
(86,388,o),
(85,384,cs),
(82,372,ls),
(81,368,o),
(82,366,o),
(85,366,cs),
(173,366,l),
(128,185,l),
(39,185,ls),
(35,185,o),
(34,184,o),
(33,181,cs),
(30,168,ls),
(29,164,o),
(30,162,o),
(33,162,cs),
(122,162,l),
(82,4,l)
);
},
{
closed = 1;
nodes = (
(198,366,l),
(379,366,l),
(334,185,l),
(154,185,l)
);
}
);
width = 531;
}
);
note = numbersign;
unicode = 35;
},
{
glyphname = dollar;
layers = (
{
layerId = m01;
shapes = (
{
closed = 1;
nodes = (
(132,14,o),
(72,52,o),
(53,109,cs),
(51,116,o),
(48,119,o),
(43,119,cs),
(35,119,o),
(34,111,o),
(34,103,cs),
(34,72,o),
(85,-8,o),
(209,-11,c),
(209,-62,ls),
(209,-63,o),
(210,-64,o),
(212,-64,cs),
(232,-64,ls),
(233,-64,o),
(235,-63,o),
(235,-62,cs),
(235,-10,l),
(333,-3,o),
(393,59,o),
(393,150,cs),
(393,237,o),
(313,267,o),
(235,296,c),
(235,544,l),
(281,542,o),
(320,526,o),
(366,493,cs),
(369,491,o),
(372,488,o),
(376,488,cs),
(379,488,o),
(380,490,o),
(382,495,cs),
(383,498,ls),
(387,509,o),
(383,514,o),
(362,527,cs),
(328,547,o),
(290,564,o),
(235,567,c),
(235,618,ls),
(235,620,o),
(233,621,o),
(232,621,cs),
(212,621,ls),
(210,621,o),
(209,620,o),
(209,618,cs),
(209,567,l),
(118,562,o),
(52,505,o),
(52,424,cs),
(52,341,o),
(130,309,o),
(209,280,c),
(209,12,l)
);
},
{
closed = 1;
nodes = (
(140,331,o),
(78,359,o),
(78,426,cs),
(78,495,o),
(131,539,o),
(209,544,c),
(209,305,l)
);
},
{
closed = 1;
nodes = (
(304,246,o),
(367,217,o),
(367,149,cs),
(367,69,o),
(318,20,o),
(235,13,c),
(235,271,l)
);
}
);
width = 433;
}
);
note = dollar;
unicode = 36;
},
{
glyphname = percent;
layers = (
{
layerId = m01;
shapes = (
{
closed = 1;
nodes = (
(237,223,o),
(280,285,o),
(280,394,cs),
(280,503,o),
(237,567,o),
(161,567,cs),
(86,567,o),
(43,503,o),
(43,394,cs),
(43,285,o),
(86,223,o),
(161,223,cs)
);
},
{
closed = 1;
nodes = (
(209,0,o),
(210,1,o),
(213,8,cs),
(467,525,ls),
(476,543,o),
(471,556,o),
(460,556,cs),
(459,556,ls),
(456,556,o),
(455,554,o),
(454,551,cs),
(184,4,ls),
(183,2,o),
(184,0,o),
(186,0,cs),
(200,0,ls)
);
},
{
closed = 1;
nodes = (
(101,244,o),
(68,297,o),
(68,393,cs),
(68,495,o),
(99,544,o),
(161,544,cs),
(224,544,o),
(255,495,o),
(255,393,cs),
(255,297,o),
(222,244,o),
(161,244,cs)
);
},
{
closed = 1;
nodes = (
(582,-9,o),
(625,54,o),
(625,163,cs),
(625,271,o),
(582,335,o),
(507,335,cs),
(431,335,o),
(389,271,o),
(389,163,cs),
(389,54,o),
(431,-9,o),
(507,-9,cs)
);
},
{
closed = 1;
nodes = (
(446,13,o),
(414,66,o),
(414,162,cs),
(414,263,o),
(445,313,o),
(507,313,cs),
(570,313,o),
(600,263,o),
(600,162,cs),
(600,66,o),
(567,13,o),
(507,13,cs)
);
}
);
width = 668;
}
);
note = percent;
unicode = 37;
},
{
glyphname = ampersand;
layers = (
{
layerId = m01;
shapes = (
{
closed = 1;
nodes = (
(216,305,l),
(303,346,o),
(355,402,o),
(355,457,cs),
(355,521,o),
(307,567,o),
(235,567,cs),
(155,567,o),
(105,520,o),
(105,449,cs),
(105,406,o),
(128,368,o),
(181,312,c),
(102,277,o),
(49,224,o),
(49,145,cs),
(49,61,o),
(110,-6,o),
(201,-6,cs),
(295,-6,o),
(347,59,o),
(370,93,c),
(447,9,ls),
(454,1,o),
(456,0,o),
(465,0,cs),
(477,0,ls),
(481,0,o),
(482,3,o),
(480,5,cs),
(383,114,l),
(476,267,l),
(477,271,o),
(477,273,o),
(473,273,cs),
(463,273,ls),
(453,273,o),
(451,271,o),
(447,266,c),
(367,132,l)
);
},
{
closed = 1;
nodes = (
(148,379,o),
(130,412,o),
(130,450,cs),
(130,509,o),
(167,544,o),
(235,544,cs),
(295,544,o),
(331,511,o),
(331,456,cs),
(331,398,o),
(272,354,o),
(202,321,c)
);
},
{
closed = 1;
nodes = (
(322,63,o),
(278,17,o),
(203,17,cs),
(123,17,o),
(75,67,o),
(75,150,cs),
(75,224,o),
(127,264,o),
(195,296,c),
(355,111,l)
);
}
);
width = 510;
}
);
note = ampersand;
unicode = 38;
},
{
glyphname = quotesingle;
layers = (
{
layerId = m01;
shapes = (
{
closed = 1;
nodes = (
(50,383,o),
(51,382,o),
(53,382,cs),
(65,382,ls),
(67,382,o),
(68,383,o),
(68,384,cs),
(72,528,ls),
(72,548,o),
(61,556,o),
(51,556,cs),
(47,556,ls),
(45,556,o),
(44,554,o),
(44,553,cs),
(50,384,ls)
);
}
);
width = 117;
}
);
note = quotesingle;
unicode = 39;
},
{
glyphname = parenleft;
layers = (
{
layerId = m01;
shapes = (
{
closed = 1;
nodes = (
(93,111,o),
(145,-17,o),
(233,-100,cs),
(241,-108,o),
(248,-113,o),
(251,-122,c),
(255,-129,o),
(254,-136,o),
(254,-138,cs),
(254,-144,o),
(251,-147,o),
(245,-143,cs),
(144,-73,o),
(67,79,o),
(69,277,cs),
(67,474,o),
(144,627,o),
(245,697,cs),
(251,701,o),
(254,698,o),
(254,692,cs),
(254,689,o),
(255,682,o),
(251,675,cs),
(248,667,o),
(241,661,o),
(233,653,cs),
(145,570,o),
(93,443,o),
(95,277,cs)
);
}
);
width = 307;
}
);
note = parenleft;
unicode = 40;
},
{
glyphname = parenright;
layers = (
{
layerId = m01;
shapes = (
{
closed = 1;
nodes = (
(218,443,o),
(166,570,o),
(78,653,cs),
(70,661,o),
(63,667,o),
(59,675,cs),
(56,682,o),
(57,689,o),
(57,692,cs),
(57,698,o),
(60,701,o),
(65,697,cs),
(167,627,o),
(244,474,o),
(242,277,cs),
(244,79,o),
(167,-73,o),
(65,-143,cs),
(60,-147,o),
(57,-144,o),
(57,-138,cs),
(57,-136,o),
(56,-129,o),
(59,-122,cs),
(63,-113,o),
(70,-108,o),
(78,-100,cs),
(166,-17,o),
(218,111,o),
(216,277,cs)
);
}
);
width = 318;
}
);
note = parenright;
unicode = 41;
},
{
glyphname = asterisk;
layers = (
{
layerId = m01;
shapes = (
{
closed = 1;
nodes = (
(76,351,ls),
(73,348,o),
(73,348,o),
(77,345,cs),
(96,332,ls),
(100,329,o),
(99,330,o),
(101,333,cs),
(155,418,l),
(210,333,ls),
(212,330,o),
(211,329,o),
(215,332,cs),
(234,345,ls),
(238,348,o),
(237,348,o),
(235,351,cs),
(171,429,l),
(269,454,l),
(271,455,o),
(272,455,o),
(271,459,cs),
(265,481,ls),
(264,485,o),
(262,485,o),
(260,484,cs),
(165,447,l),
(171,548,ls),
(171,552,o),
(171,553,o),
(167,553,cs),
(144,553,ls),
(140,553,o),
(140,552,o),
(140,548,cs),
(145,447,l),
(51,484,ls),
(48,485,o),
(47,485,o),
(46,481,cs),
(39,459,ls),
(38,455,o),
(39,455,o),
(42,454,cs),
(139,429,l)
);
}
);
width = 310;
}
);
note = asterisk;
unicode = 42;
},
{
glyphname = plus;
layers = (
{
layerId = m01;
shapes = (
{
closed = 1;
nodes = (
(184,106,ls),
(184,104,o),
(185,103,o),
(187,103,cs),
(204,103,ls),
(206,103,o),
(207,104,o),
(207,106,cs),
(207,262,l),
(339,262,ls),
(342,262,o),
(342,263,o),
(342,266,cs),
(342,282,ls),
(342,284,o),
(342,285,o),
(339,285,cs),
(207,285,l),
(207,416,ls),
(207,431,o),
(204,443,o),
(187,443,cs),
(185,443,o),
(184,442,o),
(184,440,cs),
(184,285,l),
(49,285,ls),
(47,285,o),
(46,284,o),
(46,282,cs),
(46,266,ls),
(46,263,o),
(47,262,o),
(49,262,cs),
(184,262,l)
);
}
);
width = 388;
}
);
note = plus;
unicode = 43;
},
{
glyphname = comma;
layers = (
{
layerId = m01;
shapes = (
{
closed = 1;
nodes = (
(79,-35,o),
(68,-49,o),
(62,-59,cs),
(59,-66,o),
(45,-79,o),
(58,-92,cs),
(60,-94,o),
(61,-97,o),
(63,-94,c),
(90,-71,o),
(119,-26,o),
(119,12,cs),
(119,34,o),
(104,45,o),
(88,45,cs),
(71,45,o),
(57,34,o),
(57,16,cs),
(57,4,o),
(65,-11,o),
(84,-14,c)
);
}
);
width = 162;
}
);
note = comma;
unicode = 44;
},
{
glyphname = hyphen;
layers = (
{
layerId = m01;
shapes = (
{
closed = 1;
nodes = (
(46,193,o),
(47,192,o),
(49,192,cs),
(253,192,ls),
(255,192,o),
(256,193,o),
(256,195,cs),
(256,212,ls),
(256,214,o),
(255,214,o),
(253,214,cs),
(49,214,ls),
(47,214,o),
(46,214,o),
(46,212,cs),
(46,195,ls)
);
}
);
width = 301;
}
);
note = hyphen;
unicode = 45;
},
{
glyphname = period;
layers = (
{
layerId = m01;
shapes = (
{
closed = 1;
nodes = (
(64,44,o),
(50,29,o),
(50,13,cs),
(50,-4,o),
(64,-18,o),
(81,-18,cs),
(97,-18,o),
(111,-4,o),
(111,13,cs),
(111,29,o),
(97,44,o),
(81,44,cs)
);
}
);
width = 161;
}
);
note = period;
unicode = 46;
},
{
glyphname = slash;
layers = (
{
layerId = m01;
shapes = (
{
closed = 1;
nodes = (
(27,0,o),
(28,1,o),
(31,8,cs),
(249,525,ls),
(258,544,o),
(253,556,o),
(239,556,cs),
(235,556,o),
(234,553,o),
(233,549,c),
(2,4,ls),
(1,2,o),
(2,0,o),
(4,0,cs),
(18,0,ls)
);
}
);
width = 253;
}
);
note = slash;
unicode = 47;
},
{
glyphname = zero;
layers = (
{
layerId = m01;
shapes = (
{
closed = 1;
nodes = (
(371,-10,o),
(426,82,o),
(426,277,cs),
(426,472,o),
(368,567,o),
(244,567,cs),
(120,567,o),
(62,472,o),
(62,277,cs),
(62,82,o),
(116,-10,o),
(244,-10,cs)
);
},
{
closed = 1;
nodes = (
(135,13,o),
(88,92,o),
(88,277,cs),
(88,463,o),
(135,544,o),
(244,544,cs),
(353,544,o),
(400,463,o),
(400,277,cs),
(400,92,o),
(352,13,o),
(244,13,cs)
);
}
);
width = 487;
}
);
note = zero;
unicode = 48;
},
{
glyphname = one;
layers = (
{
layerId = m01;
shapes = (
{
closed = 1;
nodes = (
(49,23,ls),
(47,23,o),
(46,22,o),
(46,20,cs),
(46,3,ls),
(46,1,o),
(47,0,o),
(49,0,cs),
(285,0,ls),
(290,0,o),
(292,2,o),
(292,6,cs),
(292,9,ls),
(292,19,o),
(287,23,o),
(278,23,cs),
(182,23,l),
(182,534,ls),
(182,548,o),
(175,556,o),
(164,556,cs),
(158,556,ls),
(153,556,o),
(144,553,o),
(137,549,c),
(54,522,ls),
(49,520,o),
(47,518,o),
(47,512,cs),
(47,500,ls),
(47,498,o),
(48,496,o),
(51,497,cs),
(155,533,l),
(155,23,l)
);
}
);
width = 320;
}
);
note = one;
unicode = 49;
},
{
glyphname = two;
layers = (
{
layerId = m01;
shapes = (
{
closed = 1;
nodes = (
(92,228,o),
(382,233,o),
(382,418,cs),
(382,512,o),
(318,567,o),
(215,567,cs),
(163,567,o),
(126,554,o),
(87,533,cs),
(67,522,o),
(65,516,o),
(67,508,cs),
(68,504,ls),
(69,501,o),
(70,498,o),
(73,498,cs),
(77,498,o),
(80,501,o),
(83,503,cs),
(125,531,o),
(164,544,o),
(213,544,cs),
(304,544,o),
(356,498,o),
(356,417,cs),
(356,242,o),
(49,242,o),
(47,3,cs),
(47,1,o),
(48,0,o),
(50,0,cs),
(373,0,ls),
(378,0,o),
(380,2,o),
(380,6,cs),
(380,9,ls),
(380,19,o),
(375,23,o),
(366,23,cs),
(73,23,l)
);
}
);
width = 442;
}
);
note = two;
unicode = 50;
},
{
glyphname = three;
layers = (
{
layerId = m01;
shapes = (
{
closed = 1;
nodes = (
(307,311,o),
(359,350,o),
(359,426,cs),
(359,513,o),
(299,567,o),
(197,567,cs),
(142,567,o),
(104,554,o),
(64,533,cs),
(44,522,o),
(42,516,o),
(44,508,cs),
(45,504,ls),
(46,501,o),
(47,498,o),
(50,498,cs),
(54,498,o),
(57,501,o),
(60,503,cs),
(102,531,o),
(144,544,o),
(195,544,cs),
(284,544,o),
(334,499,o),
(334,424,cs),
(334,322,o),
(229,306,o),
(210,306,cs),
(111,306,ls),
(106,306,o),
(104,304,o),
(104,300,cs),
(104,297,ls),
(104,287,o),
(109,283,o),
(117,283,cs),
(206,283,ls),
(285,283,o),
(346,234,o),
(346,151,cs),
(346,73,o),
(305,13,o),
(196,13,cs),
(127,13,o),
(69,51,o),
(52,111,cs),
(50,117,o),
(47,120,o),
(42,120,cs),
(34,120,o),
(33,111,o),
(33,104,cs),
(33,73,o),
(81,-10,o),
(199,-10,cs),
(309,-10,o),
(372,54,o),
(372,152,cs),
(372,237,o),
(307,284,o),
(257,296,c)
);
}
);
width = 424;
}
);
note = three;
unicode = 51;
},
{
glyphname = four;
layers = (
{
layerId = m01;
shapes = (
{
closed = 1;
nodes = (
(293,6,ls),
(293,2,o),
(294,0,o),
(298,0,cs),
(314,0,ls),
(318,0,o),
(318,2,o),
(318,6,cs),
(318,149,l),
(382,149,ls),
(387,149,o),
(389,151,o),
(389,155,cs),
(389,158,ls),
(389,168,o),
(384,172,o),
(375,172,cs),
(318,172,l),
(318,529,ls),
(318,548,o),
(315,556,o),
(299,556,cs),
(291,556,ls),
(285,556,o),
(280,553,o),
(274,544,cs),
(33,182,ls),
(28,175,o),
(27,169,o),
(27,162,cs),
(27,152,ls),
(27,150,o),
(28,149,o),
(30,149,cs),
(293,149,l)
);
},
{
closed = 1;
nodes = (
(293,532,l),
(293,172,l),
(53,172,l)
);
}
);
width = 424;
}
);
note = four;
unicode = 52;
},
{
glyphname = five;
layers = (
{
layerId = m01;
shapes = (
{
closed = 1;
nodes = (
(337,533,ls),
(342,533,o),
(344,534,o),
(344,539,cs),
(344,542,ls),
(344,552,o),
(339,556,o),
(330,556,cs),
(76,556,ls),
(74,556,o),
(73,554,o),
(73,553,cs),
(73,301,ls),
(73,295,o),
(76,291,o),
(82,294,cs),
(124,310,o),
(159,321,o),
(211,321,cs),
(299,321,o),
(351,264,o),
(351,168,cs),
(351,71,o),
(295,13,o),
(199,13,cs),
(135,13,o),
(74,51,o),
(57,111,cs),
(55,117,o),
(52,120,o),
(47,120,cs),
(40,120,o),
(38,113,o),
(38,106,cs),
(38,73,o),
(87,-10,o),
(202,-10,cs),
(309,-10,o),
(377,61,o),
(377,172,cs),
(377,278,o),
(314,344,o),
(212,344,cs),
(162,344,o),
(130,335,o),
(99,324,c),
(99,533,l)
);
}
);
width = 431;
}
);
note = five;
unicode = 53;
},
{
glyphname = six;
layers = (
{
layerId = m01;
shapes = (
{
closed = 1;
nodes = (
(271,548,o),
(270,567,o),
(257,567,cs),
(253,567,o),
(251,564,o),
(247,558,cs),
(118,344,ls),
(87,290,o),
(54,234,o),
(54,167,cs),
(54,62,o),
(120,-10,o),
(220,-10,cs),
(322,-10,o),
(388,63,o),
(388,176,cs),
(388,276,o),
(323,348,o),
(232,348,cs),
(188,348,o),
(152,334,o),
(133,319,c),
(257,526,ls)
);
},
{
closed = 1;
nodes = (
(133,12,o),
(80,73,o),
(80,169,cs),
(80,247,o),
(126,325,o),
(225,325,cs),
(311,325,o),
(362,266,o),
(362,169,cs),
(362,73,o),
(307,12,o),
(221,12,cs)
);
}
);
width = 433;
}
);
note = six;
unicode = 54;
},
{
glyphname = seven;
layers = (
{
layerId = m01;
shapes = (
{
closed = 1;
nodes = (
(103,5,l),
(101,2,o),
(102,0,o),
(104,0,cs),
(118,0,ls),
(125,0,o),
(128,1,o),
(131,8,cs),
(361,503,ls),
(369,523,o),
(372,528,o),
(372,538,cs),
(372,539,ls),
(372,548,o),
(367,556,o),
(352,556,cs),
(38,556,ls),
(36,556,o),
(35,554,o),
(35,553,cs),
(35,536,ls),
(35,534,o),
(36,533,o),
(38,533,cs),
(350,533,l)
);
}
);
width = 422;
}
);
note = seven;
unicode = 55;
},
{
glyphname = eight;
layers = (
{
layerId = m01;
shapes = (
{
closed = 1;
nodes = (
(87,273,o),
(46,214,o),
(46,151,cs),
(46,59,o),
(112,-11,o),
(216,-11,cs),
(320,-11,o),
(386,59,o),
(386,151,cs),
(386,214,o),
(345,273,o),
(274,297,c),
(322,315,o),
(367,355,o),
(367,424,cs),
(367,508,o),
(304,567,o),
(216,567,cs),
(128,567,o),
(65,508,o),
(65,424,cs),
(65,355,o),
(111,315,o),
(158,297,c)
);
},
{
closed = 1;
nodes = (
(89,491,o),
(134,544,o),
(216,544,cs),
(299,544,o),
(343,491,o),
(343,422,cs),
(343,353,o),
(284,308,o),
(216,308,cs),
(149,308,o),
(89,353,o),
(89,422,cs)
);
},
{
closed = 1;
nodes = (
(72,229,o),
(133,285,o),
(216,285,cs),
(299,285,o),
(360,229,o),
(360,153,cs),
(360,68,o),
(304,12,o),
(216,12,cs),
(129,12,o),
(72,68,o),
(72,153,cs)
);
}
);
width = 431;
}
);
note = eight;
unicode = 56;
},
{
glyphname = nine;
layers = (
{
layerId = m01;
shapes = (
{
closed = 1;
nodes = (
(163,8,o),
(164,-10,o),
(177,-10,cs),
(180,-10,o),
(183,-8,o),
(187,-1,cs),
(315,213,ls),
(347,266,o),
(380,322,o),
(380,389,cs),
(380,495,o),
(317,567,o),
(217,567,cs),
(115,567,o),
(46,495,o),
(46,384,cs),
(46,281,o),
(115,209,o),
(205,209,cs),
(249,209,o),
(282,223,o),
(300,238,c),
(177,31,ls)
);
},
{
closed = 1;
nodes = (
(124,232,o),
(72,288,o),
(72,388,cs),
(72,484,o),
(130,544,o),
(216,544,cs),
(304,544,o),
(354,484,o),
(354,388,cs),
(354,309,o),
(310,232,o),
(212,232,cs)
);
}
);
width = 433;
}
);
note = nine;
unicode = 57;
},
{
glyphname = colon;
layers = (
{
layerId = m01;
shapes = (
{
closed = 1;
nodes = (
(67,240,o),
(53,225,o),
(53,208,cs),
(53,192,o),
(67,177,o),
(84,177,cs),
(100,177,o),
(114,192,o),
(114,208,cs),
(114,225,o),
(100,240,o),
(84,240,cs)
);
},
{
closed = 1;
nodes = (
(67,44,o),
(53,29,o),
(53,13,cs),
(53,-4,o),
(67,-18,o),
(84,-18,cs),
(100,-18,o),
(114,-4,o),
(114,13,cs),
(114,29,o),
(100,44,o),
(84,44,cs)
);
}
);
width = 167;
}
);
note = colon;
unicode = 58;
},
{
glyphname = semicolon;
layers = (
{
layerId = m01;
shapes = (
{
closed = 1;
nodes = (
(107,177,o),
(121,192,o),
(121,209,cs),
(121,224,o),
(107,239,o),
(91,239,cs),
(74,239,o),
(60,224,o),
(60,209,cs),
(60,192,o),
(74,177,o),
(91,177,cs)
);
},
{
closed = 1;
nodes = (
(81,-35,o),
(71,-49,o),
(65,-59,cs),
(62,-66,o),
(48,-79,o),
(61,-92,c),
(62,-94,o),
(64,-97,o),
(66,-94,c),
(92,-71,o),
(121,-26,o),
(121,12,cs),
(121,34,o),
(107,45,o),
(91,45,cs),
(74,45,o),
(60,34,o),
(60,16,cs),
(60,4,o),
(67,-11,o),
(86,-14,c)
);
}
);
width = 167;
}
);
note = semicolon;
unicode = 59;
},
{
glyphname = less;
layers = (
{
layerId = m01;
shapes = (
{
closed = 1;
nodes = (
(387,398,l),
(396,403,o),
(397,404,o),
(397,411,cs),
(397,421,ls),
(397,424,o),
(395,426,o),
(392,424,c),
(52,282,ls),
(47,280,o),
(46,279,o),
(46,272,cs),
(46,268,ls),
(46,262,o),
(47,261,o),
(52,259,cs),
(392,112,ls),
(395,111,o),
(397,112,o),
(397,117,cs),
(397,118,ls),
(397,129,o),
(391,137,o),
(374,144,cs),
(78,271,l)
);
}
);
width = 450;
}
);
note = less;
unicode = 60;
},
{
glyphname = equal;
layers = (
{
layerId = m01;
shapes = (
{
closed = 1;
nodes = (
(340,344,o),
(342,346,o),
(342,350,cs),
(342,353,ls),
(342,363,o),
(337,367,o),
(328,367,cs),
(49,367,ls),
(47,367,o),
(46,366,o),
(46,364,cs),
(46,347,ls),
(46,345,o),
(47,344,o),
(49,344,cs),
(335,344,ls)
);
},
{
closed = 1;
nodes = (
(340,172,o),
(342,174,o),
(342,178,cs),
(342,181,ls),
(342,191,o),
(337,195,o),
(328,195,cs),
(49,195,ls),
(47,195,o),
(46,194,o),
(46,192,cs),
(46,175,ls),
(46,173,o),
(47,172,o),
(49,172,cs),
(335,172,ls)
);
}
);
width = 388;
}
);
note = equal;
unicode = 61;
},
{
glyphname = greater;
layers = (
{
layerId = m01;
shapes = (
{
closed = 1;
nodes = (
(77,144,ls),
(60,137,o),
(54,129,o),
(54,118,cs),
(54,117,ls),
(54,112,o),
(56,111,o),
(59,112,cs),
(398,259,ls),
(403,261,o),
(405,262,o),
(405,268,cs),
(405,272,ls),
(405,279,o),
(403,280,o),
(398,282,cs),
(59,424,l),
(56,426,o),
(54,424,o),
(54,421,cs),
(54,411,ls),
(54,404,o),
(55,403,o),
(63,398,c),
(373,271,l)
);
}
);
width = 450;
}
);
note = greater;
unicode = 62;
},
{
glyphname = question;
layers = (
{
layerId = m01;
shapes = (
{
closed = 1;
nodes = (
(160,122,o),
(160,121,o),
(162,121,cs),
(182,121,ls),
(184,121,o),
(185,122,o),
(185,124,cs),
(185,184,ls),
(185,209,o),
(191,221,o),
(209,237,cs),
(268,289,o),
(340,332,o),
(340,419,cs),
(340,513,o),
(275,567,o),
(177,567,cs),
(122,567,o),
(85,556,o),
(45,534,cs),
(23,522,o),
(19,515,o),
(24,505,cs),
(25,503,ls),
(28,498,o),
(28,496,o),
(31,496,cs),
(35,496,o),
(38,499,o),
(41,501,cs),
(91,537,o),
(128,544,o),
(175,544,cs),
(262,544,o),
(315,498,o),
(315,419,cs),
(315,294,o),
(160,274,o),
(160,190,cs),
(160,124,ls)
);
},
{
closed = 1;
nodes = (
(141,-4,o),
(155,-18,o),
(172,-18,cs),
(189,-18,o),
(203,-4,o),
(203,13,cs),
(203,30,o),
(189,45,o),
(172,45,cs),
(155,45,o),
(141,30,o),
(141,13,cs)
);
}
);
width = 383;
}
);
note = question;
unicode = 63;
},
{
glyphname = at;
layers = (
{
layerId = m01;
shapes = (
{
closed = 1;
nodes = (
(496,371,o),
(457,412,o),
(382,412,cs),
(263,412,o),
(200,307,o),
(200,199,cs),
(200,101,o),
(257,37,o),
(347,37,cs),
(416,37,o),
(469,76,o),
(492,127,c),
(487,73,o),
(511,38,o),
(562,38,cs),
(653,38,o),
(708,133,o),
(708,277,cs),
(708,444,o),
(587,568,o),
(403,568,cs),
(195,568,o),
(54,412,o),
(54,217,cs),
(54,10,o),
(183,-124,o),
(380,-124,cs),
(540,-124,o),
(617,-41,o),
(617,-17,cs),
(617,-12,o),
(615,-9,o),
(610,-9,cs),
(606,-9,o),
(603,-11,o),
(600,-15,cs),
(561,-68,o),
(478,-102,o),
(381,-102,cs),
(200,-102,o),
(80,24,o),
(80,214,cs),
(80,399,o),
(208,546,o),
(403,546,cs),
(577,546,o),
(683,426,o),
(683,274,cs),
(683,131,o),
(630,59,o),
(561,59,cs),
(531,59,o),
(515,79,o),
(515,113,cs),
(515,122,o),
(516,131,o),
(517,140,cs),
(542,403,ls),
(542,404,o),
(542,406,o),
(540,406,cs),
(538,406,ls),
(528,406,o),
(516,398,o),
(514,378,cs),
(509,330,l)
);
},
{
closed = 1;
nodes = (
(273,59,o),
(226,113,o),
(226,200,cs),
(226,292,o),
(275,389,o),
(380,389,cs),
(458,389,o),
(501,342,o),
(501,253,cs),
(501,157,o),
(461,59,o),
(349,59,cs)
);
}
);
width = 762;
}
);
note = at;
unicode = 64;
},
{
glyphname = A;
kernLeft = A;
kernRight = A;
layers = (
{
layerId = m01;
shapes = (
{
closed = 1;
nodes = (
(361,182,l),
(429,8,l),
(433,1,o),
(433,0,o),
(440,0,cs),
(457,0,ls),
(459,0,o),
(460,2,o),
(459,4,cs),
(245,542,ls),
(241,552,o),
(235,556,o),
(225,556,cs),
(223,556,ls),
(221,556,o),
(220,554,o),
(219,552,cs),
(13,4,ls),
(12,2,o),
(13,0,o),
(15,0,cs),
(29,0,ls),
(38,0,o),
(39,1,o),
(42,8,cs),
(106,182,l)
);
},
{
closed = 1;
nodes = (
(230,513,l),
(352,205,l),
(115,205,l)
);
}
);
width = 472;
}
);
note = A;
unicode = 65;
},
{
glyphname = B;
layers = (
{
layerId = m01;
shapes = (
{
closed = 1;
nodes = (
(355,314,o),
(386,354,o),
(386,419,cs),
(386,506,o),
(333,556,o),
(231,556,cs),
(85,556,ls),
(83,556,o),
(82,554,o),
(82,553,cs),
(82,3,ls),
(82,1,o),
(83,0,o),
(85,0,cs),
(256,0,ls),
(360,0,o),
(421,57,o),
(421,157,cs),
(421,228,o),
(369,281,o),
(311,295,c)
);
},
{
closed = 1;
nodes = (
(108,533,l),
(233,533,ls),
(320,533,o),
(363,493,o),
(363,417,cs),
(363,353,o),
(323,305,o),
(260,305,cs),
(108,305,l)
);
},
{
closed = 1;
nodes = (
(108,282,l),
(259,282,ls),
(340,282,o),
(395,233,o),
(395,156,cs),
(395,63,o),
(345,23,o),
(253,23,cs),
(108,23,l)
);
}
);
width = 462;
}
);
note = B;
unicode = 66;
},
{
glyphname = C;
kernLeft = C;
kernRight = C;
layers = (
{
layerId = m01;
shapes = (
{
closed = 1;
nodes = (
(431,-11,o),
(479,78,o),
(479,106,cs),
(479,113,o),
(476,118,o),
(470,118,cs),
(466,118,o),
(464,116,o),
(461,109,cs),
(437,53,o),
(384,12,o),
(303,12,cs),
(171,12,o),
(89,114,o),
(89,277,cs),
(89,441,o),
(171,544,o),
(305,544,cs),
(359,544,o),
(402,529,o),
(452,493,cs),
(455,491,o),
(458,488,o),
(462,488,cs),
(465,488,o),
(466,490,o),
(468,495,cs),
(469,498,ls),
(473,509,o),
(469,514,o),
(448,527,cs),
(411,548,o),
(369,567,o),
(307,567,cs),
(157,567,o),
(63,456,o),
(63,278,cs),
(63,97,o),
(157,-11,o),
(301,-11,cs)
);
}
);
width = 505;
}
);
note = C;
unicode = 67;
},
{
glyphname = D;
layers = (
{
layerId = m01;
shapes = (
{
closed = 1;
nodes = (
(395,0,o),
(483,96,o),
(483,286,cs),
(483,464,o),
(395,556,o),
(224,556,cs),
(85,556,ls),
(83,556,o),
(82,554,o),
(82,553,cs),
(82,3,ls),
(82,1,o),
(83,0,o),
(85,0,cs),
(223,0,ls)
);
},
{
closed = 1;
nodes = (
(108,533,l),
(224,533,ls),
(383,533,o),
(457,453,o),
(457,284,cs),
(457,107,o),
(378,23,o),
(224,23,cs),
(108,23,l)
);
}
);
width = 547;
}
);
note = D;
unicode = 68;
},
{
glyphname = E;
kernRight = E;
layers = (
{
layerId = m01;
shapes = (
{
closed = 1;
nodes = (
(108,262,l),
(335,262,ls),
(340,262,o),
(341,264,o),
(341,268,cs),
(341,271,ls),
(341,281,o),
(336,285,o),
(328,285,cs),
(108,285,l),
(108,533,l),
(355,533,ls),
(360,533,o),
(361,534,o),
(361,539,cs),
(361,542,ls),
(361,552,o),
(356,556,o),
(348,556,cs),
(85,556,ls),
(83,556,o),
(82,554,o),
(82,553,cs),
(82,3,ls),
(82,1,o),
(83,0,o),
(85,0,cs),
(365,0,ls),
(369,0,o),
(371,2,o),
(371,6,cs),
(371,9,ls),
(371,19,o),
(366,23,o),
(358,23,cs),
(108,23,l)
);
}
);
width = 408;
}
);
note = E;
unicode = 69;
},
{
glyphname = F;
layers = (
{
layerId = m01;
shapes = (
{
closed = 1;
nodes = (
(335,262,ls),
(340,262,o),
(341,264,o),
(341,268,cs),
(341,271,ls),
(341,281,o),
(336,285,o),
(328,285,cs),
(108,285,l),
(108,533,l),
(355,533,ls),
(360,533,o),
(361,534,o),
(361,539,cs),
(361,542,ls),
(361,552,o),
(356,556,o),
(348,556,cs),
(85,556,ls),
(83,556,o),
(82,554,o),
(82,553,cs),
(82,3,ls),
(82,1,o),
(83,0,o),
(85,0,cs),
(105,0,ls),
(107,0,o),
(108,1,o),
(108,3,cs),
(108,262,l)
);
}
);
width = 392;
}
);
note = F;
unicode = 70;
},
{
glyphname = G;
layers = (
{
layerId = m01;
shapes = (
{
closed = 1;
nodes = (
(421,38,o),
(361,13,o),
(303,13,cs),
(170,13,o),
(89,112,o),
(89,277,cs),
(89,441,o),
(172,544,o),
(305,544,cs),
(362,544,o),
(408,529,o),
(458,493,cs),
(461,491,o),
(464,488,o),
(468,488,cs),
(471,488,o),
(472,490,o),
(474,495,cs),
(475,498,ls),
(479,509,o),
(475,515,o),
(454,527,cs),
(417,548,o),
(374,567,o),
(307,567,cs),
(159,567,o),
(63,454,o),
(63,278,cs),
(63,98,o),
(152,-10,o),
(302,-10,cs),
(366,-10,o),
(422,14,o),
(470,57,cs),
(485,69,o),
(486,78,o),
(486,97,cs),
(486,268,ls),
(486,271,o),
(485,271,o),
(482,271,cs),
(284,271,ls),
(279,271,o),
(277,269,o),
(277,266,cs),
(277,262,ls),
(277,252,o),
(282,248,o),
(291,248,cs),
(460,248,l),
(460,81,l)
);
}
);
width = 548;
}
);
note = G;
unicode = 71;
},
{
glyphname = H;
layers = (
{
layerId = m01;
shapes = (
{
closed = 1;
nodes = (
(408,264,l),
(408,3,ls),
(408,1,o),
(409,0,o),
(411,0,cs),
(431,0,ls),
(433,0,o),
(434,1,o),
(434,3,cs),
(434,528,ls),
(434,548,o),
(423,556,o),
(413,556,cs),
(411,556,ls),
(409,556,o),
(408,554,o),
(408,553,cs),
(408,287,l),
(108,287,l),
(108,528,ls),
(108,548,o),
(97,556,o),
(87,556,cs),
(85,556,ls),
(83,556,o),
(82,554,o),
(82,553,cs),
(82,3,ls),
(82,1,o),
(83,0,o),
(85,0,cs),
(105,0,ls),
(107,0,o),
(108,1,o),
(108,3,cs),
(108,264,l)
);
}
);
width = 517;
}
);
note = H;
unicode = 72;
},
{
glyphname = I;
kernRight = I;
layers = (
{
layerId = m01;
shapes = (
{
closed = 1;
nodes = (
(82,1,o),
(83,0,o),
(85,0,cs),
(105,0,ls),
(107,0,o),
(108,1,o),
(108,3,cs),
(108,528,ls),
(108,548,o),
(97,556,o),
(87,556,cs),
(85,556,ls),
(83,556,o),
(82,554,o),
(82,553,cs),
(82,3,ls)
);
}
);
width = 191;
}
);
note = I;
unicode = 73;
},
{
glyphname = J;
layers = (
{
layerId = m01;
shapes = (
{
closed = 1;
nodes = (
(9,41,o),
(31,-11,o),
(95,-11,cs),
(148,-11,o),
(185,30,o),
(185,87,cs),
(185,528,ls),
(185,548,o),
(174,556,o),
(164,556,cs),
(162,556,ls),
(160,556,o),
(159,554,o),
(159,553,cs),
(159,83,ls),
(159,43,o),
(133,13,o),
(93,13,cs),
(61,13,o),
(43,31,o),
(25,72,cs),
(22,78,o),
(20,79,o),
(16,79,cs),
(12,79,o),
(9,76,o),
(9,69,cs)
);
}
);
width = 264;
}
);
note = J;
unicode = 74;
},
{
glyphname = K;
layers = (
{
layerId = m01;
shapes = (
{
closed = 1;
nodes = (
(218,312,l),
(408,10,ls),
(413,2,o),
(415,0,o),
(425,0,cs),
(440,0,ls),
(443,0,o),
(444,2,o),
(443,4,cs),
(235,333,l),
(423,551,ls),
(425,553,o),
(424,556,o),
(421,556,cs),
(407,556,ls),
(398,556,o),
(395,553,o),
(389,547,cs),
(108,222,l),
(108,528,ls),
(108,548,o),
(97,556,o),
(87,556,cs),
(85,556,ls),
(83,556,o),
(82,554,o),
(82,553,cs),
(82,3,ls),
(82,1,o),
(83,0,o),
(85,0,cs),
(105,0,ls),
(107,0,o),
(108,1,o),
(108,3,cs),
(108,186,l)
);
}
);
width = 459;
}
);
note = K;
unicode = 75;
},
{
glyphname = L;
layers = (
{
layerId = m01;
shapes = (
{
closed = 1;
nodes = (
(108,528,ls),
(108,548,o),
(97,556,o),
(87,556,cs),
(85,556,ls),
(83,556,o),
(82,554,o),
(82,553,cs),
(82,3,ls),
(82,1,o),
(83,0,o),
(85,0,cs),
(324,0,ls),
(329,0,o),
(331,2,o),
(331,6,cs),
(331,9,ls),
(331,19,o),
(326,23,o),
(317,23,cs),
(108,23,l)
);
}
);
width = 354;
}
);
note = L;
unicode = 76;
},
{
glyphname = M;
layers = (
{
layerId = m01;
shapes = (
{
closed = 1;
nodes = (
(120,543,ls),
(117,552,o),
(113,556,o),
(104,556,cs),
(100,556,ls),
(98,556,o),
(97,554,o),
(97,553,cs),
(59,3,ls),
(59,1,o),
(60,0,o),
(62,0,cs),
(82,0,ls),
(84,0,o),
(85,1,o),
(85,3,cs),
(116,487,l),
(289,3,ls),
(290,1,o),
(291,0,o),
(293,0,cs),
(316,0,ls),
(317,0,o),
(318,1,o),
(320,3,c),
(493,488,l),
(525,3,ls),
(525,1,o),
(525,0,o),
(527,0,cs),
(547,0,ls),
(549,0,o),
(550,1,o),
(550,3,cs),
(515,541,l),
(513,549,o),
(510,556,o),
(501,556,cs),
(497,556,ls),
(496,556,o),
(495,554,o),
(493,553,c),
(305,26,l)
);
}
);
width = 610;
}
);
note = M;
unicode = 77;
},
{
glyphname = N;
kernRight = N;
layers = (
{
layerId = m01;
shapes = (
{
closed = 1;
nodes = (
(111,534,ls),
(100,552,o),
(95,556,o),
(86,556,cs),
(85,556,ls),
(83,556,o),
(82,554,o),
(82,553,cs),
(82,3,ls),
(82,1,o),
(83,0,o),
(85,0,cs),
(105,0,ls),
(107,0,o),
(108,1,o),
(108,3,cs),
(108,491,l),
(403,10,ls),
(408,2,o),
(410,0,o),
(420,0,cs),
(428,0,ls),
(433,0,o),
(434,3,o),
(434,7,cs),
(434,528,ls),
(434,548,o),
(423,556,o),
(413,556,cs),
(411,556,ls),
(409,556,o),
(408,554,o),
(408,553,cs),
(408,49,l)
);
}
);
width = 517;
}
);
note = N;
unicode = 78;
},
{
glyphname = O;
kernLeft = O;
kernRight = O;
layers = (
{
layerId = m01;
shapes = (
{
closed = 1;
nodes = (
(447,-10,o),
(522,101,o),
(522,277,cs),
(522,453,o),
(445,567,o),
(293,567,cs),
(142,567,o),
(63,453,o),
(63,277,cs),
(63,101,o),
(140,-10,o),
(293,-10,cs)
);
},
{
closed = 1;
nodes = (
(176,13,o),
(89,91,o),
(89,277,cs),
(89,462,o),
(176,544,o),
(293,544,cs),
(409,544,o),
(496,462,o),
(496,277,cs),
(496,91,o),
(409,13,o),
(293,13,cs)
);
}
);
width = 586;
}
);
note = O;
unicode = 79;
},
{
glyphname = P;
layers = (
{
layerId = m01;
shapes = (
{
closed = 1;
nodes = (
(265,226,ls),
(371,226,o),
(433,286,o),
(433,393,cs),
(433,498,o),
(364,556,o),
(263,556,cs),
(85,556,ls),
(83,556,o),
(82,554,o),
(82,553,cs),
(82,3,ls),
(82,1,o),
(83,0,o),
(85,0,cs),
(105,0,ls),
(107,0,o),
(108,1,o),
(108,3,cs),
(108,226,l)
);
},
{
closed = 1;
nodes = (
(108,533,l),
(267,533,ls),
(353,533,o),
(407,480,o),
(407,393,cs),
(407,279,o),
(334,248,o),
(263,248,cs),
(108,248,l)
);
}
);
width = 475;
}
);
note = P;
unicode = 80;
},
{
glyphname = Q;
layers = (
{
layerId = m01;
shapes = (
{
closed = 1;
nodes = (
(288,-63,o),
(329,-106,o),
(394,-106,cs),
(472,-106,o),
(514,-58,o),
(514,-20,cs),
(514,-14,o),
(511,-8,o),
(506,-8,cs),
(501,-8,o),
(499,-11,o),
(496,-17,c),
(482,-58,o),
(447,-83,o),
(394,-83,cs),
(339,-83,o),
(312,-39,o),
(299,-10,c),
(449,-7,o),
(522,102,o),
(522,277,cs),
(522,453,o),
(445,567,o),
(293,567,cs),
(142,567,o),
(63,453,o),
(63,277,cs),
(63,109,o),
(132,2,o),
(270,-9,c)
);
},
{
closed = 1;
nodes = (
(176,13,o),
(89,91,o),
(89,277,cs),
(89,462,o),
(176,544,o),
(293,544,cs),
(409,544,o),
(496,462,o),
(496,277,cs),
(496,91,o),
(409,13,o),
(293,13,cs)
);
}
);
width = 586;
}
);
note = Q;
unicode = 81;
},
{
glyphname = R;
layers = (
{
layerId = m01;
shapes = (
{
closed = 1;
nodes = (
(265,226,ls),
(272,226,o),
(279,226,o),
(286,227,c),
(412,8,ls),
(416,1,o),
(418,0,o),
(424,0,cs),
(441,0,ls),
(444,0,o),
(445,2,o),
(444,4,cs),
(313,231,l),
(390,247,o),
(433,303,o),
(433,393,cs),
(433,498,o),
(364,556,o),
(263,556,cs),
(85,556,ls),
(83,556,o),
(82,554,o),
(82,553,cs),
(82,3,ls),
(82,1,o),
(83,0,o),
(85,0,cs),
(105,0,ls),
(107,0,o),
(108,1,o),
(108,3,cs),
(108,226,l)
);
},
{
closed = 1;
nodes = (
(108,533,l),
(267,533,ls),
(353,533,o),
(407,481,o),
(407,393,cs),
(407,279,o),
(334,248,o),
(263,248,cs),
(108,248,l)
);
}
);
width = 490;
}
);
note = R;
unicode = 82;
},
{
glyphname = S;
kernLeft = S;
kernRight = S;
layers = (
{
layerId = m01;
shapes = (
{
closed = 1;
nodes = (
(27,71,o),
(80,-11,o),
(209,-11,cs),
(318,-11,o),
(386,53,o),
(386,150,cs),
(386,322,o),
(71,274,o),
(71,426,cs),
(71,498,o),
(130,544,o),
(214,544,cs),
(268,544,o),
(309,529,o),
(359,493,cs),
(362,491,o),
(365,488,o),
(369,488,cs),
(372,488,o),
(373,490,o),
(375,495,cs),
(376,498,ls),
(380,509,o),
(376,514,o),
(355,527,cs),
(318,548,o),
(276,567,o),
(214,567,cs),
(118,567,o),
(45,509,o),
(45,424,cs),
(45,257,o),
(360,300,o),
(360,149,cs),
(360,63,o),
(304,12,o),
(207,12,cs),
(129,12,o),
(65,51,o),
(46,109,cs),
(44,116,o),
(41,119,o),
(36,119,cs),
(28,119,o),
(27,111,o),
(27,103,cs)
);
}
);
width = 422;
}
);
note = S;
unicode = 83;
},
{
glyphname = T;
layers = (
{
layerId = m01;
shapes = (
{
closed = 1;
nodes = (
(177,3,ls),
(177,1,o),
(178,0,o),
(180,0,cs),
(200,0,ls),
(202,0,o),
(203,1,o),
(203,3,cs),
(203,533,l),
(354,533,ls),
(359,533,o),
(361,534,o),
(361,539,cs),
(361,542,ls),
(361,552,o),
(356,556,o),
(347,556,cs),
(22,556,ls),
(20,556,o),
(19,554,o),
(19,553,cs),
(19,536,ls),
(19,534,o),
(20,533,o),
(22,533,cs),
(177,533,l)
);
}
);
width = 379;
}
);
note = T;
unicode = 84;
},
{
glyphname = U;
kernLeft = U;
kernRight = U;
layers = (
{
layerId = m01;
shapes = (
{
closed = 1;
nodes = (
(368,-10,o),
(431,63,o),
(431,197,cs),
(431,528,ls),
(431,548,o),
(420,556,o),
(410,556,cs),
(407,556,ls),
(406,556,o),
(405,554,o),
(405,553,cs),
(405,192,ls),
(405,76,o),
(352,13,o),
(255,13,cs),
(155,13,o),
(104,73,o),
(104,191,cs),
(104,528,ls),
(104,548,o),
(92,556,o),
(82,556,cs),
(81,556,ls),
(79,556,o),
(78,554,o),
(78,553,cs),
(78,194,ls),
(78,59,o),
(137,-10,o),
(254,-10,cs)
);
}
);
width = 508;
}
);
note = U;
unicode = 85;
},
{
glyphname = V;
layers = (
{
layerId = m01;
shapes = (
{
closed = 1;
nodes = (
(53,534,ls),
(48,547,o),
(41,556,o),
(27,556,cs),
(23,556,ls),
(19,556,o),
(18,553,o),
(19,551,cs),
(216,4,ls),
(217,1,o),
(218,0,o),
(221,0,cs),
(232,0,ls),
(236,0,o),
(237,1,o),
(238,4,cs),
(426,551,l),
(426,553,o),
(426,556,o),
(422,556,cs),
(410,556,ls),
(403,556,o),
(401,554,o),
(398,547,cs),
(227,45,l)
);
}
);
width = 444;
}
);
note = V;
unicode = 86;
},
{
glyphname = W;
layers = (
{
layerId = m01;
shapes = (
{
closed = 1;
nodes = (
(67,534,ls),
(63,547,o),
(55,556,o),
(41,556,cs),
(38,556,ls),
(34,556,o),
(33,553,o),
(34,551,cs),
(202,4,ls),
(203,1,o),
(204,0,o),
(207,0,cs),
(217,0,ls),
(221,0,o),
(222,1,o),
(223,4,cs),
(382,511,l),
(532,4,ls),
(533,1,o),
(534,0,o),
(537,0,cs),
(548,0,ls),
(552,0,o),
(553,1,o),
(554,4,cs),
(731,551,ls),
(732,553,o),
(731,556,o),
(727,556,cs),
(714,556,ls),
(707,556,o),
(705,554,o),
(702,547,c),
(543,46,l),
(400,534,ls),
(396,547,o),
(391,556,o),
(377,556,cs),
(375,556,ls),
(371,556,o),
(369,553,o),
(368,548,cs),
(213,46,l)
);
}
);
width = 761;
}
);
note = W;
unicode = 87;
},
{
glyphname = X;
layers = (
{
layerId = m01;
shapes = (
{
closed = 1;
nodes = (
(403,8,ls),
(407,2,o),
(408,0,o),
(416,0,cs),
(432,0,ls),
(435,0,o),
(436,2,o),
(435,4,cs),
(241,300,l),
(412,552,ls),
(413,553,o),
(412,556,o),
(411,556,cs),
(396,556,ls),
(388,556,o),
(387,553,o),
(383,548,cs),
(225,317,l),
(77,541,ls),
(70,552,o),
(63,556,o),
(51,556,cs),
(43,556,ls),
(41,556,o),
(40,553,o),
(41,552,cs),
(208,299,l),
(15,4,ls),
(14,2,o),
(15,0,o),
(17,0,cs),
(32,0,ls),
(39,0,o),
(41,2,o),
(45,8,cs),
(225,280,l)
);
}
);
width = 446;
}
);
note = X;
unicode = 88;
},
{
glyphname = Y;
kernLeft = Y;
kernRight = Y;
layers = (
{
layerId = m01;
shapes = (
{
closed = 1;
nodes = (
(196,3,ls),
(196,1,o),
(197,0,o),
(199,0,cs),
(219,0,ls),
(221,0,o),
(222,1,o),
(222,3,cs),
(222,223,l),
(407,552,l),
(408,553,o),
(407,556,o),
(403,556,cs),
(391,556,ls),
(384,556,o),
(381,553,o),
(377,547,cs),
(209,247,l),
(53,533,ls),
(43,551,o),
(36,556,o),
(22,556,cs),
(18,556,ls),
(15,556,o),
(14,553,o),
(15,552,c),
(196,223,l)
);
}
);
width = 421;
}
);
note = Y;
unicode = 89;
},
{
glyphname = Z;
kernLeft = Z;
kernRight = Z;
layers = (
{
layerId = m01;
shapes = (
{
closed = 1;
nodes = (
(377,505,ls),
(386,519,o),
(389,526,o),
(389,532,cs),
(389,536,ls),
(389,548,o),
(383,556,o),
(365,556,cs),
(64,556,ls),
(63,556,o),
(62,554,o),
(62,553,cs),
(62,536,ls),
(62,534,o),
(63,533,o),
(64,533,cs),
(367,533,l),
(47,38,ls),
(41,29,o),
(40,24,o),
(40,16,cs),
(40,3,ls),
(40,1,o),
(41,0,o),
(43,0,cs),
(382,0,ls),
(384,0,o),
(387,2,o),
(387,6,cs),
(387,9,ls),
(387,19,o),
(382,23,o),
(373,23,cs),
(64,23,l)
);
}
);
width = 433;
}
);
note = Z;
unicode = 90;
},
{
glyphname = bracketleft;
layers = (
{
layerId = m01;
shapes = (
{
closed = 1;
nodes = (
(226,-144,o),
(226,-144,o),
(226,-143,cs),
(226,-142,ls),
(226,-130,o),
(215,-121,o),
(200,-121,cs),
(132,-121,ls),
(114,-121,o),
(104,-108,o),
(104,-91,cs),
(104,643,ls),
(104,659,o),
(114,673,o),
(132,673,cs),
(200,673,ls),
(215,673,o),
(226,682,o),
(226,693,cs),
(226,694,ls),
(226,696,o),
(226,696,o),
(224,696,cs),
(129,696,ls),
(100,696,o),
(78,674,o),
(78,645,cs),
(78,-93,ls),
(78,-123,o),
(100,-144,o),
(129,-144,cs),
(224,-144,ls)
);
}
);
width = 282;
}
);
note = bracketleft;
unicode = 91;
},
{
glyphname = backslash;
layers = (
{
layerId = m01;
shapes = (
{
closed = 1;
nodes = (
(234,1,o),
(235,0,o),
(244,0,cs),
(258,0,ls),
(260,0,o),
(262,2,o),
(260,4,c),
(36,534,ls),
(31,547,o),
(24,556,o),
(10,556,cs),
(6,556,ls),
(2,556,o),
(1,553,o),
(2,551,cs),
(232,8,l)
);
}
);
width = 261;
}
);
note = backslash;
unicode = 92;
},
{
glyphname = bracketright;
layers = (
{
layerId = m01;
shapes = (
{
closed = 1;
nodes = (
(183,-144,o),
(204,-123,o),
(204,-93,cs),
(204,645,ls),
(204,674,o),
(183,696,o),
(153,696,cs),
(58,696,ls),
(57,696,o),
(56,696,o),
(56,694,cs),
(56,693,ls),
(56,682,o),
(68,673,o),
(83,673,cs),
(150,673,ls),
(169,673,o),
(178,659,o),
(178,643,cs),
(178,-91,ls),
(178,-108,o),
(169,-121,o),
(150,-121,cs),
(83,-121,ls),
(68,-121,o),
(56,-130,o),
(56,-142,cs),
(56,-143,ls),
(56,-144,o),
(57,-144,o),
(58,-144,cs),
(153,-144,ls)
);
}
);
width = 282;
}
);
note = bracketright;
unicode = 93;
},
{
glyphname = asciicircum;
layers = (
{
layerId = m01;
shapes = (
{
closed = 1;
nodes = (
(306,282,ls),
(310,274,o),
(311,273,o),
(318,273,cs),
(331,273,ls),
(334,273,o),
(335,276,o),
(334,278,cs),
(204,534,ls),
(195,552,o),
(190,556,o),
(180,556,cs),
(177,556,o),
(175,554,o),
(173,551,cs),
(34,278,ls),
(33,276,o),
(34,273,o),
(37,273,cs),
(50,273,ls),
(57,273,o),
(58,274,o),
(62,282,cs),
(184,517,l)
);
}
);
width = 368;
}
);
note = asciicircum;
unicode = 94;
},
{
glyphname = underscore;
layers = (
{
layerId = m01;
shapes = (
{
closed = 1;
nodes = (
(-8,-167,o),
(-7,-168,o),
(-5,-168,cs),
(358,-168,ls),
(360,-168,o),
(361,-167,o),
(361,-165,cs),
(361,-148,ls),
(361,-146,o),
(360,-145,o),
(358,-145,cs),
(-5,-145,ls),
(-7,-145,o),
(-8,-146,o),
(-8,-148,cs),
(-8,-165,ls)
);
}
);
width = 355;
}
);
note = underscore;
unicode = 95;
},
{
glyphname = grave;
layers = (
{
layerId = m01;
shapes = (
{
closed = 1;
nodes = (
(81,431,o),
(83,431,o),
(94,431,cs),
(103,431,ls),
(107,431,o),
(109,433,o),
(107,436,c),
(49,493,ls),
(42,499,o),
(39,502,o),
(28,502,cs),
(5,502,ls),
(1,502,o),
(0,498,o),
(2,496,cs),
(69,440,ls)
);
}
);
width = 107;
}
);
note = grave;
unicode = 96;
},
{
glyphname = a;
kernLeft = a;
layers = (
{
layerId = m01;
shapes = (
{
closed = 1;
nodes = (
(331,325,o),
(283,367,o),
(213,367,cs),
(117,367,o),
(50,288,o),
(50,179,cs),
(50,68,o),
(117,-9,o),
(214,-9,cs),
(282,-9,o),
(329,27,o),
(348,74,c),
(348,3,ls),
(348,1,o),
(349,0,o),
(351,0,cs),
(371,0,ls),
(373,0,o),
(374,1,o),
(374,3,cs),
(374,357,ls),
(374,359,o),
(373,360,o),
(371,360,cs),
(369,360,ls),
(359,360,o),
(348,353,o),
(348,332,cs),
(348,284,l)
);
},
{
closed = 1;
nodes = (
(131,13,o),
(76,78,o),
(76,179,cs),
(76,280,o),
(129,345,o),
(213,345,cs),
(301,345,o),
(349,285,o),
(349,179,cs),
(349,73,o),
(301,13,o),
(214,13,cs)
);
}
);
width = 441;
}
);
note = a;
unicode = 97;
},
{
glyphname = b;
layers = (
{
layerId = m01;
shapes = (
{
closed = 1;
nodes = (
(112,27,o),
(159,-9,o),
(228,-9,cs),
(325,-9,o),
(392,68,o),
(392,179,cs),
(392,288,o),
(324,367,o),
(229,367,cs),
(158,367,o),
(111,325,o),
(94,284,c),
(94,528,ls),
(94,548,o),
(82,556,o),
(73,556,cs),
(71,556,ls),
(69,556,o),
(68,554,o),
(68,553,cs),
(68,3,ls),
(68,1,o),
(69,0,o),
(71,0,cs),
(91,0,ls),
(92,0,o),
(94,1,o),
(94,3,cs),
(94,74,l)
);
},
{
closed = 1;
nodes = (
(141,13,o),
(92,73,o),
(92,179,cs),
(92,285,o),
(141,345,o),
(229,345,cs),
(312,345,o),
(366,280,o),
(366,179,cs),
(366,78,o),
(311,13,o),
(228,13,cs)
);
}
);
width = 441;
}
);
note = b;
unicode = 98;
},
{
glyphname = c;
kernLeft = c;
kernRight = c;
layers = (
{
layerId = m01;
shapes = (
{
closed = 1;
nodes = (
(300,-9,o),
(333,54,o),
(333,81,cs),
(333,86,o),
(332,91,o),
(327,91,cs),
(323,91,o),
(322,87,o),
(318,82,c),
(300,39,o),
(265,13,o),
(211,13,cs),
(127,13,o),
(75,74,o),
(75,178,cs),
(75,283,o),
(128,345,o),
(214,345,cs),
(254,345,o),
(281,337,o),
(308,318,c),
(312,316,o),
(315,314,o),
(318,314,cs),
(322,314,o),
(322,316,o),
(323,319,cs),
(325,323,ls),
(327,330,o),
(323,338,o),
(305,347,cs),
(276,360,o),
(252,367,o),
(214,367,cs),
(116,367,o),
(49,294,o),
(49,178,cs),
(49,63,o),
(110,-9,o),
(209,-9,cs)
);
}
);
width = 359;
}
);
note = c;
unicode = 99;
},
{
glyphname = d;
layers = (
{
layerId = m01;
shapes = (
{
closed = 1;
nodes = (
(331,325,o),
(283,367,o),
(212,367,cs),
(117,367,o),
(49,288,o),
(49,179,cs),
(49,68,o),
(116,-9,o),
(213,-9,cs),
(282,-9,o),
(328,27,o),
(347,74,c),
(347,3,ls),
(347,1,o),
(348,0,o),
(350,0,cs),
(370,0,ls),
(372,0,o),
(373,1,o),
(373,3,cs),
(373,528,ls),
(373,548,o),
(362,556,o),
(352,556,cs),
(350,556,ls),
(348,556,o),
(347,554,o),
(347,553,cs),
(347,284,l)
);
},
{
closed = 1;
nodes = (
(130,13,o),
(75,78,o),
(75,179,cs),
(75,280,o),
(129,345,o),
(212,345,cs),
(300,345,o),
(348,285,o),
(348,179,cs),
(348,73,o),
(300,13,o),
(213,13,cs)
);
}
);
width = 441;
}
);
note = d;
unicode = 100;
},
{
glyphname = e;
kernLeft = e;
kernRight = e;
layers = (
{
layerId = m01;
shapes = (
{
closed = 1;
nodes = (
(339,172,o),
(343,174,o),
(344,183,cs),
(345,192,o),
(345,194,o),
(345,203,cs),
(345,297,o),
(288,367,o),
(204,367,cs),
(112,367,o),
(50,289,o),
(50,178,cs),
(50,63,o),
(111,-9,o),
(208,-9,cs),
(307,-9,o),
(342,54,o),
(342,78,cs),
(342,83,o),
(340,89,o),
(335,89,cs),
(331,89,o),
(329,87,o),
(326,81,cs),
(308,38,o),
(267,13,o),
(209,13,cs),
(126,13,o),
(78,71,o),
(76,172,c),
(331,172,ls)
);
},
{
closed = 1;
nodes = (
(82,289,o),
(128,345,o),
(203,345,cs),
(274,345,o),
(322,284,o),
(319,194,c),
(76,194,l)
);
}
);
width = 391;
}
);
note = e;
unicode = 101;
},
{
glyphname = f;
kernLeft = f;
layers = (
{
layerId = m01;
shapes = (
{
closed = 1;
nodes = (
(85,3,ls),
(85,1,o),
(86,0,o),
(89,0,cs),
(108,0,ls),
(110,0,o),
(111,1,o),
(111,3,cs),
(111,337,l),
(201,337,ls),
(202,337,o),
(204,338,o),
(204,340,cs),
(204,357,ls),
(204,359,o),
(202,360,o),
(201,360,cs),
(111,360,l),
(111,478,ls),
(111,516,o),
(125,533,o),
(155,533,cs),
(181,533,o),
(194,519,o),
(202,496,c),
(204,493,o),
(206,490,o),
(210,490,cs),
(216,490,o),
(216,497,o),
(216,502,cs),
(216,527,o),
(192,556,o),
(156,556,cs),
(109,556,o),
(85,527,o),
(85,477,cs),
(85,360,l),
(21,360,ls),
(19,360,o),
(18,359,o),
(18,357,cs),
(18,340,ls),
(18,338,o),
(19,337,o),
(21,337,cs),
(85,337,l)
);
}
);
width = 242;
}
);
note = f;
unicode = 102;
},
{
glyphname = g;
layers = (
{
layerId = m01;
shapes = (
{
closed = 1;
nodes = (
(331,325,o),
(283,367,o),
(212,367,cs),
(117,367,o),
(49,288,o),
(49,179,cs),
(49,68,o),
(116,-9,o),
(213,-9,cs),
(282,-9,o),
(328,27,o),
(347,74,c),
(347,-11,ls),
(347,-101,o),
(305,-148,o),
(211,-148,cs),
(152,-148,o),
(103,-121,o),
(80,-74,cs),
(78,-71,o),
(75,-68,o),
(71,-68,cs),
(66,-68,o),
(64,-73,o),
(64,-79,cs),
(64,-106,o),
(115,-170,o),
(213,-170,cs),
(317,-170,o),
(373,-108,o),
(373,-9,cs),
(373,357,ls),
(373,359,o),
(372,360,o),
(370,360,cs),
(368,360,ls),
(358,360,o),
(347,353,o),
(347,332,cs),
(347,284,l)
);
},
{
closed = 1;
nodes = (
(130,13,o),
(75,78,o),
(75,179,cs),
(75,280,o),
(129,345,o),
(212,345,cs),
(300,345,o),
(348,285,o),
(348,179,cs),
(348,73,o),
(300,13,o),
(213,13,cs)
);
}
);
width = 441;
}
);
note = g;
unicode = 103;
},
{
glyphname = h;
layers = (
{
layerId = m01;
shapes = (
{
closed = 1;
nodes = (
(94,548,o),
(82,556,o),
(73,556,cs),
(71,556,ls),
(69,556,o),
(68,554,o),
(68,553,cs),
(68,3,ls),
(68,1,o),
(69,0,o),
(71,0,cs),
(91,0,ls),
(92,0,o),
(94,1,o),
(94,3,cs),
(94,217,ls),
(94,299,o),
(149,345,o),
(222,345,cs),
(295,345,o),
(336,300,o),
(336,224,cs),
(336,3,ls),
(336,1,o),
(337,0,o),
(339,0,cs),
(359,0,ls),
(361,0,o),
(362,1,o),
(362,3,cs),
(362,227,ls),
(362,312,o),
(309,367,o),
(224,367,cs),
(164,367,o),
(120,341,o),
(94,299,c),
(94,528,ls)
);
}
);
width = 427;
}
);
note = h;
unicode = 104;
},
{
glyphname = i;
kernLeft = i;
layers = (
{
layerId = m01;
shapes = (
{
closed = 1;
nodes = (
(61,434,o),
(69,426,o),
(80,426,cs),
(91,426,o),
(99,434,o),
(99,445,cs),
(99,456,o),
(91,464,o),
(80,464,cs),
(69,464,o),
(61,456,o),
(61,445,cs)
);
},
{
closed = 1;
nodes = (
(68,1,o),
(69,0,o),
(71,0,cs),
(91,0,ls),
(93,0,o),
(94,1,o),
(94,3,cs),
(94,332,ls),
(94,353,o),
(83,360,o),
(73,360,cs),
(71,360,ls),
(69,360,o),
(68,359,o),
(68,357,cs),
(68,3,ls)
);
}
);
width = 161;
}
);
note = i;
unicode = 105;
},
{
glyphname = j;
layers = (
{
layerId = m01;
shapes = (
{
closed = 1;
nodes = (
(60,434,o),
(68,426,o),
(79,426,cs),
(90,426,o),
(98,434,o),
(98,445,cs),
(98,456,o),
(90,464,o),
(79,464,cs),
(68,464,o),
(60,456,o),
(60,445,cs)
);
},
{
closed = 1;
nodes = (
(-25,-106,o),
(-28,-104,o),
(-31,-104,cs),
(-37,-104,o),
(-38,-111,o),
(-38,-116,cs),
(-38,-141,o),
(-14,-170,o),
(24,-170,cs),
(70,-170,o),
(93,-143,o),
(93,-93,cs),
(93,332,ls),
(93,353,o),
(82,360,o),
(73,360,cs),
(70,360,ls),
(68,360,o),
(68,359,o),
(68,357,cs),
(68,-92,ls),
(68,-130,o),
(54,-147,o),
(24,-147,cs),
(-2,-147,o),
(-16,-133,o),
(-24,-111,c)
);
}
);
width = 161;
}
);
note = j;
unicode = 106;
},
{
glyphname = k;
layers = (
{
layerId = m01;
shapes = (
{
closed = 1;
nodes = (
(160,213,l),
(289,10,ls),
(294,2,o),
(295,0,o),
(305,0,cs),
(319,0,ls),
(322,0,o),
(324,2,o),
(322,4,c),
(178,231,l),
(304,355,l),
(305,357,o),
(304,360,o),
(301,360,cs),
(290,360,ls),
(280,360,o),
(276,358,o),
(270,351,c),
(94,179,l),
(94,528,ls),
(94,548,o),
(82,556,o),
(73,556,cs),
(71,556,ls),
(69,556,o),
(68,554,o),
(68,553,cs),
(68,3,ls),
(68,1,o),
(69,0,o),
(71,0,cs),
(91,0,ls),
(92,0,o),
(94,1,o),
(94,3,cs),
(94,146,l)
);
}
);
width = 338;
}
);
note = k;
unicode = 107;
},
{
glyphname = l;
kernRight = l;
layers = (
{
layerId = m01;
shapes = (
{
closed = 1;
nodes = (
(179,-9,o),
(198,27,o),
(198,46,cs),
(198,52,o),
(196,59,o),
(191,59,cs),
(188,59,o),
(186,56,o),
(184,51,cs),
(175,29,o),
(161,16,o),
(137,16,cs),
(108,16,o),
(93,36,o),
(93,69,cs),
(93,528,ls),
(93,548,o),
(82,556,o),
(72,556,cs),
(70,556,ls),
(68,556,o),
(67,554,o),
(67,553,cs),
(67,68,ls),
(67,21,o),
(91,-9,o),
(136,-9,cs)
);
}
);
width = 201;
}
);
note = l;
unicode = 108;
},
{
glyphname = m;
layers = (
{
layerId = m01;
shapes = (
{
closed = 1;
nodes = (
(94,353,o),
(82,360,o),
(73,360,cs),
(71,360,ls),
(69,360,o),
(68,359,o),
(68,357,cs),
(68,3,ls),
(68,1,o),
(69,0,o),
(71,0,cs),
(91,0,ls),
(92,0,o),
(94,1,o),
(94,3,cs),
(94,217,ls),
(94,299,o),
(144,345,o),
(218,345,cs),
(290,345,o),
(332,300,o),
(332,224,cs),
(332,3,ls),
(332,1,o),
(333,0,o),
(335,0,cs),
(355,0,ls),
(357,0,o),
(358,1,o),
(358,3,cs),
(358,217,ls),
(358,299,o),
(409,345,o),
(482,345,cs),
(555,345,o),
(596,300,o),
(596,224,cs),
(596,3,ls),
(596,1,o),
(597,0,o),
(600,0,cs),
(619,0,ls),
(621,0,o),
(622,1,o),
(622,3,cs),
(622,227,ls),
(622,312,o),
(569,367,o),
(484,367,cs),
(417,367,o),
(371,333,o),
(348,284,c),
(329,336,o),
(284,367,o),
(220,367,cs),
(160,367,o),
(120,341,o),
(94,299,c),
(94,332,ls)
);
}
);
width = 688;
}
);
note = m;
unicode = 109;
},
{
glyphname = n;
kernLeft = n;
kernRight = n;
layers = (
{
layerId = m01;
shapes = (
{
closed = 1;
nodes = (
(94,353,o),
(82,360,o),
(73,360,cs),
(71,360,ls),
(69,360,o),
(68,359,o),
(68,357,cs),
(68,3,ls),
(68,1,o),
(69,0,o),
(71,0,cs),
(91,0,ls),
(92,0,o),
(94,1,o),
(94,3,cs),
(94,217,ls),
(94,299,o),
(149,345,o),
(222,345,cs),
(295,345,o),
(336,300,o),
(336,224,cs),
(336,3,ls),
(336,1,o),
(337,0,o),
(339,0,cs),
(359,0,ls),
(361,0,o),
(362,1,o),
(362,3,cs),
(362,227,ls),
(362,312,o),
(309,367,o),
(224,367,cs),
(164,367,o),
(120,341,o),
(94,299,c),
(94,332,ls)
);
}
);
width = 427;
}
);
note = n;
unicode = 110;
},
{
glyphname = o;
kernLeft = o;
kernRight = o;
layers = (
{
layerId = m01;
shapes = (
{
closed = 1;
nodes = (
(313,-9,o),
(377,66,o),
(377,179,cs),
(377,294,o),
(313,367,o),
(211,367,cs),
(113,367,o),
(49,293,o),
(49,178,cs),
(49,63,o),
(113,-9,o),
(212,-9,cs)
);
},
{
closed = 1;
nodes = (
(128,13,o),
(75,77,o),
(75,179,cs),
(75,281,o),
(128,345,o),
(211,345,cs),
(297,345,o),
(351,279,o),
(351,178,cs),
(351,78,o),
(297,13,o),
(211,13,cs)
);
}
);
width = 427;
}
);
note = o;
unicode = 111;
},
{
glyphname = p;
layers = (
{
layerId = m01;
shapes = (
{
closed = 1;
nodes = (
(112,27,o),
(159,-9,o),
(228,-9,cs),
(325,-9,o),
(392,68,o),
(392,179,cs),
(392,288,o),
(324,367,o),
(229,367,cs),
(158,367,o),
(111,325,o),
(94,284,c),
(94,332,ls),
(94,353,o),
(82,360,o),
(73,360,cs),
(71,360,ls),
(69,360,o),
(68,359,o),
(68,357,cs),
(68,-157,ls),
(68,-159,o),
(69,-160,o),
(71,-160,cs),
(91,-160,ls),
(92,-160,o),
(94,-159,o),
(94,-157,cs),
(94,74,l)
);
},
{
closed = 1;
nodes = (
(141,13,o),
(92,73,o),
(92,179,cs),
(92,285,o),
(141,345,o),
(229,345,cs),
(312,345,o),
(366,280,o),
(366,179,cs),
(366,78,o),
(311,13,o),
(228,13,cs)
);
}
);
width = 441;
}
);
note = p;
unicode = 112;
},
{
glyphname = q;
layers = (
{
layerId = m01;
shapes = (
{
closed = 1;
nodes = (
(331,325,o),
(283,367,o),
(212,367,cs),
(117,367,o),
(49,288,o),
(49,179,cs),
(49,68,o),
(116,-9,o),
(213,-9,cs),
(282,-9,o),
(328,27,o),
(347,74,c),
(347,-157,ls),
(347,-159,o),
(348,-160,o),
(350,-160,cs),
(370,-160,ls),
(372,-160,o),
(373,-159,o),
(373,-157,cs),
(373,357,ls),
(373,359,o),
(372,360,o),
(370,360,cs),
(368,360,ls),
(358,360,o),
(347,353,o),
(347,332,cs),
(347,284,l)
);
},
{
closed = 1;
nodes = (
(130,13,o),
(75,78,o),
(75,179,cs),
(75,280,o),
(129,345,o),
(212,345,cs),
(300,345,o),
(348,285,o),
(348,179,cs),
(348,73,o),
(300,13,o),
(213,13,cs)
);
}
);
width = 441;
}
);
note = q;
unicode = 113;
},
{
glyphname = r;
kernLeft = r;
layers = (
{
layerId = m01;
shapes = (
{
closed = 1;
nodes = (
(94,353,o),
(82,360,o),
(73,360,cs),
(71,360,ls),
(69,360,o),
(68,359,o),
(68,357,cs),
(68,3,ls),
(68,1,o),
(69,0,o),
(71,0,cs),
(91,0,ls),
(92,0,o),
(94,1,o),
(94,3,cs),
(94,200,ls),
(94,284,o),
(122,334,o),
(195,334,cs),
(216,334,ls),
(218,334,o),
(219,335,o),
(219,337,cs),
(219,357,ls),
(219,359,o),
(218,360,o),
(216,360,cs),
(210,360,ls),
(145,360,o),
(111,335,o),
(94,299,c),
(94,332,ls)
);
}
);
width = 253;
}
);
note = r;
unicode = 114;
},
{
glyphname = s;
kernLeft = s;
layers = (
{
layerId = m01;
shapes = (
{
closed = 1;
nodes = (
(257,331,o),
(255,340,o),
(236,349,cs),
(209,362,o),
(186,367,o),
(150,367,cs),
(84,367,o),
(36,328,o),
(36,273,cs),
(36,162,o),
(245,188,o),
(245,92,cs),
(245,42,o),
(205,12,o),
(149,12,cs),
(101,12,o),
(65,30,o),
(44,78,c),
(41,83,o),
(39,87,o),
(35,87,cs),
(30,87,o),
(28,81,o),
(28,74,cs),
(28,48,o),
(66,-11,o),
(149,-11,cs),
(218,-11,o),
(271,33,o),
(271,96,cs),
(271,208,o),
(62,186,o),
(62,276,cs),
(62,318,o),
(97,344,o),
(150,344,cs),
(188,344,o),
(214,336,o),
(240,318,c),
(242,316,o),
(246,313,o),
(250,313,cs),
(252,313,o),
(254,316,o),
(255,319,cs),
(256,324,ls)
);
}
);
width = 299;
}
);
note = s;
unicode = 115;
},
{
glyphname = t;
layers = (
{
layerId = m01;
shapes = (
{
closed = 1;
nodes = (
(92,3,ls),
(92,1,o),
(92,0,o),
(94,0,cs),
(114,0,ls),
(116,0,o),
(117,1,o),
(117,3,cs),
(117,337,l),
(194,337,ls),
(195,337,o),
(197,338,o),
(197,340,cs),
(197,357,ls),
(197,359,o),
(195,360,o),
(194,360,cs),
(117,360,l),
(117,463,ls),
(117,484,o),
(106,491,o),
(97,491,cs),
(94,491,ls),
(92,491,o),
(92,490,o),
(92,488,cs),
(92,360,l),
(24,360,ls),
(22,360,o),
(21,359,o),
(21,357,cs),
(21,340,ls),
(21,338,o),
(22,337,o),
(24,337,cs),
(92,337,l)
);
}
);
width = 228;
}
);
note = t;
unicode = 116;
},
{
glyphname = u;
kernLeft = u;
kernRight = u;
layers = (
{
layerId = m01;
shapes = (
{
closed = 1;
nodes = (
(299,-9,o),
(349,49,o),
(349,159,cs),
(349,332,ls),
(349,353,o),
(338,360,o),
(328,360,cs),
(326,360,ls),
(324,360,o),
(323,359,o),
(323,357,cs),
(323,156,ls),
(323,62,o),
(285,13,o),
(208,13,cs),
(133,13,o),
(93,63,o),
(93,156,cs),
(93,332,ls),
(93,353,o),
(82,360,o),
(72,360,cs),
(70,360,ls),
(68,360,o),
(67,359,o),
(67,357,cs),
(67,159,ls),
(67,45,o),
(116,-9,o),
(208,-9,cs)
);
}
);
width = 416;
}
);
note = u;
unicode = 117;
},
{
glyphname = v;
layers = (
{
layerId = m01;
shapes = (
{
closed = 1;
nodes = (
(54,338,ls),
(49,351,o),
(42,360,o),
(28,360,cs),
(24,360,ls),
(20,360,o),
(19,358,o),
(20,355,cs),
(145,4,ls),
(146,1,o),
(147,0,o),
(150,0,cs),
(161,0,ls),
(165,0,o),
(166,1,o),
(167,4,cs),
(287,355,ls),
(288,358,o),
(287,360,o),
(285,360,cs),
(271,360,ls),
(265,360,o),
(262,359,o),
(260,351,cs),
(156,45,l)
);
}
);
width = 307;
}
);
note = v;
unicode = 118;
},
{
glyphname = w;
layers = (
{
layerId = m01;
shapes = (
{
closed = 1;
nodes = (
(59,338,l),
(54,351,o),
(47,360,o),
(33,360,cs),
(30,360,ls),
(27,360,o),
(26,358,o),
(27,355,cs),
(132,4,ls),
(133,1,o),
(134,0,o),
(137,0,cs),
(148,0,ls),
(152,0,o),
(153,1,o),
(154,4,cs),
(255,317,l),
(360,4,l),
(360,1,o),
(362,0,o),
(365,0,cs),
(375,0,ls),
(379,0,o),
(380,1,o),
(382,4,c),
(496,355,ls),
(497,358,o),
(496,360,o),
(493,360,cs),
(482,360,ls),
(475,360,o),
(473,360,o),
(470,351,cs),
(372,46,l),
(273,338,ls),
(269,351,o),
(264,360,o),
(250,360,cs),
(248,360,ls),
(244,360,o),
(242,357,o),
(242,353,c),
(144,46,l)
);
}
);
width = 523;
}
);
note = w;
unicode = 119;
},
{
glyphname = x;
layers = (
{
layerId = m01;
shapes = (
{
closed = 1;
nodes = (
(265,8,l),
(268,2,o),
(271,0,o),
(277,0,cs),
(295,0,ls),
(296,0,o),
(297,2,o),
(296,4,cs),
(171,192,l),
(281,355,ls),
(283,358,o),
(283,360,o),
(280,360,cs),
(266,360,ls),
(258,360,o),
(257,358,o),
(252,352,c),
(155,209,l),
(65,345,ls),
(58,356,o),
(51,360,o),
(39,360,cs),
(32,360,ls),
(29,360,o),
(28,358,o),
(30,355,cs),
(138,191,l),
(16,5,ls),
(14,2,o),
(15,0,o),
(17,0,cs),
(32,0,ls),
(39,0,o),
(41,2,o),
(45,8,cs),
(155,173,l)
);
}
);
width = 314;
}
);
note = x;
unicode = 120;
},
{
glyphname = y;
kernLeft = y;
kernRight = y;
layers = (
{
layerId = m01;
shapes = (
{
closed = 1;
nodes = (
(102,-112,o),
(87,-148,o),
(48,-148,cs),
(33,-148,o),
(15,-138,o),
(7,-123,cs),
(4,-117,o),
(1,-116,o),
(-1,-116,cs),
(-5,-116,o),
(-7,-120,o),
(-7,-125,cs),
(-7,-141,o),
(12,-170,o),
(51,-170,cs),
(107,-170,o),
(126,-116,o),
(162,-11,cs),
(287,355,ls),
(288,358,o),
(287,360,o),
(284,360,cs),
(271,360,ls),
(265,360,o),
(262,359,o),
(260,351,cs),
(153,35,l),
(53,338,ls),
(49,351,o),
(41,360,o),
(27,360,cs),
(23,360,ls),
(19,360,o),
(18,358,o),
(19,355,cs),
(141,-2,l)
);
}
);
width = 308;
}
);
note = y;
unicode = 121;
},
{
glyphname = z;
kernLeft = z;
kernRight = z;
layers = (
{
layerId = m01;
shapes = (
{
closed = 1;
nodes = (
(272,308,ls),
(283,323,o),
(288,330,o),
(288,338,cs),
(288,356,o),
(280,360,o),
(262,360,cs),
(53,360,ls),
(51,360,o),
(50,359,o),
(50,357,cs),
(50,340,ls),
(50,338,o),
(51,337,o),
(53,337,cs),
(262,337,l),
(45,37,ls),
(41,31,o),
(39,27,o),
(39,21,cs),
(39,3,ls),
(39,1,o),
(40,0,o),
(42,0,cs),
(290,0,ls),
(292,0,o),
(293,1,o),
(293,3,cs),
(293,20,ls),
(293,22,o),
(292,23,o),
(290,23,cs),
(66,23,l)
);
}
);
width = 334;
}
);
note = z;
unicode = 122;
},
{
glyphname = braceleft;
layers = (
{
layerId = m01;
shapes = (
{
closed = 1;
nodes = (
(259,-144,o),
(260,-144,o),
(260,-143,cs),
(260,-142,ls),
(260,-130,o),
(248,-121,o),
(233,-121,cs),
(166,-121,ls),
(147,-121,o),
(138,-108,o),
(138,-91,cs),
(138,237,ls),
(138,268,o),
(119,275,o),
(118,276,c),
(119,277,o),
(138,284,o),
(138,316,cs),
(138,643,ls),
(138,659,o),
(147,673,o),
(166,673,cs),
(233,673,ls),
(248,673,o),
(260,682,o),
(260,693,cs),
(260,694,ls),
(260,696,o),
(259,696,o),
(258,696,cs),
(163,696,ls),
(133,696,o),
(111,674,o),
(111,645,cs),
(111,317,ls),
(111,287,o),
(83,288,o),
(74,288,cs),
(70,288,o),
(67,286,o),
(67,282,cs),
(67,270,ls),
(67,266,o),
(70,264,o),
(74,264,cs),
(83,264,o),
(111,265,o),
(111,236,cs),
(111,-93,ls),
(111,-123,o),
(133,-144,o),
(163,-144,cs),
(258,-144,ls)
);
}
);
width = 315;
}
);
note = braceleft;
unicode = 123;
},
{
glyphname = bar;
layers = (
{
layerId = m01;
shapes = (
{
closed = 1;
nodes = (
(78,-148,o),
(79,-149,o),
(81,-149,cs),
(101,-149,ls),
(102,-149,o),
(104,-148,o),
(104,-146,cs),
(104,537,ls),
(104,558,o),
(92,564,o),
(82,564,cs),
(81,564,ls),
(79,564,o),
(78,563,o),
(78,562,cs),
(78,-146,ls)
);
}
);
width = 181;
}
);
note = bar;
unicode = 124;
},
{
glyphname = braceright;
layers = (
{
layerId = m01;
shapes = (
{
closed = 1;
nodes = (
(183,-144,o),
(204,-123,o),
(204,-93,cs),
(204,236,ls),
(204,265,o),
(233,264,o),
(242,264,cs),
(246,264,o),
(249,266,o),
(249,270,cs),
(249,282,ls),
(249,286,o),
(246,288,o),
(242,288,cs),
(233,288,o),
(204,287,o),
(204,317,cs),
(204,645,ls),
(204,674,o),
(183,696,o),
(153,696,cs),
(58,696,ls),
(57,696,o),
(56,696,o),
(56,694,cs),
(56,693,ls),
(56,682,o),
(68,673,o),
(83,673,cs),
(150,673,ls),
(169,673,o),
(178,659,o),
(178,643,cs),
(178,316,ls),
(178,284,o),
(197,277,o),
(198,276,c),
(197,275,o),
(178,268,o),
(178,237,cs),
(178,-91,ls),
(178,-108,o),
(169,-121,o),
(150,-121,cs),
(83,-121,ls),
(68,-121,o),
(56,-130,o),
(56,-142,cs),
(56,-143,ls),
(56,-144,o),
(57,-144,o),
(58,-144,cs),
(153,-144,ls)
);
}
);
width = 315;
}
);
note = braceright;
unicode = 125;
},
{
glyphname = asciitilde;
layers = (
{
layerId = m01;
shapes = (
{
closed = 1;
nodes = (
(288,266,o),
(275,259,o),
(243,259,cs),
(203,259,o),
(172,283,o),
(128,283,cs),
(101,283,o),
(81,276,o),
(60,259,c),
(56,257,o),
(54,252,o),
(54,246,cs),
(54,233,ls),
(54,227,o),
(58,228,o),
(60,231,c),
(83,254,o),
(97,259,o),
(128,259,cs),
(169,259,o),
(200,236,o),
(243,236,cs),
(276,236,o),
(290,242,o),
(312,257,cs),
(316,259,o),
(318,263,o),
(318,271,cs),
(318,283,ls),
(318,287,o),
(314,287,o),
(312,285,cs)
);
}
);
width = 372;
}
);
note = asciitilde;
unicode = 126;
},
{
glyphname = exclamdown;
layers = (
{
layerId = m01;
shapes = (
{
closed = 1;
nodes = (
(30,318,o),
(44,304,o),
(61,304,cs),
(78,304,o),
(92,318,o),
(92,335,cs),
(92,352,o),
(78,367,o),
(61,367,cs),
(44,367,o),
(30,352,o),
(30,335,cs)
);
},
{
closed = 1;
nodes = (
(47,-206,o),
(48,-207,o),
(49,-207,cs),
(72,-207,ls),
(73,-207,o),
(74,-206,o),
(74,-204,cs),
(73,200,ls),
(73,221,o),
(62,228,o),
(52,228,cs),
(49,228,o),
(49,227,o),
(49,224,cs),
(47,-204,ls)
);
}
);
width = 126;
}
);
note = exclamdown;
unicode = 161;
},
{
glyphname = cent;
layers = (
{
layerId = m01;
shapes = (
{
closed = 1;
nodes = (
(298,-5,o),
(329,54,o),
(329,81,cs),
(329,86,o),
(328,91,o),
(323,91,cs),
(319,91,o),
(317,87,o),
(314,82,c),
(296,41,o),
(263,15,o),
(214,13,c),
(214,345,l),
(252,344,o),
(277,336,o),
(304,318,cs),
(307,316,o),
(310,314,o),
(314,314,cs),
(317,314,o),
(318,316,o),
(319,319,cs),
(320,323,ls),
(322,330,o),
(319,338,o),
(300,347,cs),
(272,359,o),
(249,366,o),
(214,367,c),
(214,419,ls),
(214,421,o),
(214,422,o),
(212,422,cs),
(194,422,ls),
(192,422,o),
(191,421,o),
(191,419,cs),
(191,366,l),
(103,357,o),
(45,286,o),
(45,178,cs),
(45,68,o),
(99,-2,o),
(191,-9,c),
(191,-62,ls),
(191,-63,o),
(192,-64,o),
(194,-64,cs),
(212,-64,ls),
(214,-64,o),
(214,-63,o),
(214,-62,cs),
(214,-9,l)
);
},
{
closed = 1;
nodes = (
(116,21,o),
(71,82,o),
(71,178,cs),
(71,276,o),
(116,335,o),
(191,344,c),
(191,14,l)
);
}
);
width = 355;
}
);
note = cent;
unicode = 162;
},
{
glyphname = sterling;
layers = (
{
layerId = m01;
shapes = (
{
closed = 1;
nodes = (
(166,48,o),
(202,122,o),
(202,190,cs),
(202,221,o),
(192,247,o),
(179,272,c),
(353,272,ls),
(358,272,o),
(360,274,o),
(360,278,cs),
(360,281,ls),
(360,291,o),
(355,295,o),
(346,295,cs),
(167,295,l),
(145,333,o),
(121,369,o),
(121,417,cs),
(121,494,o),
(177,544,o),
(262,544,cs),
(311,544,o),
(350,531,o),
(393,503,cs),
(396,501,o),
(399,498,o),
(403,498,cs),
(406,498,o),
(407,501,o),
(407,504,c),
(409,508,l),
(411,516,o),
(409,522,o),
(389,533,cs),
(349,554,o),
(314,567,o),
(261,567,cs),
(160,567,o),
(96,507,o),
(96,417,cs),
(96,368,o),
(117,331,o),
(139,295,c),
(61,295,ls),
(59,295,o),
(58,294,o),
(58,292,cs),
(58,276,ls),
(58,273,o),
(59,272,o),
(61,272,cs),
(151,272,l),
(165,247,o),
(176,221,o),
(176,190,cs),
(176,128,o),
(146,59,o),
(130,23,c),
(61,23,ls),
(59,23,o),
(58,22,o),
(58,20,cs),
(58,3,ls),
(58,1,o),
(59,0,o),
(61,0,cs),
(409,0,ls),
(414,0,o),
(416,2,o),
(416,6,cs),
(416,9,ls),
(416,19,o),
(411,23,o),
(402,23,cs),
(156,23,l)
);
}
);
width = 466;
}
);
note = sterling;
unicode = 163;
},
{
glyphname = yen;
layers = (
{
layerId = m01;
shapes = (
{
closed = 1;
nodes = (
(196,3,ls),
(196,1,o),
(197,0,o),
(199,0,cs),
(219,0,ls),
(221,0,o),
(222,1,o),
(222,3,cs),
(222,146,l),
(372,146,ls),
(374,146,o),
(375,147,o),
(375,149,cs),
(375,166,ls),
(375,168,o),
(374,169,o),
(372,169,cs),
(222,169,l),
(222,223,l),
(243,261,l),
(372,261,ls),
(374,261,o),
(375,262,o),
(375,264,cs),
(375,281,ls),
(375,283,o),
(374,284,o),
(372,284,cs),
(257,284,l),
(407,552,l),
(407,553,o),
(407,556,o),
(403,556,cs),
(391,556,ls),
(384,556,o),
(381,553,o),
(377,547,cs),
(209,247,l),
(53,533,ls),
(43,551,o),
(36,556,o),
(22,556,cs),
(18,556,ls),
(15,556,o),
(14,553,o),
(15,552,c),
(162,284,l),
(46,284,ls),
(44,284,o),
(43,283,o),
(43,281,cs),
(43,264,ls),
(43,262,o),
(44,261,o),
(46,261,cs),
(175,261,l),
(196,223,l),
(196,169,l),
(46,169,ls),
(44,169,o),
(43,168,o),
(43,166,cs),
(43,149,ls),
(43,147,o),
(44,146,o),
(46,146,cs),
(196,146,l)
);
}
);
width = 421;
}
);
note = yen;
unicode = 165;
},
{
glyphname = brokenbar;
layers = (
{
layerId = m01;
shapes = (
{
closed = 1;
nodes = (
(78,271,o),
(79,271,o),
(81,271,cs),
(101,271,ls),
(102,271,o),
(104,271,o),
(104,273,cs),
(104,537,ls),
(104,558,o),
(92,564,o),
(82,564,cs),
(81,564,ls),
(79,564,o),
(78,563,o),
(78,562,cs),
(78,273,ls)
);
},
{
closed = 1;
nodes = (
(78,-148,o),
(79,-149,o),
(81,-149,cs),
(101,-149,ls),
(102,-149,o),
(104,-148,o),
(104,-146,cs),
(104,142,ls),
(104,144,o),
(102,145,o),
(101,145,cs),
(81,145,ls),
(79,145,o),
(78,144,o),
(78,142,cs),
(78,-146,ls)
);
}
);
width = 181;
}
);
note = brokenbar;
unicode = 166;
},
{
glyphname = section;
layers = (
{
layerId = m01;
shapes = (
{
closed = 1;
nodes = (
(266,140,o),
(331,190,o),
(331,258,cs),
(331,381,o),
(125,391,o),
(125,483,cs),
(125,522,o),
(158,544,o),
(210,544,cs),
(247,544,o),
(269,537,o),
(295,520,cs),
(298,518,o),
(300,515,o),
(304,515,cs),
(308,515,o),
(309,518,o),
(309,521,cs),
(310,525,ls),
(313,532,o),
(309,541,o),
(290,549,c),
(266,562,o),
(245,567,o),
(210,567,cs),
(144,567,o),
(99,533,o),
(99,482,cs),
(99,440,o),
(126,417,o),
(161,393,c),
(118,373,o),
(67,335,o),
(67,262,cs),
(67,123,o),
(289,114,o),
(289,6,cs),
(289,-43,o),
(249,-74,o),
(188,-74,cs),
(138,-74,o),
(105,-53,o),
(84,-11,cs),
(81,-5,o),
(79,-2,o),
(75,-2,cs),
(70,-2,o),
(68,-8,o),
(68,-14,cs),
(68,-41,o),
(106,-97,o),
(189,-97,cs),
(266,-97,o),
(314,-49,o),
(314,8,cs),
(314,57,o),
(274,89,o),
(228,117,c)
);
},
{
closed = 1;
nodes = (
(125,176,o),
(93,202,o),
(93,263,cs),
(93,324,o),
(128,358,o),
(180,381,c),
(227,355,o),
(305,319,o),
(305,257,cs),
(305,198,o),
(248,150,o),
(207,129,c)
);
}
);
width = 398;
}
);
note = section;
unicode = 167;
},
{
glyphname = dieresis;
layers = (
{
layerId = m01;
shapes = (
{
closed = 1;
nodes = (
(0,434,o),
(8,426,o),
(19,426,cs),
(30,426,o),
(38,434,o),
(38,445,cs),
(38,456,o),
(30,464,o),
(19,464,cs),
(8,464,o),
(0,456,o),
(0,445,cs)
);
},
{
closed = 1;
nodes = (
(91,434,o),
(98,426,o),
(109,426,cs),
(121,426,o),
(128,434,o),
(128,445,cs),
(128,456,o),
(121,464,o),
(109,464,cs),
(98,464,o),
(91,456,o),
(91,445,cs)
);
}
);
width = 128;
}
);
note = dieresis;
unicode = 168;
},
{
glyphname = copyright;
layers = (
{
layerId = m01;
shapes = (
{
closed = 1;
nodes = (
(37,206,o),
(125,117,o),
(260,117,cs),
(394,117,o),
(483,206,o),
(483,340,cs),
(483,474,o),
(394,563,o),
(260,563,cs),
(125,563,o),
(37,474,o),
(37,340,cs)
);
},
{
closed = 1;
nodes = (
(138,136,o),
(58,216,o),
(58,340,cs),
(58,462,o),
(138,544,o),
(260,544,cs),
(383,544,o),
(463,462,o),
(463,340,cs),
(463,216,o),
(383,136,o),
(260,136,cs)
);
},
{
closed = 1;
nodes = (
(315,219,o),
(339,253,o),
(339,268,cs),
(339,271,o),
(338,276,o),
(334,276,cs),
(332,276,o),
(331,276,o),
(329,272,cs),
(318,252,o),
(298,238,o),
(261,238,cs),
(210,238,o),
(179,276,o),
(179,340,cs),
(179,404,o),
(210,441,o),
(264,441,cs),
(285,441,o),
(301,437,o),
(321,422,c),
(324,421,o),
(326,418,o),
(328,418,cs),
(330,418,o),
(331,421,o),
(332,424,cs),
(333,429,ls),
(334,434,o),
(333,439,o),
(324,444,cs),
(309,454,o),
(290,461,o),
(264,461,cs),
(201,461,o),
(158,414,o),
(158,340,cs),
(158,264,o),
(200,219,o),
(261,219,cs)
);
}
);
width = 520;
}
);
note = copyright;
unicode = 169;
},
{
glyphname = ordfeminine;
layers = (
{
layerId = m01;
shapes = (
{
closed = 1;
nodes = (
(245,522,o),
(208,553,o),
(151,553,cs),
(75,553,o),
(22,492,o),
(22,403,cs),
(22,314,o),
(74,254,o),
(153,254,cs),
(206,254,o),
(243,282,o),
(258,319,c),
(258,264,ls),
(258,262,o),
(259,261,o),
(261,261,cs),
(278,261,ls),
(279,261,o),
(280,262,o),
(280,264,cs),
(280,546,ls),
(280,547,o),
(279,548,o),
(278,548,cs),
(275,548,ls),
(266,548,o),
(258,543,o),
(258,526,cs),
(258,490,l)
);
},
{
closed = 1;
nodes = (
(87,274,o),
(44,325,o),
(44,403,cs),
(44,484,o),
(86,534,o),
(151,534,cs),
(220,534,o),
(258,488,o),
(258,403,cs),
(258,320,o),
(220,274,o),
(153,274,cs)
);
}
);
width = 309;
}
);
note = ordfeminine;
unicode = 170;
},
{
glyphname = guillemotleft;
layers = (
{
layerId = m01;
shapes = (
{
closed = 1;
nodes = (
(164,323,ls),
(166,326,o),
(166,328,o),
(163,328,cs),
(149,328,ls),
(141,328,o),
(139,326,o),
(135,320,cs),
(40,198,ls),
(36,193,o),
(33,189,o),
(33,184,cs),
(33,179,o),
(36,175,o),
(40,170,cs),
(135,48,ls),
(139,42,o),
(141,40,o),
(149,40,cs),
(163,40,ls),
(166,40,o),
(166,42,o),
(164,45,cs),
(55,184,l)
);
},
{
closed = 1;
nodes = (
(269,323,ls),
(271,326,o),
(271,328,o),
(267,328,cs),
(252,328,ls),
(246,328,o),
(244,326,o),
(240,320,cs),
(144,198,ls),
(140,193,o),
(137,189,o),
(137,184,cs),
(137,179,o),
(140,175,o),
(144,170,cs),
(240,48,ls),
(244,42,o),
(246,40,o),
(252,40,cs),
(267,40,ls),
(271,40,o),
(271,42,o),
(269,45,cs),
(159,184,l)
);
}
);
width = 300;
}
);
note = guillemotleft;
unicode = 171;
},
{
glyphname = uni00AD;
layers = (
{
layerId = m01;
shapes = (
{
closed = 1;
nodes = (
(46,193,o),
(47,192,o),
(49,192,cs),
(253,192,ls),
(255,192,o),
(256,193,o),
(256,195,cs),
(256,212,ls),
(256,214,o),
(255,214,o),
(253,214,cs),
(49,214,ls),
(47,214,o),
(46,214,o),
(46,212,cs),
(46,195,ls)
);
}
);
width = 301;
}
);
note = uni00AD;
unicode = 173;
},
{
glyphname = registered;
layers = (
{
layerId = m01;
shapes = (
{
closed = 1;
nodes = (
(37,206,o),
(125,117,o),
(260,117,cs),
(394,117,o),
(483,206,o),
(483,340,cs),
(483,474,o),
(394,563,o),
(260,563,cs),
(125,563,o),
(37,474,o),
(37,340,cs)
);
},
{
closed = 1;
nodes = (
(138,136,o),
(58,216,o),
(58,340,cs),
(58,462,o),
(138,544,o),
(260,544,cs),
(383,544,o),
(463,462,o),
(463,340,cs),
(463,216,o),
(383,136,o),
(260,136,cs)
);
},
{
closed = 1;
nodes = (
(274,315,l),
(323,229,ls),
(325,226,o),
(326,224,o),
(331,224,cs),
(346,224,ls),
(348,224,o),
(349,227,o),
(348,228,c),
(296,318,l),
(323,327,o),
(346,349,o),
(346,387,cs),
(346,431,o),
(318,458,o),
(269,458,cs),
(190,458,ls),
(188,458,o),
(188,457,o),
(188,456,cs),
(188,228,ls),
(188,226,o),
(188,224,o),
(190,224,cs),
(207,224,ls),
(209,224,o),
(209,226,o),
(209,228,cs),
(209,315,l)
);
},
{
closed = 1;
nodes = (
(209,439,l),
(273,439,ls),
(304,439,o),
(325,421,o),
(325,388,cs),
(325,355,o),
(309,335,o),
(270,335,cs),
(209,335,l)
);
}
);
width = 520;
}
);
note = registered;
unicode = 174;
},
{
glyphname = macron;
layers = (
{
layerId = m01;
shapes = (
{
closed = 1;
nodes = (
(0,431,o),
(1,431,o),
(3,431,cs),
(173,431,ls),
(175,431,o),
(176,431,o),
(176,433,cs),
(176,450,ls),
(176,452,o),
(175,453,o),
(173,453,cs),
(3,453,ls),
(1,453,o),
(0,452,o),
(0,450,cs),
(0,433,ls)
);
}
);
width = 176;
}
);
note = macron;
unicode = 175;
},
{
glyphname = degree;
layers = (
{
layerId = m01;
shapes = (
{
closed = 1;
nodes = (
(196,371,o),
(236,413,o),
(236,475,cs),
(236,536,o),
(195,579,o),
(132,579,cs),
(70,579,o),
(29,536,o),
(29,475,cs),
(29,413,o),
(68,371,o),
(132,371,cs)
);
},
{
closed = 1;
nodes = (
(83,392,o),
(53,424,o),
(53,475,cs),
(53,525,o),
(82,558,o),
(132,558,cs),
(183,558,o),
(212,525,o),
(212,475,cs),
(212,424,o),
(181,392,o),
(132,392,cs)
);
}
);
width = 264;
}
);
note = degree;
unicode = 176;
},
{
glyphname = plusminus;
layers = (
{
layerId = m01;
shapes = (
{
closed = 1;
nodes = (
(184,106,ls),
(184,104,o),
(185,103,o),
(187,103,cs),
(204,103,ls),
(206,103,o),
(207,104,o),
(207,106,cs),
(207,262,l),
(339,262,ls),
(342,262,o),
(342,263,o),
(342,266,cs),
(342,282,ls),
(342,284,o),
(342,285,o),
(339,285,cs),
(207,285,l),
(207,416,ls),
(207,431,o),
(204,443,o),
(187,443,cs),
(185,443,o),
(184,442,o),
(184,440,cs),
(184,285,l),
(49,285,ls),
(47,285,o),
(46,284,o),
(46,282,cs),
(46,266,ls),
(46,263,o),
(47,262,o),
(49,262,cs),
(184,262,l)
);
},
{
closed = 1;
nodes = (
(340,0,o),
(342,2,o),
(342,6,cs),
(342,9,ls),
(342,19,o),
(337,23,o),
(328,23,cs),
(49,23,ls),
(47,23,o),
(46,22,o),
(46,20,cs),
(46,3,ls),
(46,1,o),
(47,0,o),
(49,0,cs),
(335,0,ls)
);
}
);
width = 388;
}
);
note = plusminus;
unicode = 177;
},
{
glyphname = twosuperior;
layers = (
{
layerId = m01;
shapes = (
{
closed = 1;
nodes = (
(65,357,o),
(230,369,o),
(230,472,cs),
(230,528,o),
(195,562,o),
(135,562,cs),
(104,562,o),
(77,553,o),
(57,542,cs),
(43,534,o),
(41,529,o),
(43,520,cs),
(44,516,ls),
(45,513,o),
(46,512,o),
(48,512,cs),
(51,512,o),
(53,514,o),
(56,516,cs),
(80,534,o),
(106,542,o),
(132,542,cs),
(180,542,o),
(207,517,o),
(207,472,cs),
(207,372,o),
(38,377,o),
(38,242,cs),
(38,239,o),
(39,238,o),
(41,238,cs),
(227,238,ls),
(230,238,o),
(231,239,o),
(231,242,cs),
(231,247,ls),
(231,257,o),
(226,258,o),
(214,258,cs),
(62,258,l)
);
}
);
width = 268;
}
);
note = twosuperior;
unicode = 178;
},
{
glyphname = threesuperior;
layers = (
{
layerId = m01;
shapes = (
{
closed = 1;
nodes = (
(216,421,o),
(231,447,o),
(231,480,cs),
(231,529,o),
(196,562,o),
(135,562,cs),
(106,562,o),
(78,552,o),
(58,539,c),
(44,532,o),
(42,528,o),
(46,521,cs),
(49,516,ls),
(50,514,o),
(51,512,o),
(53,512,cs),
(55,512,o),
(57,513,o),
(60,515,cs),
(85,532,o),
(107,542,o),
(135,542,cs),
(183,542,o),
(210,520,o),
(210,478,cs),
(210,438,o),
(182,417,o),
(140,417,cs),
(89,417,ls),
(86,417,o),
(85,417,o),
(85,413,cs),
(85,409,ls),
(85,399,o),
(90,398,o),
(102,398,cs),
(132,398,ls),
(185,398,o),
(217,371,o),
(217,325,cs),
(217,278,o),
(182,253,o),
(137,253,cs),
(98,253,o),
(68,271,o),
(53,301,cs),
(51,305,o),
(50,307,o),
(47,307,cs),
(43,307,o),
(41,301,o),
(41,296,cs),
(41,273,o),
(72,233,o),
(139,233,cs),
(199,233,o),
(240,273,o),
(240,327,cs),
(240,369,o),
(215,397,o),
(177,407,c)
);
}
);
width = 280;
}
);
note = threesuperior;
unicode = 179;
},
{
glyphname = acute;
layers = (
{
layerId = m01;
shapes = (
{
closed = 1;
nodes = (
(110,498,o),
(109,502,o),
(105,502,cs),
(83,502,ls),
(72,502,o),
(68,499,o),
(62,493,cs),
(4,436,ls),
(1,433,o),
(3,431,o),
(7,431,cs),
(16,431,ls),
(27,431,o),
(30,431,o),
(41,440,cs),
(108,496,ls)
);
}
);
width = 107;
}
);
note = acute;
unicode = 180;
},
{
glyphname = paragraph;
layers = (
{
layerId = m01;
shapes = (
{
closed = 1;
nodes = (
(309,533,l),
(309,3,ls),
(309,1,o),
(310,0,o),
(312,0,cs),
(332,0,ls),
(334,0,o),
(335,1,o),
(335,3,cs),
(335,520,ls),
(335,548,o),
(328,556,o),
(303,556,cs),
(231,556,ls),
(96,556,o),
(45,479,o),
(45,382,cs),
(45,287,o),
(117,221,o),
(211,221,c),
(211,3,ls),
(211,1,o),
(212,0,o),
(214,0,cs),
(233,0,ls),
(236,0,o),
(237,1,o),
(237,3,cs),
(237,533,l)
);
}
);
width = 413;
}
);
note = paragraph;
unicode = 182;
},
{
glyphname = periodcentered;
layers = (
{
layerId = m01;
shapes = (
{
closed = 1;
nodes = (
(50,262,o),
(64,248,o),
(81,248,cs),
(98,248,o),
(112,262,o),
(112,279,cs),
(112,296,o),
(98,311,o),
(81,311,cs),
(64,311,o),
(50,296,o),
(50,279,cs)
);
}
);
width = 162;
}
);
note = periodcentered;
unicode = 183;
},
{
glyphname = cedilla;
layers = (
{
layerId = m01;
shapes = (
{
closed = 1;
nodes = (
(34,-88,o),
(40,-87,o),
(44,-79,cs),
(83,-1,l),
(86,3,o),
(84,5,o),
(81,5,cs),
(72,5,ls),
(61,5,o),
(58,3,o),
(50,-9,cs),
(2,-82,ls),
(0,-86,o),
(1,-88,o),
(5,-88,cs),
(23,-88,ls)
);
}
);
width = 83;
}
);
note = cedilla;
unicode = 184;
},
{
glyphname = onesuperior;
layers = (
{
layerId = m01;
shapes = (
{
closed = 1;
nodes = (
(97,242,ls),
(97,239,o),
(98,238,o),
(100,238,cs),
(117,238,ls),
(119,238,o),
(120,239,o),
(120,242,cs),
(120,537,ls),
(120,548,o),
(117,556,o),
(106,556,cs),
(99,556,ls),
(90,556,o),
(87,556,o),
(76,551,cs),
(35,533,ls),
(32,532,o),
(31,529,o),
(31,527,cs),
(31,512,ls),
(31,510,o),
(32,509,o),
(34,510,cs),
(97,538,l)
);
}
);
width = 182;
}
);
note = onesuperior;
unicode = 185;
},
{
glyphname = ordmasculine;
layers = (
{
layerId = m01;
shapes = (
{
closed = 1;
nodes = (
(233,254,o),
(289,315,o),
(289,404,cs),
(289,494,o),
(233,553,o),
(153,553,cs),
(77,553,o),
(22,494,o),
(22,403,cs),
(22,314,o),
(76,254,o),
(154,254,cs)
);
},
{
closed = 1;
nodes = (
(88,274,o),
(44,323,o),
(44,404,cs),
(44,485,o),
(88,534,o),
(153,534,cs),
(221,534,o),
(266,484,o),
(266,403,cs),
(266,324,o),
(221,274,o),
(153,274,cs)
);
}
);
width = 310;
}
);
note = ordmasculine;
unicode = 186;
},
{
glyphname = guillemotright;
layers = (
{
layerId = m01;
shapes = (
{
closed = 1;
nodes = (
(33,45,ls),
(31,42,o),
(31,40,o),
(34,40,cs),
(49,40,ls),
(55,40,o),
(58,42,o),
(62,48,cs),
(157,170,ls),
(161,175,o),
(164,179,o),
(164,184,cs),
(164,189,o),
(161,193,o),
(157,198,cs),
(62,320,ls),
(58,326,o),
(55,328,o),
(49,328,cs),
(34,328,ls),
(31,328,o),
(31,326,o),
(33,323,cs),
(142,184,l)
);
},
{
closed = 1;
nodes = (
(137,45,ls),
(135,42,o),
(135,40,o),
(138,40,cs),
(153,40,ls),
(160,40,o),
(162,42,o),
(166,48,cs),
(262,170,l),
(265,175,o),
(268,179,o),
(268,184,cs),
(268,189,o),
(265,193,o),
(262,198,c),
(166,320,ls),
(162,326,o),
(160,328,o),
(153,328,cs),
(138,328,ls),
(135,328,o),
(135,326,o),
(137,323,cs),
(247,184,l)
);
}
);
width = 300;
}
);
note = guillemotright;
unicode = 187;
},
{
glyphname = onequarter;
layers = (
{
layerId = m01;
shapes = (
{
closed = 1;
nodes = (
(97,242,ls),
(97,239,o),
(98,238,o),
(100,238,cs),
(117,238,ls),
(119,238,o),
(120,239,o),
(120,242,cs),
(120,537,ls),
(120,548,o),
(117,556,o),
(106,556,cs),
(99,556,ls),
(90,556,o),
(87,556,o),
(76,551,cs),
(35,533,ls),
(32,532,o),
(31,529,o),
(31,527,cs),
(31,512,ls),
(31,510,o),
(32,509,o),
(34,510,cs),
(97,538,l)
);
},
{
closed = 1;
nodes = (
(114,0,o),
(114,1,o),
(118,8,cs),
(405,525,ls),
(415,543,o),
(412,556,o),
(401,556,cs),
(397,556,o),
(395,553,o),
(393,549,cs),
(89,4,ls),
(88,2,o),
(89,0,o),
(91,0,cs),
(105,0,ls)
);
},
{
closed = 1;
nodes = (
(424,3,ls),
(424,1,o),
(425,0,o),
(427,0,cs),
(444,0,ls),
(445,0,o),
(447,1,o),
(447,3,cs),
(447,83,l),
(488,83,ls),
(490,83,o),
(492,84,o),
(492,87,cs),
(492,92,ls),
(492,101,o),
(487,103,o),
(474,103,cs),
(447,103,l),
(447,298,ls),
(447,310,o),
(444,317,o),
(433,317,cs),
(426,317,ls),
(417,317,o),
(413,315,o),
(406,305,cs),
(277,116,l),
(272,107,o),
(272,104,o),
(272,97,cs),
(272,87,ls),
(272,84,o),
(273,83,o),
(275,83,cs),
(424,83,l)
);
},
{
closed = 1;
nodes = (
(424,296,l),
(424,103,l),
(292,103,l)
);
}
);
width = 529;
}
);
note = onequarter;
unicode = 188;
},
{
glyphname = onehalf;
layers = (
{
layerId = m01;
shapes = (
{
closed = 1;
nodes = (
(97,242,ls),
(97,239,o),
(98,238,o),
(100,238,cs),
(117,238,ls),
(119,238,o),
(120,239,o),
(120,242,cs),
(120,537,ls),
(120,548,o),
(117,556,o),
(106,556,cs),
(99,556,ls),
(90,556,o),
(87,556,o),
(76,551,cs),
(35,533,ls),
(32,532,o),
(31,529,o),
(31,527,cs),
(31,512,ls),
(31,510,o),
(32,509,o),
(34,510,cs),
(97,538,l)
);
},
{
closed = 1;
nodes = (
(114,0,o),
(114,1,o),
(118,8,cs),
(405,525,ls),
(415,543,o),
(412,556,o),
(401,556,cs),
(397,556,o),
(395,553,o),
(393,549,cs),
(89,4,ls),
(88,2,o),
(89,0,o),
(91,0,cs),
(105,0,ls)
);
},
{
closed = 1;
nodes = (
(377,118,o),
(542,130,o),
(542,233,cs),
(542,289,o),
(507,323,o),
(447,323,cs),
(416,323,o),
(389,314,o),
(369,303,cs),
(355,295,o),
(353,290,o),
(355,281,cs),
(356,277,ls),
(357,274,o),
(358,273,o),
(360,273,cs),
(363,273,o),
(365,276,o),
(368,277,c),
(392,295,o),
(419,303,o),
(445,303,cs),
(493,303,o),
(519,278,o),
(519,233,cs),
(519,133,o),
(350,138,o),
(350,3,cs),
(350,1,o),
(351,0,o),
(353,0,cs),
(539,0,ls),
(542,0,o),
(543,1,o),
(543,4,cs),
(543,8,ls),
(543,18,o),
(538,20,o),
(526,20,cs),
(374,20,l)
);
}
);
width = 612;
}
);
note = onehalf;
unicode = 189;
},
{
glyphname = threequarters;
layers = (
{
layerId = m01;
shapes = (
{
closed = 1;
nodes = (
(216,421,o),
(231,447,o),
(231,480,cs),
(231,529,o),
(196,562,o),
(135,562,cs),
(106,562,o),
(78,552,o),
(58,539,c),
(44,532,o),
(42,528,o),
(46,521,cs),
(49,516,ls),
(50,514,o),
(51,512,o),
(53,512,cs),
(55,512,o),
(57,513,o),
(60,515,cs),
(85,532,o),
(107,542,o),
(135,542,cs),
(183,542,o),
(210,520,o),
(210,478,cs),
(210,438,o),
(182,417,o),
(140,417,cs),
(89,417,ls),
(86,417,o),
(85,417,o),
(85,413,cs),
(85,409,ls),
(85,399,o),
(90,398,o),
(102,398,cs),
(132,398,ls),
(185,398,o),
(217,371,o),
(217,325,cs),
(217,278,o),
(182,253,o),
(137,253,cs),
(98,253,o),
(68,271,o),
(53,301,cs),
(51,305,o),
(50,307,o),
(47,307,cs),
(43,307,o),
(41,301,o),
(41,296,cs),
(41,273,o),
(72,233,o),
(139,233,cs),
(199,233,o),
(240,273,o),
(240,327,cs),
(240,369,o),
(215,397,o),
(177,407,c)
);
},
{
closed = 1;
nodes = (
(189,0,o),
(189,1,o),
(193,8,cs),
(480,525,ls),
(490,543,o),
(488,556,o),
(477,556,cs),
(473,556,o),
(470,553,o),
(469,549,c),
(164,4,ls),
(163,2,o),
(164,0,o),
(167,0,cs),
(180,0,ls)
);
},
{
closed = 1;
nodes = (
(499,3,ls),
(499,1,o),
(500,0,o),
(502,0,cs),
(519,0,ls),
(521,0,o),
(522,1,o),
(522,3,cs),
(522,83,l),
(563,83,ls),
(566,83,o),
(567,84,o),
(567,87,cs),
(567,92,ls),
(567,101,o),
(562,103,o),
(550,103,cs),
(522,103,l),
(522,298,ls),
(522,310,o),
(519,317,o),
(508,317,cs),
(502,317,ls),
(493,317,o),
(488,315,o),
(482,305,cs),
(352,116,l),
(347,107,o),
(347,104,o),
(347,97,cs),
(347,87,ls),
(347,84,o),
(348,83,o),
(350,83,cs),
(499,83,l)
);
},
{
closed = 1;
nodes = (
(499,296,l),
(499,103,l),
(367,103,l)
);
}
);
width = 605;
}
);
note = threequarters;
unicode = 190;
},
{
glyphname = questiondown;
layers = (
{
layerId = m01;
shapes = (
{
closed = 1;
nodes = (
(198,304,o),
(212,319,o),
(212,336,cs),
(212,353,o),
(198,367,o),
(181,367,cs),
(164,367,o),
(150,353,o),
(150,336,cs),
(150,319,o),
(164,304,o),
(181,304,cs)
);
},
{
closed = 1;
nodes = (
(13,-164,o),
(79,-218,o),
(176,-218,cs),
(247,-218,o),
(292,-197,o),
(329,-170,cs),
(332,-168,o),
(333,-165,o),
(331,-161,cs),
(326,-152,ls),
(324,-149,o),
(323,-148,o),
(321,-148,cs),
(318,-148,o),
(315,-151,o),
(312,-153,cs),
(266,-185,o),
(232,-195,o),
(178,-195,cs),
(92,-195,o),
(39,-149,o),
(39,-71,cs),
(39,54,o),
(194,74,o),
(194,159,cs),
(194,200,ls),
(194,221,o),
(182,228,o),
(172,228,cs),
(171,228,ls),
(169,228,o),
(168,227,o),
(168,224,cs),
(168,165,ls),
(168,140,o),
(162,128,o),
(144,112,cs),
(85,59,o),
(13,17,o),
(13,-71,cs)
);
}
);
width = 309;
}
);
note = questiondown;
unicode = 191;
},
{
glyphname = Agrave;
kernLeft = A;
kernRight = A;
layers = (
{
layerId = m01;
shapes = (
{
closed = 1;
nodes = (
(251,620,o),
(254,619,o),
(265,619,cs),
(274,619,ls),
(278,619,o),
(280,622,o),
(277,625,cs),
(219,682,ls),
(212,688,o),
(209,691,o),
(198,691,cs),
(175,691,ls),
(171,691,o),
(170,687,o),
(173,685,cs),
(240,629,ls)
);
},
{
closed = 1;
nodes = (
(361,182,l),
(429,8,l),
(433,1,o),
(433,0,o),
(440,0,cs),
(457,0,ls),
(459,0,o),
(460,2,o),
(459,4,cs),
(245,542,ls),
(241,552,o),
(235,556,o),
(225,556,cs),
(223,556,ls),
(221,556,o),
(220,554,o),
(219,552,cs),
(13,4,ls),
(12,2,o),
(13,0,o),
(15,0,cs),
(29,0,ls),
(38,0,o),
(39,1,o),
(42,8,cs),
(106,182,l)
);
},
{
closed = 1;
nodes = (
(230,513,l),
(352,205,l),
(115,205,l)
);
}
);
width = 472;
}
);
note = Agrave;
unicode = 192;
},
{
glyphname = Aacute;
kernLeft = A;
kernRight = A;
layers = (
{
layerId = m01;
shapes = (
{
closed = 1;
nodes = (
(290,687,o),
(289,691,o),
(285,691,cs),
(263,691,ls),
(251,691,o),
(248,688,o),
(241,682,cs),
(184,625,ls),
(181,622,o),
(183,619,o),
(187,619,cs),
(196,619,ls),
(207,619,o),
(210,620,o),
(221,629,cs),
(288,685,ls)
);
},
{
closed = 1;
nodes = (
(361,182,l),
(429,8,l),
(433,1,o),
(433,0,o),
(440,0,cs),
(457,0,ls),
(459,0,o),
(460,2,o),
(459,4,cs),
(245,542,ls),
(241,552,o),
(235,556,o),
(225,556,cs),
(223,556,ls),
(221,556,o),
(220,554,o),
(219,552,cs),
(13,4,ls),
(12,2,o),
(13,0,o),
(15,0,cs),
(29,0,ls),
(38,0,o),
(39,1,o),
(42,8,cs),
(106,182,l)
);
},
{
closed = 1;
nodes = (
(230,513,l),
(352,205,l),
(115,205,l)
);
}
);
width = 472;
}
);
note = Aacute;
unicode = 193;
},
{
glyphname = Acircumflex;
kernLeft = A;
kernRight = A;
layers = (
{
layerId = m01;
shapes = (
{
closed = 1;
nodes = (
(281,629,ls),
(291,620,o),
(295,619,o),
(306,619,cs),
(314,619,ls),
(318,619,o),
(320,622,o),
(318,625,c),
(260,682,ls),
(254,688,o),
(250,691,o),
(239,691,cs),
(222,691,ls),
(211,691,o),
(207,688,o),
(201,682,cs),
(144,625,l),
(140,622,o),
(143,619,o),
(146,619,cs),
(154,619,ls),
(165,619,o),
(168,620,o),
(179,629,cs),
(231,675,l)
);
},
{
closed = 1;
nodes = (
(361,182,l),
(429,8,l),
(433,1,o),
(433,0,o),
(440,0,cs),
(457,0,ls),
(459,0,o),
(460,2,o),
(459,4,cs),
(245,542,ls),
(241,552,o),
(235,556,o),
(225,556,cs),
(223,556,ls),
(221,556,o),
(220,554,o),
(219,552,cs),
(13,4,ls),
(12,2,o),
(13,0,o),
(15,0,cs),
(29,0,ls),
(38,0,o),
(39,1,o),
(42,8,cs),
(106,182,l)
);
},
{
closed = 1;
nodes = (
(230,513,l),
(352,205,l),
(115,205,l)
);
}
);
width = 472;
}
);
note = Acircumflex;
unicode = 194;
},
{
glyphname = Atilde;
kernLeft = A;
kernRight = A;
layers = (
{
layerId = m01;
shapes = (
{
closed = 1;
nodes = (
(166,616,o),
(168,618,o),
(169,624,cs),
(171,636,o),
(176,641,o),
(184,641,cs),
(205,641,o),
(240,614,o),
(268,614,cs),
(294,614,o),
(309,627,o),
(314,656,cs),
(315,661,o),
(314,662,o),
(310,662,cs),
(295,662,ls),
(290,662,o),
(289,660,o),
(288,654,cs),
(285,642,o),
(280,637,o),
(268,637,cs),
(247,637,o),
(208,664,o),
(184,664,cs),
(160,664,o),
(144,648,o),
(143,621,cs),
(143,617,o),
(144,616,o),
(146,616,cs),
(163,616,ls)
);
},
{
closed = 1;
nodes = (
(361,182,l),
(429,8,l),
(433,1,o),
(433,0,o),
(440,0,cs),
(457,0,ls),
(459,0,o),
(460,2,o),
(459,4,cs),
(245,542,ls),
(241,552,o),
(235,556,o),
(225,556,cs),
(223,556,ls),
(221,556,o),
(220,554,o),
(219,552,cs),
(13,4,ls),
(12,2,o),
(13,0,o),
(15,0,cs),
(29,0,ls),
(38,0,o),
(39,1,o),
(42,8,cs),
(106,182,l)
);
},
{
closed = 1;
nodes = (
(230,513,l),
(352,205,l),
(115,205,l)
);
}
);
width = 472;
}
);
note = Atilde;
unicode = 195;
},
{
glyphname = Adieresis;
kernLeft = A;
kernRight = A;
layers = (
{
layerId = m01;
shapes = (
{
closed = 1;
nodes = (
(164,623,o),
(173,615,o),
(183,615,cs),
(194,615,o),
(202,623,o),
(202,634,cs),
(202,645,o),
(194,653,o),
(183,653,cs),
(173,653,o),
(164,645,o),
(164,634,cs)
);
},
{
closed = 1;
nodes = (
(255,623,o),
(263,615,o),
(274,615,cs),
(285,615,o),
(293,623,o),
(293,634,cs),
(293,645,o),
(285,653,o),
(274,653,cs),
(263,653,o),
(255,645,o),
(255,634,cs)
);
},
{
closed = 1;
nodes = (
(361,182,l),
(429,8,l),
(433,1,o),
(433,0,o),
(440,0,cs),
(457,0,ls),
(459,0,o),
(460,2,o),
(459,4,cs),
(245,542,ls),
(241,552,o),
(235,556,o),
(225,556,cs),
(223,556,ls),
(221,556,o),
(220,554,o),
(219,552,cs),
(13,4,ls),
(12,2,o),
(13,0,o),
(15,0,cs),
(29,0,ls),
(38,0,o),
(39,1,o),
(42,8,cs),
(106,182,l)
);
},
{
closed = 1;
nodes = (
(230,513,l),
(352,205,l),
(115,205,l)
);
}
);
width = 472;
}
);
note = Adieresis;
unicode = 196;
},
{
glyphname = Aring;
kernLeft = A;
kernRight = A;
layers = (
{
layerId = m01;
shapes = (
{
closed = 1;
nodes = (
(172,623,o),
(198,598,o),
(226,598,cs),
(255,598,o),
(281,623,o),
(281,652,cs),
(281,682,o),
(256,708,o),
(226,708,cs),
(196,708,o),
(172,682,o),
(172,652,cs)
);
},
{
closed = 1;
nodes = (
(206,617,o),
(193,632,o),
(193,652,cs),
(193,673,o),
(206,688,o),
(226,688,cs),
(246,688,o),
(260,673,o),
(260,652,cs),
(260,632,o),
(246,617,o),
(226,617,cs)
);
},
{
closed = 1;
nodes = (
(361,182,l),
(429,8,l),
(433,1,o),
(433,0,o),
(440,0,cs),
(457,0,ls),
(459,0,o),
(460,2,o),
(459,4,cs),
(245,542,ls),
(241,552,o),
(235,556,o),
(225,556,cs),
(223,556,ls),
(221,556,o),
(220,554,o),
(219,552,cs),
(13,4,ls),
(12,2,o),
(13,0,o),
(15,0,cs),
(29,0,ls),
(38,0,o),
(39,1,o),
(42,8,cs),
(106,182,l)
);
},
{
closed = 1;
nodes = (
(230,513,l),
(352,205,l),
(115,205,l)
);
}
);
width = 472;
}
);
note = Aring;
unicode = 197;
},
{
glyphname = AE;
kernRight = E;
layers = (
{
layerId = m01;
shapes = (
{
closed = 1;
nodes = (
(322,182,l),
(322,3,ls),
(322,1,o),
(323,0,o),
(325,0,cs),
(604,0,ls),
(609,0,o),
(611,2,o),
(611,6,cs),
(611,9,ls),
(611,19,o),
(606,23,o),
(597,23,cs),
(348,23,l),
(348,262,l),
(574,262,ls),
(579,262,o),
(581,264,o),
(581,268,cs),
(581,271,ls),
(581,281,o),
(576,285,o),
(567,285,cs),
(348,285,l),
(348,533,l),
(594,533,ls),
(599,533,o),
(601,534,o),
(601,539,cs),
(601,542,ls),
(601,552,o),
(596,556,o),
(587,556,cs),
(312,556,ls),
(309,556,o),
(307,554,o),
(305,552,c),
(3,4,ls),
(2,2,o),
(3,0,o),
(5,0,cs),
(19,0,ls),
(28,0,o),
(28,1,o),
(31,8,c),
(128,182,l)
);
},
{
closed = 1;
nodes = (
(322,533,l),
(322,205,l),
(141,205,l)
);
}
);
width = 648;
}
);
note = AE;
unicode = 198;
},
{
glyphname = Ccedilla;
kernLeft = C;
kernRight = C;
layers = (
{
layerId = m01;
shapes = (
{
closed = 1;
nodes = (
(435,-4,o),
(479,79,o),
(479,106,cs),
(479,113,o),
(476,118,o),
(470,118,cs),
(466,118,o),
(464,116,o),
(461,109,cs),
(437,53,o),
(384,12,o),
(303,12,cs),
(171,12,o),
(89,114,o),
(89,277,cs),
(89,441,o),
(171,544,o),
(305,544,cs),
(359,544,o),
(402,529,o),
(452,493,cs),
(455,491,o),
(458,488,o),
(462,488,cs),
(465,488,o),
(466,490,o),
(468,495,cs),
(469,498,ls),
(473,509,o),
(469,514,o),
(448,527,cs),
(411,548,o),
(369,567,o),
(307,567,cs),
(157,567,o),
(63,456,o),
(63,278,cs),
(63,103,o),
(151,-4,o),
(287,-11,c),
(240,-82,ls),
(238,-86,o),
(239,-88,o),
(243,-88,cs),
(261,-88,ls),
(272,-88,o),
(278,-87,o),
(282,-79,cs),
(317,-11,l)
);
}
);
width = 505;
}
);
note = Ccedilla;
unicode = 199;
},
{
glyphname = Egrave;
kernRight = E;
layers = (
{
layerId = m01;
shapes = (
{
closed = 1;
nodes = (
(230,620,o),
(233,619,o),
(244,619,cs),
(253,619,ls),
(257,619,o),
(259,622,o),
(256,625,cs),
(199,682,l),
(191,688,o),
(189,691,o),
(178,691,cs),
(155,691,ls),
(151,691,o),
(150,687,o),
(152,685,cs),
(219,629,ls)
);
},
{
closed = 1;
nodes = (
(108,262,l),
(335,262,ls),
(340,262,o),
(341,264,o),
(341,268,cs),
(341,271,ls),
(341,281,o),
(336,285,o),
(328,285,cs),
(108,285,l),
(108,533,l),
(355,533,ls),
(360,533,o),
(361,534,o),
(361,539,cs),
(361,542,ls),
(361,552,o),
(356,556,o),
(348,556,cs),
(85,556,ls),
(83,556,o),
(82,554,o),
(82,553,cs),
(82,3,ls),
(82,1,o),
(83,0,o),
(85,0,cs),
(365,0,ls),
(369,0,o),
(371,2,o),
(371,6,cs),
(371,9,ls),
(371,19,o),
(366,23,o),
(358,23,cs),
(108,23,l)
);
}
);
width = 408;
}
);
note = Egrave;
unicode = 200;
},
{
glyphname = Eacute;
kernRight = E;
layers = (
{
layerId = m01;
shapes = (
{
closed = 1;
nodes = (
(288,687,o),
(287,691,o),
(283,691,cs),
(260,691,ls),
(249,691,o),
(245,688,o),
(239,682,cs),
(182,625,ls),
(179,622,o),
(181,619,o),
(185,619,cs),
(194,619,ls),
(205,619,o),
(208,620,o),
(219,629,cs),
(286,685,ls)
);
},
{
closed = 1;
nodes = (
(108,262,l),
(335,262,ls),
(340,262,o),
(341,264,o),
(341,268,cs),
(341,271,ls),
(341,281,o),
(336,285,o),
(328,285,cs),
(108,285,l),
(108,533,l),
(355,533,ls),
(360,533,o),
(361,534,o),
(361,539,cs),
(361,542,ls),
(361,552,o),
(356,556,o),
(348,556,cs),
(85,556,ls),
(83,556,o),
(82,554,o),
(82,553,cs),
(82,3,ls),
(82,1,o),
(83,0,o),
(85,0,cs),
(365,0,ls),
(369,0,o),
(371,2,o),
(371,6,cs),
(371,9,ls),
(371,19,o),
(366,23,o),
(358,23,cs),
(108,23,l)
);
}
);
width = 408;
}
);
note = Eacute;
unicode = 201;
},
{
glyphname = Ecircumflex;
kernRight = E;
layers = (
{
layerId = m01;
shapes = (
{
closed = 1;
nodes = (
(275,629,ls),
(285,620,o),
(289,619,o),
(300,619,cs),
(308,619,ls),
(311,619,o),
(314,622,o),
(311,625,cs),
(253,682,ls),
(247,688,o),
(243,691,o),
(232,691,cs),
(215,691,ls),
(204,691,o),
(200,688,o),
(194,682,cs),
(137,625,ls),
(134,622,o),
(136,619,o),
(140,619,cs),
(148,619,ls),
(159,619,o),
(161,620,o),
(173,629,c),
(224,675,l)
);
},
{
closed = 1;
nodes = (
(108,262,l),
(335,262,ls),
(340,262,o),
(341,264,o),
(341,268,cs),
(341,271,ls),
(341,281,o),
(336,285,o),
(328,285,cs),
(108,285,l),
(108,533,l),
(355,533,ls),
(360,533,o),
(361,534,o),
(361,539,cs),
(361,542,ls),
(361,552,o),
(356,556,o),
(348,556,cs),
(85,556,ls),
(83,556,o),
(82,554,o),
(82,553,cs),
(82,3,ls),
(82,1,o),
(83,0,o),
(85,0,cs),
(365,0,ls),
(369,0,o),
(371,2,o),
(371,6,cs),
(371,9,ls),
(371,19,o),
(366,23,o),
(358,23,cs),
(108,23,l)
);
}
);
width = 408;
}
);
note = Ecircumflex;
unicode = 202;
},
{
glyphname = Edieresis;
kernRight = E;
layers = (
{
layerId = m01;
shapes = (
{
closed = 1;
nodes = (
(153,623,o),
(161,615,o),
(171,615,cs),
(183,615,o),
(190,623,o),
(190,634,cs),
(190,645,o),
(183,653,o),
(171,653,cs),
(161,653,o),
(153,645,o),
(153,634,cs)
);
},
{
closed = 1;
nodes = (
(243,623,o),
(251,615,o),
(262,615,cs),
(273,615,o),
(281,623,o),
(281,634,cs),
(281,645,o),
(273,653,o),
(262,653,cs),
(251,653,o),
(243,645,o),
(243,634,cs)
);
},
{
closed = 1;
nodes = (
(108,262,l),
(335,262,ls),
(340,262,o),
(341,264,o),
(341,268,cs),
(341,271,ls),
(341,281,o),
(336,285,o),
(328,285,cs),
(108,285,l),
(108,533,l),
(355,533,ls),
(360,533,o),
(361,534,o),
(361,539,cs),
(361,542,ls),
(361,552,o),
(356,556,o),
(348,556,cs),
(85,556,ls),
(83,556,o),
(82,554,o),
(82,553,cs),
(82,3,ls),
(82,1,o),
(83,0,o),
(85,0,cs),
(365,0,ls),
(369,0,o),
(371,2,o),
(371,6,cs),
(371,9,ls),
(371,19,o),
(366,23,o),
(358,23,cs),
(108,23,l)
);
}
);
width = 408;
}
);
note = Edieresis;
unicode = 203;
},
{
glyphname = Igrave;
kernRight = I;
layers = (
{
layerId = m01;
shapes = (
{
closed = 1;
nodes = (
(115,620,o),
(117,619,o),
(128,619,cs),
(137,619,ls),
(141,619,o),
(143,622,o),
(141,625,c),
(83,682,ls),
(76,688,o),
(73,691,o),
(62,691,cs),
(39,691,ls),
(35,691,o),
(34,687,o),
(36,685,cs),
(103,629,ls)
);
},
{
closed = 1;
nodes = (
(83,1,o),
(85,0,o),
(87,0,cs),
(107,0,ls),
(108,0,o),
(110,1,o),
(110,3,cs),
(110,528,ls),
(110,548,o),
(98,556,o),
(88,556,cs),
(87,556,ls),
(85,556,o),
(83,554,o),
(83,553,cs),
(83,3,ls)
);
}
);
width = 191;
}
);
note = Igrave;
unicode = 204;
},
{
glyphname = Iacute;
kernRight = I;
layers = (
{
layerId = m01;
shapes = (
{
closed = 1;
nodes = (
(141,687,o),
(140,691,o),
(136,691,cs),
(114,691,ls),
(103,691,o),
(99,688,o),
(93,682,cs),
(35,625,ls),
(32,622,o),
(34,619,o),
(38,619,cs),
(47,619,ls),
(58,619,o),
(61,620,o),
(72,629,cs),
(139,685,ls)
);
},
{
closed = 1;
nodes = (
(84,1,o),
(85,0,o),
(87,0,cs),
(107,0,ls),
(109,0,o),
(110,1,o),
(110,3,cs),
(110,528,ls),
(110,548,o),
(99,556,o),
(89,556,cs),
(87,556,ls),
(85,556,o),
(84,554,o),
(84,553,cs),
(84,3,ls)
);
}
);
width = 191;
}
);
note = Iacute;
unicode = 205;
},
{
glyphname = Icircumflex;
kernRight = I;
layers = (
{
layerId = m01;
shapes = (
{
closed = 1;
nodes = (
(147,629,ls),
(157,620,o),
(161,619,o),
(172,619,cs),
(180,619,ls),
(184,619,o),
(186,622,o),
(183,625,cs),
(125,682,ls),
(119,688,o),
(115,691,o),
(104,691,cs),
(88,691,ls),
(77,691,o),
(73,688,o),
(67,682,cs),
(9,625,ls),
(6,622,o),
(8,619,o),
(12,619,cs),
(20,619,ls),
(31,619,o),
(34,620,o),
(45,629,cs),
(97,675,l)
);
},
{
closed = 1;
nodes = (
(84,1,o),
(85,0,o),
(88,0,cs),
(108,0,ls),
(109,0,o),
(110,1,o),
(110,3,cs),
(110,528,ls),
(110,548,o),
(99,556,o),
(89,556,cs),
(88,556,ls),
(85,556,o),
(84,554,o),
(84,553,cs),
(84,3,ls)
);
}
);
width = 191;
}
);
note = Icircumflex;
unicode = 206;
},
{
glyphname = Idieresis;
kernRight = I;
layers = (
{
layerId = m01;
shapes = (
{
closed = 1;
nodes = (
(30,623,o),
(38,615,o),
(49,615,cs),
(60,615,o),
(68,623,o),
(68,634,cs),
(68,645,o),
(60,653,o),
(49,653,cs),
(38,653,o),
(30,645,o),
(30,634,cs)
);
},
{
closed = 1;
nodes = (
(121,623,o),
(128,615,o),
(139,615,cs),
(151,615,o),
(158,623,o),
(158,634,cs),
(158,645,o),
(151,653,o),
(139,653,cs),
(128,653,o),
(121,645,o),
(121,634,cs)
);
},
{
closed = 1;
nodes = (
(82,1,o),
(83,0,o),
(86,0,cs),
(106,0,ls),
(107,0,o),
(108,1,o),
(108,3,cs),
(108,528,ls),
(108,548,o),
(97,556,o),
(87,556,cs),
(86,556,ls),
(83,556,o),
(82,554,o),
(82,553,cs),
(82,3,ls)
);
}
);
width = 191;
}
);
note = Idieresis;
unicode = 207;
},
{
glyphname = Eth;
layers = (
{
layerId = m01;
shapes = (
{
closed = 1;
nodes = (
(73,3,ls),
(73,1,o),
(75,0,o),
(77,0,cs),
(214,0,ls),
(387,0,o),
(474,96,o),
(474,286,cs),
(474,464,o),
(387,556,o),
(216,556,cs),
(77,556,ls),
(75,556,o),
(73,554,o),
(73,553,cs),
(73,289,l),
(27,289,ls),
(25,289,o),
(24,288,o),
(24,286,cs),
(24,269,ls),
(24,267,o),
(25,266,o),
(27,266,cs),
(73,266,l)
);
},
{
closed = 1;
nodes = (
(100,266,l),
(299,266,ls),
(304,266,o),
(306,268,o),
(306,272,cs),
(306,276,ls),
(306,285,o),
(301,289,o),
(292,289,cs),
(100,289,l),
(100,533,l),
(216,533,ls),
(374,533,o),
(448,453,o),
(448,284,cs),
(448,107,o),
(369,23,o),
(215,23,cs),
(100,23,l)
);
}
);
width = 538;
}
);
note = Eth;
unicode = 208;
},
{
glyphname = Ntilde;
kernRight = N;
layers = (
{
layerId = m01;
shapes = (
{
closed = 1;
nodes = (
(195,616,o),
(197,618,o),
(198,624,cs),
(200,636,o),
(205,641,o),
(213,641,cs),
(234,641,o),
(269,614,o),
(296,614,cs),
(323,614,o),
(338,627,o),
(343,656,cs),
(344,661,o),
(343,662,o),
(339,662,cs),
(324,662,ls),
(319,662,o),
(318,660,o),
(316,654,c),
(314,642,o),
(309,637,o),
(296,637,cs),
(276,637,o),
(237,664,o),
(213,664,cs),
(189,664,o),
(173,648,o),
(171,621,cs),
(171,617,o),
(173,616,o),
(175,616,cs),
(191,616,ls)
);
},
{
closed = 1;
nodes = (
(111,534,ls),
(100,552,o),
(95,556,o),
(86,556,cs),
(85,556,ls),
(83,556,o),
(82,554,o),
(82,553,cs),
(82,3,ls),
(82,1,o),
(83,0,o),
(85,0,cs),
(105,0,ls),
(107,0,o),
(108,1,o),
(108,3,cs),
(108,491,l),
(403,10,ls),
(408,2,o),
(410,0,o),
(420,0,cs),
(428,0,ls),
(433,0,o),
(434,3,o),
(434,7,cs),
(434,528,ls),
(434,548,o),
(423,556,o),
(413,556,cs),
(411,556,ls),
(409,556,o),
(408,554,o),
(408,553,cs),
(408,49,l)
);
}
);
width = 517;
}
);
note = Ntilde;
unicode = 209;
},
{
glyphname = Ograve;
kernLeft = O;
kernRight = O;
layers = (
{
layerId = m01;
shapes = (
{
closed = 1;
nodes = (
(319,620,o),
(321,619,o),
(332,619,cs),
(341,619,ls),
(345,619,o),
(347,622,o),
(345,625,c),
(287,682,ls),
(280,688,o),
(277,691,o),
(266,691,cs),
(243,691,ls),
(239,691,o),
(238,687,o),
(240,685,cs),
(307,629,ls)
);
},
{
closed = 1;
nodes = (
(447,-10,o),
(522,101,o),
(522,277,cs),
(522,453,o),
(445,567,o),
(293,567,cs),
(142,567,o),
(63,453,o),
(63,277,cs),
(63,101,o),
(140,-10,o),
(293,-10,cs)
);
},
{
closed = 1;
nodes = (
(176,13,o),
(89,91,o),
(89,277,cs),
(89,462,o),
(176,544,o),
(293,544,cs),
(409,544,o),
(496,462,o),
(496,277,cs),
(496,91,o),
(409,13,o),
(293,13,cs)
);
}
);
width = 586;
}
);
note = Ograve;
unicode = 210;
},
{
glyphname = Oacute;
kernLeft = O;
kernRight = O;
layers = (
{
layerId = m01;
shapes = (
{
closed = 1;
nodes = (
(347,687,o),
(346,691,o),
(342,691,cs),
(320,691,ls),
(309,691,o),
(305,688,o),
(299,682,cs),
(241,625,ls),
(238,622,o),
(240,619,o),
(244,619,cs),
(253,619,ls),
(264,619,o),
(267,620,o),
(278,629,cs),
(345,685,ls)
);
},
{
closed = 1;
nodes = (
(447,-10,o),
(522,101,o),
(522,277,cs),
(522,453,o),
(445,567,o),
(293,567,cs),
(142,567,o),
(63,453,o),
(63,277,cs),
(63,101,o),
(140,-10,o),
(293,-10,cs)
);
},
{
closed = 1;
nodes = (
(176,13,o),
(89,91,o),
(89,277,cs),
(89,462,o),
(176,544,o),
(293,544,cs),
(409,544,o),
(496,462,o),
(496,277,cs),
(496,91,o),
(409,13,o),
(293,13,cs)
);
}
);
width = 586;
}
);
note = Oacute;
unicode = 211;
},
{
glyphname = Ocircumflex;
kernLeft = O;
kernRight = O;
layers = (
{
layerId = m01;
shapes = (
{
closed = 1;
nodes = (
(345,629,ls),
(355,620,o),
(359,619,o),
(370,619,cs),
(377,619,ls),
(381,619,o),
(384,622,o),
(381,625,cs),
(323,682,ls),
(317,688,o),
(313,691,o),
(302,691,cs),
(285,691,ls),
(274,691,o),
(270,688,o),
(264,682,cs),
(207,625,ls),
(204,622,o),
(206,619,o),
(210,619,cs),
(217,619,ls),
(229,619,o),
(231,620,o),
(242,629,cs),
(294,675,l)
);
},
{
closed = 1;
nodes = (
(447,-10,o),
(522,101,o),
(522,277,cs),
(522,453,o),
(445,567,o),
(293,567,cs),
(142,567,o),
(63,453,o),
(63,277,cs),
(63,101,o),
(140,-10,o),
(293,-10,cs)
);
},
{
closed = 1;
nodes = (
(176,13,o),
(89,91,o),
(89,277,cs),
(89,462,o),
(176,544,o),
(293,544,cs),
(409,544,o),
(496,462,o),
(496,277,cs),
(496,91,o),
(409,13,o),
(293,13,cs)
);
}
);
width = 586;
}
);
note = Ocircumflex;
unicode = 212;
},
{
glyphname = Otilde;
kernLeft = O;
kernRight = O;
layers = (
{
layerId = m01;
shapes = (
{
closed = 1;
nodes = (
(230,616,o),
(232,618,o),
(233,624,cs),
(235,636,o),
(240,641,o),
(248,641,cs),
(269,641,o),
(304,614,o),
(331,614,cs),
(357,614,o),
(373,627,o),
(378,656,cs),
(379,661,o),
(378,662,o),
(374,662,cs),
(359,662,ls),
(354,662,o),
(352,660,o),
(351,654,cs),
(349,642,o),
(344,637,o),
(331,637,cs),
(311,637,o),
(272,664,o),
(248,664,cs),
(224,664,o),
(208,648,o),
(206,621,cs),
(206,617,o),
(207,616,o),
(210,616,cs),
(226,616,ls)
);
},
{
closed = 1;
nodes = (
(447,-10,o),
(522,101,o),
(522,277,cs),
(522,453,o),
(445,567,o),
(293,567,cs),
(142,567,o),
(63,453,o),
(63,277,cs),
(63,101,o),
(140,-10,o),
(293,-10,cs)
);
},
{
closed = 1;
nodes = (
(176,13,o),
(89,91,o),
(89,277,cs),
(89,462,o),
(176,544,o),
(293,544,cs),
(409,544,o),
(496,462,o),
(496,277,cs),
(496,91,o),
(409,13,o),
(293,13,cs)
);
}
);
width = 586;
}
);
note = Otilde;
unicode = 213;
},
{
glyphname = Odieresis;
kernLeft = O;
kernRight = O;
layers = (
{
layerId = m01;
shapes = (
{
closed = 1;
nodes = (
(229,623,o),
(237,615,o),
(248,615,cs),
(259,615,o),
(267,623,o),
(267,634,cs),
(267,645,o),
(259,653,o),
(248,653,cs),
(237,653,o),
(229,645,o),
(229,634,cs)
);
},
{
closed = 1;
nodes = (
(320,623,o),
(327,615,o),
(339,615,cs),
(350,615,o),
(357,623,o),
(357,634,cs),
(357,645,o),
(350,653,o),
(339,653,cs),
(327,653,o),
(320,645,o),
(320,634,cs)
);
},
{
closed = 1;
nodes = (
(447,-10,o),
(522,101,o),
(522,277,cs),
(522,453,o),
(445,567,o),
(293,567,cs),
(142,567,o),
(63,453,o),
(63,277,cs),
(63,101,o),
(140,-10,o),
(293,-10,cs)
);
},
{
closed = 1;
nodes = (
(176,13,o),
(89,91,o),
(89,277,cs),
(89,462,o),
(176,544,o),
(293,544,cs),
(409,544,o),
(496,462,o),
(496,277,cs),
(496,91,o),
(409,13,o),
(293,13,cs)
);
}
);
width = 586;
}
);
note = Odieresis;
unicode = 214;
},
{
glyphname = multiply;
layers = (
{
layerId = m01;
shapes = (
{
closed = 1;
nodes = (
(312,142,ls),
(314,140,o),
(314,140,o),
(317,142,c),
(328,154,l),
(328,155,o),
(329,156,o),
(328,158,c),
(210,276,l),
(324,389,ls),
(327,392,o),
(326,393,o),
(324,393,c),
(314,406,l),
(312,407,o),
(311,407,o),
(309,406,c),
(194,291,l),
(96,389,ls),
(84,402,o),
(74,408,o),
(62,397,c),
(60,394,o),
(60,393,o),
(62,392,c),
(178,276,l),
(62,159,ls),
(60,157,o),
(60,156,o),
(62,154,cs),
(74,143,ls),
(75,142,o),
(76,141,o),
(78,143,cs),
(194,259,l)
);
}
);
width = 388;
}
);
note = multiply;
unicode = 215;
},
{
glyphname = Oslash;
kernLeft = O;
kernRight = O;
layers = (
{
layerId = m01;
shapes = (
{
closed = 1;
nodes = (
(447,-10,o),
(522,101,o),
(522,277,cs),
(522,453,o),
(445,567,o),
(293,567,cs),
(142,567,o),
(63,453,o),
(63,277,cs),
(63,101,o),
(140,-10,o),
(293,-10,cs)
);
},
{
closed = 1;
nodes = (
(112,116,o),
(89,183,o),
(89,277,cs),
(89,462,o),
(176,544,o),
(293,544,cs),
(341,544,o),
(385,529,o),
(420,499,c),
(149,73,l)
);
},
{
closed = 1;
nodes = (
(474,438,o),
(496,372,o),
(496,277,cs),
(496,91,o),
(409,13,o),
(293,13,cs),
(244,13,o),
(200,27,o),
(166,57,c),
(436,482,l)
);
}
);
width = 586;
}
);
note = Oslash;
unicode = 216;
},
{
glyphname = Ugrave;
kernLeft = U;
kernRight = U;
layers = (
{
layerId = m01;
shapes = (
{
closed = 1;
nodes = (
(270,620,o),
(273,619,o),
(284,619,cs),
(293,619,ls),
(297,619,o),
(299,622,o),
(296,625,cs),
(239,682,l),
(231,688,o),
(229,691,o),
(217,691,cs),
(195,691,ls),
(191,691,o),
(190,687,o),
(192,685,cs),
(259,629,ls)
);
},
{
closed = 1;
nodes = (
(368,-10,o),
(431,63,o),
(431,197,cs),
(431,528,ls),
(431,548,o),
(420,556,o),
(410,556,cs),
(407,556,ls),
(406,556,o),
(405,554,o),
(405,553,cs),
(405,192,ls),
(405,76,o),
(352,13,o),
(255,13,cs),
(155,13,o),
(104,73,o),
(104,191,cs),
(104,528,ls),
(104,548,o),
(92,556,o),
(82,556,cs),
(81,556,ls),
(79,556,o),
(78,554,o),
(78,553,cs),
(78,194,ls),
(78,59,o),
(137,-10,o),
(254,-10,cs)
);
}
);
width = 508;
}
);
note = Ugrave;
unicode = 217;
},
{
glyphname = Uacute;
kernLeft = U;
kernRight = U;
layers = (
{
layerId = m01;
shapes = (
{
closed = 1;
nodes = (
(309,687,o),
(307,691,o),
(304,691,cs),
(281,691,ls),
(270,691,o),
(266,688,o),
(260,682,cs),
(202,625,ls),
(199,622,o),
(201,619,o),
(205,619,cs),
(214,619,ls),
(225,619,o),
(228,620,o),
(239,629,cs),
(306,685,ls)
);
},
{
closed = 1;
nodes = (
(368,-10,o),
(431,63,o),
(431,197,cs),
(431,528,ls),
(431,548,o),
(420,556,o),
(410,556,cs),
(407,556,ls),
(406,556,o),
(405,554,o),
(405,553,cs),
(405,192,ls),
(405,76,o),
(352,13,o),
(255,13,cs),
(155,13,o),
(104,73,o),
(104,191,cs),
(104,528,ls),
(104,548,o),
(92,556,o),
(82,556,cs),
(81,556,ls),
(79,556,o),
(78,554,o),
(78,553,cs),
(78,194,ls),
(78,59,o),
(137,-10,o),
(254,-10,cs)
);
}
);
width = 508;
}
);
note = Uacute;
unicode = 218;
},
{
glyphname = Ucircumflex;
kernLeft = U;
kernRight = U;
layers = (
{
layerId = m01;
shapes = (
{
closed = 1;
nodes = (
(305,629,ls),
(315,620,o),
(319,619,o),
(330,619,cs),
(338,619,ls),
(342,619,o),
(344,622,o),
(341,625,cs),
(284,682,ls),
(277,688,o),
(274,691,o),
(262,691,cs),
(246,691,ls),
(235,691,o),
(231,688,o),
(225,682,cs),
(167,625,ls),
(164,622,o),
(166,619,o),
(170,619,cs),
(178,619,ls),
(189,619,o),
(192,620,o),
(203,629,cs),
(255,675,l)
);
},
{
closed = 1;
nodes = (
(368,-10,o),
(431,63,o),
(431,197,cs),
(431,528,ls),
(431,548,o),
(420,556,o),
(410,556,cs),
(407,556,ls),
(406,556,o),
(405,554,o),
(405,553,cs),
(405,192,ls),
(405,76,o),
(352,13,o),
(255,13,cs),
(155,13,o),
(104,73,o),
(104,191,cs),
(104,528,ls),
(104,548,o),
(92,556,o),
(82,556,cs),
(81,556,ls),
(79,556,o),
(78,554,o),
(78,553,cs),
(78,194,ls),
(78,59,o),
(137,-10,o),
(254,-10,cs)
);
}
);
width = 508;
}
);
note = Ucircumflex;
unicode = 219;
},
{
glyphname = Udieresis;
kernLeft = U;
kernRight = U;
layers = (
{
layerId = m01;
shapes = (
{
closed = 1;
nodes = (
(186,623,o),
(195,615,o),
(205,615,cs),
(216,615,o),
(224,623,o),
(224,634,cs),
(224,645,o),
(216,653,o),
(205,653,cs),
(195,653,o),
(186,645,o),
(186,634,cs)
);
},
{
closed = 1;
nodes = (
(277,623,o),
(285,615,o),
(296,615,cs),
(307,615,o),
(315,623,o),
(315,634,cs),
(315,645,o),
(307,653,o),
(296,653,cs),
(285,653,o),
(277,645,o),
(277,634,cs)
);
},
{
closed = 1;
nodes = (
(368,-10,o),
(431,63,o),
(431,197,cs),
(431,528,ls),
(431,548,o),
(420,556,o),
(410,556,cs),
(407,556,ls),
(406,556,o),
(405,554,o),
(405,553,cs),
(405,192,ls),
(405,76,o),
(352,13,o),
(255,13,cs),
(155,13,o),
(104,73,o),
(104,191,cs),
(104,528,ls),
(104,548,o),
(92,556,o),
(82,556,cs),
(81,556,ls),
(79,556,o),
(78,554,o),
(78,553,cs),
(78,194,ls),
(78,59,o),
(137,-10,o),
(254,-10,cs)
);
}
);
width = 508;
}
);
note = Udieresis;
unicode = 220;
},
{
glyphname = Yacute;
kernLeft = Y;
kernRight = Y;
layers = (
{
layerId = m01;
shapes = (
{
closed = 1;
nodes = (
(266,687,o),
(265,691,o),
(261,691,cs),
(238,691,ls),
(227,691,o),
(223,688,o),
(217,682,cs),
(160,625,l),
(156,622,o),
(158,619,o),
(162,619,cs),
(171,619,ls),
(182,619,o),
(185,620,o),
(196,629,cs),
(263,685,ls)
);
},
{
closed = 1;
nodes = (
(196,3,ls),
(196,1,o),
(197,0,o),
(199,0,cs),
(219,0,ls),
(221,0,o),
(222,1,o),
(222,3,cs),
(222,223,l),
(407,552,l),
(408,553,o),
(407,556,o),
(403,556,cs),
(391,556,ls),
(384,556,o),
(381,553,o),
(377,547,cs),
(209,247,l),
(53,533,ls),
(43,551,o),
(36,556,o),
(22,556,cs),
(18,556,ls),
(15,556,o),
(14,553,o),
(15,552,c),
(196,223,l)
);
}
);
width = 421;
}
);
note = Yacute;
unicode = 221;
},
{
glyphname = Thorn;
layers = (
{
layerId = m01;
shapes = (
{
closed = 1;
nodes = (
(265,114,ls),
(371,114,o),
(433,175,o),
(433,281,cs),
(433,387,o),
(364,444,o),
(263,444,cs),
(108,444,l),
(108,528,ls),
(108,548,o),
(97,556,o),
(87,556,cs),
(85,556,ls),
(83,556,o),
(82,554,o),
(82,553,cs),
(82,3,ls),
(82,1,o),
(83,0,o),
(85,0,cs),
(105,0,ls),
(107,0,o),
(108,1,o),
(108,3,cs),
(108,114,l)
);
},
{
closed = 1;
nodes = (
(108,421,l),
(267,421,ls),
(353,421,o),
(407,369,o),
(407,281,cs),
(407,168,o),
(334,137,o),
(263,137,cs),
(108,137,l)
);
}
);
width = 475;
}
);
note = Thorn;
unicode = 222;
},
{
glyphname = germandbls;
layers = (
{
layerId = m01;
shapes = (
{
closed = 1;
nodes = (
(92,0,o),
(94,1,o),
(94,3,cs),
(94,416,ls),
(94,504,o),
(124,544,o),
(190,544,cs),
(246,544,o),
(280,512,o),
(280,458,cs),
(280,406,o),
(222,360,o),
(222,305,cs),
(222,234,o),
(347,205,o),
(347,116,cs),
(347,54,o),
(309,12,o),
(249,12,cs),
(202,12,o),
(170,31,o),
(149,78,c),
(146,83,o),
(144,87,o),
(140,87,cs),
(135,87,o),
(134,81,o),
(134,74,cs),
(134,48,o),
(166,-11,o),
(250,-11,cs),
(322,-11,o),
(373,46,o),
(373,116,cs),
(373,218,o),
(247,248,o),
(247,307,cs),
(247,357,o),
(305,402,o),
(305,460,cs),
(305,523,o),
(257,567,o),
(190,567,cs),
(105,567,o),
(68,510,o),
(68,418,cs),
(68,3,ls),
(68,1,o),
(69,0,o),
(71,0,cs),
(91,0,ls)
);
}
);
width = 409;
}
);
note = germandbls;
unicode = 223;
},
{
glyphname = agrave;
kernLeft = a;
layers = (
{
layerId = m01;
shapes = (
{
closed = 1;
nodes = (
(247,431,o),
(249,431,o),
(261,431,cs),
(269,431,ls),
(273,431,o),
(276,433,o),
(273,436,cs),
(215,493,ls),
(208,499,o),
(205,502,o),
(194,502,cs),
(171,502,ls),
(167,502,o),
(166,498,o),
(168,496,cs),
(236,440,ls)
);
},
{
closed = 1;
nodes = (
(331,325,o),
(283,367,o),
(213,367,cs),
(117,367,o),
(50,288,o),
(50,179,cs),
(50,68,o),
(117,-9,o),
(214,-9,cs),
(282,-9,o),
(329,27,o),
(348,74,c),
(348,3,ls),
(348,1,o),
(349,0,o),
(351,0,cs),
(371,0,ls),
(373,0,o),
(374,1,o),
(374,3,cs),
(374,357,ls),
(374,359,o),
(373,360,o),
(371,360,cs),
(369,360,ls),
(359,360,o),
(348,353,o),
(348,332,cs),
(348,284,l)
);
},
{
closed = 1;
nodes = (
(131,13,o),
(76,78,o),
(76,179,cs),
(76,280,o),
(129,345,o),
(213,345,cs),
(301,345,o),
(349,285,o),
(349,179,cs),
(349,73,o),
(301,13,o),
(214,13,cs)
);
}
);
width = 441;
}
);
note = agrave;
unicode = 224;
},
{
glyphname = aacute;
kernLeft = a;
layers = (
{
layerId = m01;
shapes = (
{
closed = 1;
nodes = (
(276,498,o),
(274,502,o),
(271,502,cs),
(248,502,ls),
(237,502,o),
(233,499,o),
(227,493,cs),
(169,436,ls),
(166,433,o),
(168,431,o),
(172,431,cs),
(181,431,ls),
(192,431,o),
(195,431,o),
(206,440,cs),
(273,496,ls)
);
},
{
closed = 1;
nodes = (
(331,325,o),
(283,367,o),
(213,367,cs),
(117,367,o),
(50,288,o),
(50,179,cs),
(50,68,o),
(117,-9,o),
(214,-9,cs),
(282,-9,o),
(329,27,o),
(348,74,c),
(348,3,ls),
(348,1,o),
(349,0,o),
(351,0,cs),
(371,0,ls),
(373,0,o),
(374,1,o),
(374,3,cs),
(374,357,ls),
(374,359,o),
(373,360,o),
(371,360,cs),
(369,360,ls),
(359,360,o),
(348,353,o),
(348,332,cs),
(348,284,l)
);
},
{
closed = 1;
nodes = (
(131,13,o),
(76,78,o),
(76,179,cs),
(76,280,o),
(129,345,o),
(213,345,cs),
(301,345,o),
(349,285,o),
(349,179,cs),
(349,73,o),
(301,13,o),
(214,13,cs)
);
}
);
width = 441;
}
);
note = aacute;
unicode = 225;
},
{
glyphname = acircumflex;
kernLeft = a;
layers = (
{
layerId = m01;
shapes = (
{
closed = 1;
nodes = (
(272,440,ls),
(282,431,o),
(286,431,o),
(297,431,cs),
(305,431,ls),
(309,431,o),
(311,433,o),
(308,436,cs),
(251,493,ls),
(244,499,o),
(241,502,o),
(229,502,cs),
(213,502,ls),
(202,502,o),
(198,499,o),
(192,493,cs),
(134,436,ls),
(131,433,o),
(133,431,o),
(137,431,cs),
(145,431,ls),
(156,431,o),
(159,431,o),
(170,440,cs),
(222,486,l)
);
},
{
closed = 1;
nodes = (
(331,325,o),
(283,367,o),
(213,367,cs),
(117,367,o),
(50,288,o),
(50,179,cs),
(50,68,o),
(117,-9,o),
(214,-9,cs),
(282,-9,o),
(329,27,o),
(348,74,c),
(348,3,ls),
(348,1,o),
(349,0,o),
(351,0,cs),
(371,0,ls),
(373,0,o),
(374,1,o),
(374,3,cs),
(374,357,ls),
(374,359,o),
(373,360,o),
(371,360,cs),
(369,360,ls),
(359,360,o),
(348,353,o),
(348,332,cs),
(348,284,l)
);
},
{
closed = 1;
nodes = (
(131,13,o),
(76,78,o),
(76,179,cs),
(76,280,o),
(129,345,o),
(213,345,cs),
(301,345,o),
(349,285,o),
(349,179,cs),
(349,73,o),
(301,13,o),
(214,13,cs)
);
}
);
width = 441;
}
);
note = acircumflex;
unicode = 226;
},
{
glyphname = atilde;
kernLeft = a;
layers = (
{
layerId = m01;
shapes = (
{
closed = 1;
nodes = (
(152,427,o),
(154,429,o),
(155,436,cs),
(157,447,o),
(162,452,o),
(170,452,cs),
(191,452,o),
(226,426,o),
(253,426,cs),
(279,426,o),
(295,438,o),
(300,467,cs),
(301,472,o),
(300,473,o),
(296,473,cs),
(281,473,ls),
(276,473,o),
(274,471,o),
(273,465,cs),
(271,453,o),
(266,448,o),
(253,448,cs),
(233,448,o),
(194,475,o),
(170,475,cs),
(146,475,o),
(130,459,o),
(128,432,cs),
(128,428,o),
(129,427,o),
(132,427,cs),
(148,427,ls)
);
},
{
closed = 1;
nodes = (
(331,325,o),
(283,367,o),
(213,367,cs),
(117,367,o),
(50,288,o),
(50,179,cs),
(50,68,o),
(117,-9,o),
(214,-9,cs),
(282,-9,o),
(329,27,o),
(348,74,c),
(348,3,ls),
(348,1,o),
(349,0,o),
(351,0,cs),
(371,0,ls),
(373,0,o),
(374,1,o),
(374,3,cs),
(374,357,ls),
(374,359,o),
(373,360,o),
(371,360,cs),
(369,360,ls),
(359,360,o),
(348,353,o),
(348,332,cs),
(348,284,l)
);
},
{
closed = 1;
nodes = (
(131,13,o),
(76,78,o),
(76,179,cs),
(76,280,o),
(129,345,o),
(213,345,cs),
(301,345,o),
(349,285,o),
(349,179,cs),
(349,73,o),
(301,13,o),
(214,13,cs)
);
}
);
width = 441;
}
);
note = atilde;
unicode = 227;
},
{
glyphname = adieresis;
kernLeft = a;
layers = (
{
layerId = m01;
shapes = (
{
closed = 1;
nodes = (
(150,434,o),
(158,426,o),
(169,426,cs),
(180,426,o),
(188,434,o),
(188,445,cs),
(188,456,o),
(180,464,o),
(169,464,cs),
(158,464,o),
(150,456,o),
(150,445,cs)
);
},
{
closed = 1;
nodes = (
(241,434,o),
(248,426,o),
(259,426,cs),
(271,426,o),
(278,434,o),
(278,445,cs),
(278,456,o),
(271,464,o),
(259,464,cs),
(248,464,o),
(241,456,o),
(241,445,cs)
);
},
{
closed = 1;
nodes = (
(331,325,o),
(283,367,o),
(213,367,cs),
(117,367,o),
(50,288,o),
(50,179,cs),
(50,68,o),
(117,-9,o),
(214,-9,cs),
(282,-9,o),
(329,27,o),
(348,74,c),
(348,3,ls),
(348,1,o),
(349,0,o),
(351,0,cs),
(371,0,ls),
(373,0,o),
(374,1,o),
(374,3,cs),
(374,357,ls),
(374,359,o),
(373,360,o),
(371,360,cs),
(369,360,ls),
(359,360,o),
(348,353,o),
(348,332,cs),
(348,284,l)
);
},
{
closed = 1;
nodes = (
(131,13,o),
(76,78,o),
(76,179,cs),
(76,280,o),
(129,345,o),
(213,345,cs),
(301,345,o),
(349,285,o),
(349,179,cs),
(349,73,o),
(301,13,o),
(214,13,cs)
);
}
);
width = 441;
}
);
note = adieresis;
unicode = 228;
},
{
glyphname = aring;
kernLeft = a;
layers = (
{
layerId = m01;
shapes = (
{
closed = 1;
nodes = (
(162,434,o),
(188,409,o),
(217,409,cs),
(246,409,o),
(272,434,o),
(272,463,cs),
(272,493,o),
(247,519,o),
(217,519,cs),
(187,519,o),
(162,493,o),
(162,463,cs)
);
},
{
closed = 1;
nodes = (
(197,428,o),
(183,443,o),
(183,463,cs),
(183,484,o),
(197,499,o),
(217,499,cs),
(237,499,o),
(251,484,o),
(251,463,cs),
(251,443,o),
(237,428,o),
(217,428,cs)
);
},
{
closed = 1;
nodes = (
(331,325,o),
(283,367,o),
(213,367,cs),
(117,367,o),
(50,288,o),
(50,179,cs),
(50,68,o),
(117,-9,o),
(214,-9,cs),
(282,-9,o),
(329,27,o),
(348,74,c),
(348,3,ls),
(348,1,o),
(349,0,o),
(351,0,cs),
(371,0,ls),
(373,0,o),
(374,1,o),
(374,3,cs),
(374,357,ls),
(374,359,o),
(373,360,o),
(371,360,cs),
(369,360,ls),
(359,360,o),
(348,353,o),
(348,332,cs),
(348,284,l)
);
},
{
closed = 1;
nodes = (
(131,13,o),
(76,78,o),
(76,179,cs),
(76,280,o),
(129,345,o),
(213,345,cs),
(301,345,o),
(349,285,o),
(349,179,cs),
(349,73,o),
(301,13,o),
(214,13,cs)
);
}
);
width = 441;
}
);
note = aring;
unicode = 229;
},
{
glyphname = ae;
kernLeft = a;
kernRight = e;
layers = (
{
layerId = m01;
shapes = (
{
closed = 1;
nodes = (
(398,20,o),
(444,-9,o),
(506,-9,cs),
(605,-9,o),
(640,54,o),
(640,78,cs),
(640,83,o),
(637,89,o),
(633,89,cs),
(628,89,o),
(627,87,o),
(623,81,c),
(606,38,o),
(564,13,o),
(506,13,cs),
(423,13,o),
(375,71,o),
(373,172,c),
(628,172,ls),
(637,172,o),
(641,174,o),
(642,183,cs),
(642,192,o),
(642,194,o),
(642,203,cs),
(642,297,o),
(586,367,o),
(501,367,cs),
(443,367,o),
(398,336,o),
(373,284,c),
(373,357,ls),
(373,359,o),
(372,360,o),
(370,360,cs),
(368,360,ls),
(358,360,o),
(347,353,o),
(347,332,cs),
(347,284,l),
(331,325,o),
(283,367,o),
(212,367,cs),
(117,367,o),
(49,288,o),
(49,179,cs),
(49,68,o),
(116,-9,o),
(213,-9,cs),
(282,-9,o),
(328,27,o),
(347,74,c),
(347,3,ls),
(347,1,o),
(348,0,o),
(350,0,cs),
(370,0,ls),
(372,0,o),
(373,1,o),
(373,3,cs),
(373,71,l)
);
},
{
closed = 1;
nodes = (
(130,13,o),
(75,78,o),
(75,179,cs),
(75,280,o),
(129,345,o),
(212,345,cs),
(300,345,o),
(348,285,o),
(348,179,cs),
(348,73,o),
(300,13,o),
(213,13,cs)
);
},
{
closed = 1;
nodes = (
(379,289,o),
(426,345,o),
(501,345,cs),
(572,345,o),
(620,284,o),
(617,194,c),
(373,194,l)
);
}
);
width = 689;
}
);
note = ae;
unicode = 230;
},
{
glyphname = ccedilla;
kernLeft = c;
kernRight = c;
layers = (
{
layerId = m01;
shapes = (
{
closed = 1;
nodes = (
(303,-1,o),
(333,56,o),
(333,81,cs),
(333,86,o),
(332,91,o),
(327,91,cs),
(323,91,o),
(322,87,o),
(318,82,c),
(300,39,o),
(265,13,o),
(211,13,cs),
(127,13,o),
(75,74,o),
(75,178,cs),
(75,283,o),
(128,345,o),
(214,345,cs),
(254,345,o),
(281,337,o),
(308,318,c),
(312,316,o),
(315,314,o),
(318,314,cs),
(322,314,o),
(322,316,o),
(323,319,cs),
(325,323,ls),
(327,330,o),
(323,338,o),
(305,347,cs),
(276,360,o),
(252,367,o),
(214,367,cs),
(116,367,o),
(49,294,o),
(49,178,cs),
(49,68,o),
(104,-2,o),
(195,-9,c),
(148,-82,ls),
(146,-86,o),
(147,-88,o),
(151,-88,cs),
(168,-88,ls),
(180,-88,o),
(186,-87,o),
(190,-79,cs),
(225,-8,l)
);
}
);
width = 359;
}
);
note = ccedilla;
unicode = 231;
},
{
glyphname = egrave;
kernLeft = e;
kernRight = e;
layers = (
{
layerId = m01;
shapes = (
{
closed = 1;
nodes = (
(222,431,o),
(224,431,o),
(236,431,cs),
(244,431,ls),
(248,431,o),
(251,433,o),
(248,436,cs),
(190,493,ls),
(183,499,o),
(180,502,o),
(169,502,cs),
(146,502,ls),
(142,502,o),
(141,498,o),
(143,496,cs),
(211,440,ls)
);
},
{
closed = 1;
nodes = (
(339,172,o),
(343,174,o),
(344,183,cs),
(345,192,o),
(345,194,o),
(345,203,cs),
(345,297,o),
(288,367,o),
(204,367,cs),
(112,367,o),
(50,289,o),
(50,178,cs),
(50,63,o),
(111,-9,o),
(208,-9,cs),
(307,-9,o),
(342,54,o),
(342,78,cs),
(342,83,o),
(340,89,o),
(335,89,cs),
(331,89,o),
(329,87,o),
(326,81,cs),
(308,38,o),
(267,13,o),
(209,13,cs),
(126,13,o),
(78,71,o),
(76,172,c),
(331,172,ls)
);
},
{
closed = 1;
nodes = (
(82,289,o),
(128,345,o),
(203,345,cs),
(274,345,o),
(322,284,o),
(319,194,c),
(76,194,l)
);
}
);
width = 391;
}
);
note = egrave;
unicode = 232;
},
{
glyphname = eacute;
kernLeft = e;
kernRight = e;
layers = (
{
layerId = m01;
shapes = (
{
closed = 1;
nodes = (
(256,498,o),
(254,502,o),
(251,502,cs),
(228,502,ls),
(217,502,o),
(213,499,o),
(207,493,cs),
(149,436,ls),
(146,433,o),
(148,431,o),
(152,431,cs),
(161,431,ls),
(172,431,o),
(175,431,o),
(186,440,cs),
(253,496,ls)
);
},
{
closed = 1;
nodes = (
(339,172,o),
(343,174,o),
(344,183,cs),
(345,192,o),
(345,194,o),
(345,203,cs),
(345,297,o),
(288,367,o),
(204,367,cs),
(112,367,o),
(50,289,o),
(50,178,cs),
(50,63,o),
(111,-9,o),
(208,-9,cs),
(307,-9,o),
(342,54,o),
(342,78,cs),
(342,83,o),
(340,89,o),
(335,89,cs),
(331,89,o),
(329,87,o),
(326,81,cs),
(308,38,o),
(267,13,o),
(209,13,cs),
(126,13,o),
(78,71,o),
(76,172,c),
(331,172,ls)
);
},
{
closed = 1;
nodes = (
(82,289,o),
(128,345,o),
(203,345,cs),
(274,345,o),
(322,284,o),
(319,194,c),
(76,194,l)
);
}
);
width = 391;
}
);
note = eacute;
unicode = 233;
},
{
glyphname = ecircumflex;
kernLeft = e;
kernRight = e;
layers = (
{
layerId = m01;
shapes = (
{
closed = 1;
nodes = (
(254,440,ls),
(264,431,o),
(268,431,o),
(279,431,cs),
(287,431,ls),
(291,431,o),
(293,433,o),
(291,436,c),
(233,493,ls),
(227,499,o),
(223,502,o),
(212,502,cs),
(195,502,ls),
(184,502,o),
(180,499,o),
(174,493,cs),
(117,436,l),
(113,433,o),
(116,431,o),
(119,431,cs),
(127,431,ls),
(138,431,o),
(141,431,o),
(152,440,cs),
(204,486,l)
);
},
{
closed = 1;
nodes = (
(339,172,o),
(343,174,o),
(344,183,cs),
(345,192,o),
(345,194,o),
(345,203,cs),
(345,297,o),
(288,367,o),
(204,367,cs),
(112,367,o),
(50,289,o),
(50,178,cs),
(50,63,o),
(111,-9,o),
(208,-9,cs),
(307,-9,o),
(342,54,o),
(342,78,cs),
(342,83,o),
(340,89,o),
(335,89,cs),
(331,89,o),
(329,87,o),
(326,81,cs),
(308,38,o),
(267,13,o),
(209,13,cs),
(126,13,o),
(78,71,o),
(76,172,c),
(331,172,ls)
);
},
{
closed = 1;
nodes = (
(82,289,o),
(128,345,o),
(203,345,cs),
(274,345,o),
(322,284,o),
(319,194,c),
(76,194,l)
);
}
);
width = 391;
}
);
note = ecircumflex;
unicode = 234;
},
{
glyphname = edieresis;
kernLeft = e;
kernRight = e;
layers = (
{
layerId = m01;
shapes = (
{
closed = 1;
nodes = (
(137,434,o),
(146,426,o),
(156,426,cs),
(167,426,o),
(175,434,o),
(175,445,cs),
(175,456,o),
(167,464,o),
(156,464,cs),
(146,464,o),
(137,456,o),
(137,445,cs)
);
},
{
closed = 1;
nodes = (
(228,434,o),
(236,426,o),
(247,426,cs),
(258,426,o),
(266,434,o),
(266,445,cs),
(266,456,o),
(258,464,o),
(247,464,cs),
(236,464,o),
(228,456,o),
(228,445,cs)
);
},
{
closed = 1;
nodes = (
(339,172,o),
(343,174,o),
(344,183,cs),
(345,192,o),
(345,194,o),
(345,203,cs),
(345,297,o),
(288,367,o),
(204,367,cs),
(112,367,o),
(50,289,o),
(50,178,cs),
(50,63,o),
(111,-9,o),
(208,-9,cs),
(307,-9,o),
(342,54,o),
(342,78,cs),
(342,83,o),
(340,89,o),
(335,89,cs),
(331,89,o),
(329,87,o),
(326,81,cs),
(308,38,o),
(267,13,o),
(209,13,cs),
(126,13,o),
(78,71,o),
(76,172,c),
(331,172,ls)
);
},
{
closed = 1;
nodes = (
(82,289,o),
(128,345,o),
(203,345,cs),
(274,345,o),
(322,284,o),
(319,194,c),
(76,194,l)
);
}
);
width = 391;
}
);
note = edieresis;
unicode = 235;
},
{
glyphname = igrave;
kernLeft = i;
layers = (
{
layerId = m01;
shapes = (
{
closed = 1;
nodes = (
(108,431,o),
(110,431,o),
(121,431,cs),
(130,431,ls),
(134,431,o),
(136,433,o),
(134,436,c),
(76,493,ls),
(69,499,o),
(66,502,o),
(55,502,cs),
(32,502,ls),
(28,502,o),
(27,498,o),
(29,496,cs),
(96,440,ls)
);
},
{
closed = 1;
nodes = (
(69,1,o),
(70,0,o),
(72,0,cs),
(92,0,ls),
(94,0,o),
(95,1,o),
(95,3,cs),
(95,332,ls),
(95,353,o),
(84,360,o),
(74,360,cs),
(72,360,ls),
(70,360,o),
(69,359,o),
(69,357,cs),
(69,3,ls)
);
}
);
width = 161;
}
);
note = igrave;
unicode = 236;
},
{
glyphname = iacute;
kernLeft = i;
layers = (
{
layerId = m01;
shapes = (
{
closed = 1;
nodes = (
(136,498,o),
(135,502,o),
(131,502,cs),
(109,502,ls),
(98,502,o),
(94,499,o),
(88,493,cs),
(30,436,ls),
(27,433,o),
(29,431,o),
(33,431,cs),
(42,431,ls),
(53,431,o),
(56,431,o),
(67,440,cs),
(134,496,ls)
);
},
{
closed = 1;
nodes = (
(69,1,o),
(70,0,o),
(72,0,cs),
(92,0,ls),
(94,0,o),
(95,1,o),
(95,3,cs),
(95,332,ls),
(95,353,o),
(84,360,o),
(74,360,cs),
(72,360,ls),
(70,360,o),
(69,359,o),
(69,357,cs),
(69,3,ls)
);
}
);
width = 161;
}
);
note = iacute;
unicode = 237;
},
{
glyphname = icircumflex;
kernLeft = i;
layers = (
{
layerId = m01;
shapes = (
{
closed = 1;
nodes = (
(133,440,ls),
(143,431,o),
(147,431,o),
(158,431,cs),
(166,431,ls),
(170,431,o),
(172,433,o),
(169,436,cs),
(111,493,ls),
(105,499,o),
(101,502,o),
(90,502,cs),
(74,502,ls),
(63,502,o),
(59,499,o),
(53,493,cs),
(-5,436,ls),
(-8,433,o),
(-6,431,o),
(-2,431,cs),
(6,431,ls),
(17,431,o),
(20,431,o),
(31,440,cs),
(83,486,l)
);
},
{
closed = 1;
nodes = (
(70,1,o),
(70,0,o),
(73,0,cs),
(93,0,ls),
(94,0,o),
(95,1,o),
(95,3,cs),
(95,332,ls),
(95,353,o),
(84,360,o),
(75,360,cs),
(73,360,ls),
(70,360,o),
(70,359,o),
(70,357,cs),
(70,3,ls)
);
}
);
width = 161;
}
);
note = icircumflex;
unicode = 238;
},
{
glyphname = idieresis;
kernLeft = i;
layers = (
{
layerId = m01;
shapes = (
{
closed = 1;
nodes = (
(17,434,o),
(25,426,o),
(36,426,cs),
(47,426,o),
(55,434,o),
(55,445,cs),
(55,456,o),
(47,464,o),
(36,464,cs),
(25,464,o),
(17,456,o),
(17,445,cs)
);
},
{
closed = 1;
nodes = (
(108,434,o),
(115,426,o),
(126,426,cs),
(138,426,o),
(145,434,o),
(145,445,cs),
(145,456,o),
(138,464,o),
(126,464,cs),
(115,464,o),
(108,456,o),
(108,445,cs)
);
},
{
closed = 1;
nodes = (
(68,1,o),
(69,0,o),
(71,0,cs),
(91,0,ls),
(93,0,o),
(94,1,o),
(94,3,cs),
(94,332,ls),
(94,353,o),
(83,360,o),
(73,360,cs),
(71,360,ls),
(69,360,o),
(68,359,o),
(68,357,cs),
(68,3,ls)
);
}
);
width = 161;
}
);
note = idieresis;
unicode = 239;
},
{
glyphname = eth;
layers = (
{
layerId = m01;
shapes = (
{
closed = 1;
nodes = (
(261,356,o),
(239,361,o),
(211,361,cs),
(112,361,o),
(49,290,o),
(49,178,cs),
(49,63,o),
(113,-9,o),
(212,-9,cs),
(317,-9,o),
(377,68,o),
(377,179,cs),
(377,232,o),
(362,274,o),
(340,306,cs),
(220,473,l),
(284,507,ls),
(286,508,o),
(286,509,o),
(285,511,cs),
(276,524,ls),
(274,527,o),
(272,527,o),
(270,526,cs),
(206,492,l),
(185,523,ls),
(166,548,o),
(161,556,o),
(141,556,cs),
(137,556,ls),
(135,556,o),
(133,553,o),
(135,551,c),
(186,480,l),
(107,438,ls),
(105,437,o),
(106,436,o),
(107,433,c),
(115,421,l),
(116,418,o),
(118,418,o),
(120,419,cs),
(198,461,l),
(280,348,l)
);
},
{
closed = 1;
nodes = (
(129,13,o),
(76,77,o),
(76,179,cs),
(76,279,o),
(127,339,o),
(212,339,cs),
(311,339,o),
(352,263,o),
(352,178,cs),
(352,76,o),
(298,13,o),
(212,13,cs)
);
}
);
width = 427;
}
);
note = eth;
unicode = 240;
},
{
glyphname = ntilde;
kernLeft = n;
kernRight = n;
layers = (
{
layerId = m01;
shapes = (
{
closed = 1;
nodes = (
(151,427,o),
(153,429,o),
(154,436,cs),
(156,447,o),
(161,452,o),
(169,452,cs),
(190,452,o),
(225,426,o),
(252,426,cs),
(279,426,o),
(294,438,o),
(299,467,cs),
(300,472,o),
(299,473,o),
(295,473,cs),
(280,473,ls),
(275,473,o),
(274,471,o),
(272,465,c),
(270,453,o),
(265,448,o),
(252,448,cs),
(232,448,o),
(193,475,o),
(169,475,cs),
(145,475,o),
(129,459,o),
(127,432,cs),
(127,428,o),
(129,427,o),
(131,427,cs),
(147,427,ls)
);
},
{
closed = 1;
nodes = (
(94,353,o),
(82,360,o),
(73,360,cs),
(71,360,ls),
(69,360,o),
(68,359,o),
(68,357,cs),
(68,3,ls),
(68,1,o),
(69,0,o),
(71,0,cs),
(91,0,ls),
(92,0,o),
(94,1,o),
(94,3,cs),
(94,217,ls),
(94,299,o),
(149,345,o),
(222,345,cs),
(295,345,o),
(336,300,o),
(336,224,cs),
(336,3,ls),
(336,1,o),
(337,0,o),
(339,0,cs),
(359,0,ls),
(361,0,o),
(362,1,o),
(362,3,cs),
(362,227,ls),
(362,312,o),
(309,367,o),
(224,367,cs),
(164,367,o),
(120,341,o),
(94,299,c),
(94,332,ls)
);
}
);
width = 427;
}
);
note = ntilde;
unicode = 241;
},
{
glyphname = ograve;
kernLeft = o;
kernRight = o;
layers = (
{
layerId = m01;
shapes = (
{
closed = 1;
nodes = (
(239,431,o),
(242,431,o),
(253,431,cs),
(262,431,ls),
(266,431,o),
(268,433,o),
(265,436,cs),
(207,493,ls),
(200,499,o),
(197,502,o),
(186,502,cs),
(163,502,ls),
(160,502,o),
(158,498,o),
(161,496,cs),
(228,440,ls)
);
},
{
closed = 1;
nodes = (
(313,-9,o),
(377,66,o),
(377,179,cs),
(377,294,o),
(313,367,o),
(211,367,cs),
(113,367,o),
(49,293,o),
(49,178,cs),
(49,63,o),
(113,-9,o),
(212,-9,cs)
);
},
{
closed = 1;
nodes = (
(128,13,o),
(75,77,o),
(75,179,cs),
(75,281,o),
(128,345,o),
(211,345,cs),
(297,345,o),
(351,279,o),
(351,178,cs),
(351,78,o),
(297,13,o),
(211,13,cs)
);
}
);
width = 427;
}
);
note = ograve;
unicode = 242;
},
{
glyphname = oacute;
kernLeft = o;
kernRight = o;
layers = (
{
layerId = m01;
shapes = (
{
closed = 1;
nodes = (
(268,498,o),
(267,502,o),
(263,502,cs),
(240,502,ls),
(229,502,o),
(225,499,o),
(219,493,cs),
(162,436,l),
(158,433,o),
(161,431,o),
(165,431,cs),
(173,431,ls),
(185,431,o),
(187,431,o),
(198,440,cs),
(266,496,ls)
);
},
{
closed = 1;
nodes = (
(313,-9,o),
(377,66,o),
(377,179,cs),
(377,294,o),
(313,367,o),
(211,367,cs),
(113,367,o),
(49,293,o),
(49,178,cs),
(49,63,o),
(113,-9,o),
(212,-9,cs)
);
},
{
closed = 1;
nodes = (
(128,13,o),
(75,77,o),
(75,179,cs),
(75,281,o),
(128,345,o),
(211,345,cs),
(297,345,o),
(351,279,o),
(351,178,cs),
(351,78,o),
(297,13,o),
(211,13,cs)
);
}
);
width = 427;
}
);
note = oacute;
unicode = 243;
},
{
glyphname = ocircumflex;
kernLeft = o;
kernRight = o;
layers = (
{
layerId = m01;
shapes = (
{
closed = 1;
nodes = (
(265,440,ls),
(275,431,o),
(278,431,o),
(290,431,cs),
(297,431,ls),
(301,431,o),
(303,433,o),
(301,436,c),
(243,493,ls),
(237,499,o),
(233,502,o),
(222,502,cs),
(205,502,ls),
(194,502,o),
(190,499,o),
(184,493,cs),
(127,436,l),
(123,433,o),
(126,431,o),
(130,431,cs),
(137,431,ls),
(148,431,o),
(151,431,o),
(162,440,cs),
(214,486,l)
);
},
{
closed = 1;
nodes = (
(313,-9,o),
(377,66,o),
(377,179,cs),
(377,294,o),
(313,367,o),
(211,367,cs),
(113,367,o),
(49,293,o),
(49,178,cs),
(49,63,o),
(113,-9,o),
(212,-9,cs)
);
},
{
closed = 1;
nodes = (
(128,13,o),
(75,77,o),
(75,179,cs),
(75,281,o),
(128,345,o),
(211,345,cs),
(297,345,o),
(351,279,o),
(351,178,cs),
(351,78,o),
(297,13,o),
(211,13,cs)
);
}
);
width = 427;
}
);
note = ocircumflex;
unicode = 244;
},
{
glyphname = otilde;
kernLeft = o;
kernRight = o;
layers = (
{
layerId = m01;
shapes = (
{
closed = 1;
nodes = (
(151,427,o),
(152,429,o),
(153,436,cs),
(156,447,o),
(161,452,o),
(168,452,cs),
(190,452,o),
(224,426,o),
(252,426,cs),
(278,426,o),
(293,438,o),
(298,467,c),
(300,472,o),
(298,473,o),
(295,473,cs),
(279,473,ls),
(275,473,o),
(273,471,o),
(272,465,cs),
(270,453,o),
(264,448,o),
(252,448,cs),
(231,448,o),
(192,475,o),
(168,475,cs),
(145,475,o),
(128,459,o),
(127,432,cs),
(127,428,o),
(128,427,o),
(131,427,cs),
(147,427,ls)
);
},
{
closed = 1;
nodes = (
(313,-9,o),
(377,66,o),
(377,179,cs),
(377,294,o),
(313,367,o),
(211,367,cs),
(113,367,o),
(49,293,o),
(49,178,cs),
(49,63,o),
(113,-9,o),
(212,-9,cs)
);
},
{
closed = 1;
nodes = (
(128,13,o),
(75,77,o),
(75,179,cs),
(75,281,o),
(128,345,o),
(211,345,cs),
(297,345,o),
(351,279,o),
(351,178,cs),
(351,78,o),
(297,13,o),
(211,13,cs)
);
}
);
width = 427;
}
);
note = otilde;
unicode = 245;
},
{
glyphname = odieresis;
kernLeft = o;
kernRight = o;
layers = (
{
layerId = m01;
shapes = (
{
closed = 1;
nodes = (
(150,434,o),
(158,426,o),
(168,426,cs),
(180,426,o),
(187,434,o),
(187,445,cs),
(187,456,o),
(180,464,o),
(168,464,cs),
(158,464,o),
(150,456,o),
(150,445,cs)
);
},
{
closed = 1;
nodes = (
(240,434,o),
(248,426,o),
(259,426,cs),
(270,426,o),
(278,434,o),
(278,445,cs),
(278,456,o),
(270,464,o),
(259,464,cs),
(248,464,o),
(240,456,o),
(240,445,cs)
);
},
{
closed = 1;
nodes = (
(313,-9,o),
(377,66,o),
(377,179,cs),
(377,294,o),
(313,367,o),
(211,367,cs),
(113,367,o),
(49,293,o),
(49,178,cs),
(49,63,o),
(113,-9,o),
(212,-9,cs)
);
},
{
closed = 1;
nodes = (
(128,13,o),
(75,77,o),
(75,179,cs),
(75,281,o),
(128,345,o),
(211,345,cs),
(297,345,o),
(351,279,o),
(351,178,cs),
(351,78,o),
(297,13,o),
(211,13,cs)
);
}
);
width = 427;
}
);
note = odieresis;
unicode = 246;
},
{
glyphname = divide;
layers = (
{
layerId = m01;
shapes = (
{
closed = 1;
nodes = (
(163,384,o),
(177,371,o),
(193,371,cs),
(210,371,o),
(224,384,o),
(224,402,cs),
(224,418,o),
(210,433,o),
(193,433,cs),
(177,433,o),
(163,418,o),
(163,402,cs)
);
},
{
closed = 1;
nodes = (
(340,262,o),
(342,264,o),
(342,268,cs),
(342,271,ls),
(342,281,o),
(337,285,o),
(328,285,cs),
(49,285,ls),
(47,285,o),
(46,284,o),
(46,282,cs),
(46,266,ls),
(46,263,o),
(47,262,o),
(49,262,cs),
(335,262,ls)
);
},
{
closed = 1;
nodes = (
(163,128,o),
(177,114,o),
(193,114,cs),
(210,114,o),
(224,128,o),
(224,145,cs),
(224,162,o),
(210,177,o),
(193,177,cs),
(177,177,o),
(163,162,o),
(163,145,cs)
);
}
);
width = 388;
}
);
note = divide;
unicode = 247;
},
{
glyphname = oslash;
kernLeft = o;
kernRight = o;
layers = (
{
layerId = m01;
shapes = (
{
closed = 1;
nodes = (
(313,-9,o),
(377,66,o),
(377,179,cs),
(377,294,o),
(313,367,o),
(211,367,cs),
(113,367,o),
(49,293,o),
(49,178,cs),
(49,63,o),
(113,-9,o),
(212,-9,cs)
);
},
{
closed = 1;
nodes = (
(90,82,o),
(75,125,o),
(75,179,cs),
(75,281,o),
(128,345,o),
(211,345,cs),
(241,345,o),
(267,337,o),
(289,322,c),
(116,53,l)
);
},
{
closed = 1;
nodes = (
(336,278,o),
(351,233,o),
(351,178,cs),
(351,78,o),
(297,13,o),
(211,13,cs),
(181,13,o),
(155,21,o),
(134,37,c),
(307,307,l)
);
}
);
width = 427;
}
);
note = oslash;
unicode = 248;
},
{
glyphname = ugrave;
kernLeft = u;
kernRight = u;
layers = (
{
layerId = m01;
shapes = (
{
closed = 1;
nodes = (
(234,431,o),
(236,431,o),
(248,431,cs),
(256,431,ls),
(260,431,o),
(263,433,o),
(260,436,cs),
(202,493,ls),
(195,499,o),
(192,502,o),
(181,502,cs),
(158,502,ls),
(154,502,o),
(153,498,o),
(155,496,cs),
(223,440,ls)
);
},
{
closed = 1;
nodes = (
(299,-9,o),
(349,49,o),
(349,159,cs),
(349,332,ls),
(349,353,o),
(338,360,o),
(328,360,cs),
(326,360,ls),
(324,360,o),
(323,359,o),
(323,357,cs),
(323,156,ls),
(323,62,o),
(285,13,o),
(208,13,cs),
(133,13,o),
(93,63,o),
(93,156,cs),
(93,332,ls),
(93,353,o),
(82,360,o),
(72,360,cs),
(70,360,ls),
(68,360,o),
(67,359,o),
(67,357,cs),
(67,159,ls),
(67,45,o),
(116,-9,o),
(208,-9,cs)
);
}
);
width = 416;
}
);
note = ugrave;
unicode = 249;
},
{
glyphname = uacute;
kernLeft = u;
kernRight = u;
layers = (
{
layerId = m01;
shapes = (
{
closed = 1;
nodes = (
(263,498,o),
(261,502,o),
(258,502,cs),
(235,502,ls),
(224,502,o),
(220,499,o),
(214,493,cs),
(156,436,ls),
(153,433,o),
(155,431,o),
(159,431,cs),
(168,431,ls),
(179,431,o),
(182,431,o),
(193,440,cs),
(260,496,ls)
);
},
{
closed = 1;
nodes = (
(299,-9,o),
(349,49,o),
(349,159,cs),
(349,332,ls),
(349,353,o),
(338,360,o),
(328,360,cs),
(326,360,ls),
(324,360,o),
(323,359,o),
(323,357,cs),
(323,156,ls),
(323,62,o),
(285,13,o),
(208,13,cs),
(133,13,o),
(93,63,o),
(93,156,cs),
(93,332,ls),
(93,353,o),
(82,360,o),
(72,360,cs),
(70,360,ls),
(68,360,o),
(67,359,o),
(67,357,cs),
(67,159,ls),
(67,45,o),
(116,-9,o),
(208,-9,cs)
);
}
);
width = 416;
}
);
note = uacute;
unicode = 250;
},
{
glyphname = ucircumflex;
kernLeft = u;
kernRight = u;
layers = (
{
layerId = m01;
shapes = (
{
closed = 1;
nodes = (
(260,440,ls),
(270,431,o),
(274,431,o),
(285,431,cs),
(293,431,ls),
(296,431,o),
(299,433,o),
(296,436,cs),
(238,493,ls),
(232,499,o),
(228,502,o),
(217,502,cs),
(200,502,ls),
(189,502,o),
(185,499,o),
(179,493,cs),
(122,436,ls),
(119,433,o),
(121,431,o),
(125,431,cs),
(133,431,ls),
(144,431,o),
(146,431,o),
(158,440,c),
(209,486,l)
);
},
{
closed = 1;
nodes = (
(299,-9,o),
(349,49,o),
(349,159,cs),
(349,332,ls),
(349,353,o),
(338,360,o),
(328,360,cs),
(326,360,ls),
(324,360,o),
(323,359,o),
(323,357,cs),
(323,156,ls),
(323,62,o),
(285,13,o),
(208,13,cs),
(133,13,o),
(93,63,o),
(93,156,cs),
(93,332,ls),
(93,353,o),
(82,360,o),
(72,360,cs),
(70,360,ls),
(68,360,o),
(67,359,o),
(67,357,cs),
(67,159,ls),
(67,45,o),
(116,-9,o),
(208,-9,cs)
);
}
);
width = 416;
}
);
note = ucircumflex;
unicode = 251;
},
{
glyphname = udieresis;
kernLeft = u;
kernRight = u;
layers = (
{
layerId = m01;
shapes = (
{
closed = 1;
nodes = (
(144,434,o),
(153,426,o),
(163,426,cs),
(174,426,o),
(182,434,o),
(182,445,cs),
(182,456,o),
(174,464,o),
(163,464,cs),
(153,464,o),
(144,456,o),
(144,445,cs)
);
},
{
closed = 1;
nodes = (
(235,434,o),
(243,426,o),
(254,426,cs),
(265,426,o),
(273,434,o),
(273,445,cs),
(273,456,o),
(265,464,o),
(254,464,cs),
(243,464,o),
(235,456,o),
(235,445,cs)
);
},
{
closed = 1;
nodes = (
(299,-9,o),
(349,49,o),
(349,159,cs),
(349,332,ls),
(349,353,o),
(338,360,o),
(328,360,cs),
(326,360,ls),
(324,360,o),
(323,359,o),
(323,357,cs),
(323,156,ls),
(323,62,o),
(285,13,o),
(208,13,cs),
(133,13,o),
(93,63,o),
(93,156,cs),
(93,332,ls),
(93,353,o),
(82,360,o),
(72,360,cs),
(70,360,ls),
(68,360,o),
(67,359,o),
(67,357,cs),
(67,159,ls),
(67,45,o),
(116,-9,o),
(208,-9,cs)
);
}
);
width = 416;
}
);
note = udieresis;
unicode = 252;
},
{
glyphname = yacute;
kernLeft = y;
kernRight = y;
layers = (
{
layerId = m01;
shapes = (
{
closed = 1;
nodes = (
(203,498,o),
(202,502,o),
(198,502,cs),
(175,502,ls),
(164,502,o),
(160,499,o),
(154,493,cs),
(97,436,ls),
(94,433,o),
(96,431,o),
(100,431,cs),
(109,431,ls),
(120,431,o),
(122,431,o),
(134,440,cs),
(201,496,ls)
);
},
{
closed = 1;
nodes = (
(102,-112,o),
(87,-148,o),
(48,-148,cs),
(33,-148,o),
(15,-138,o),
(7,-123,cs),
(4,-117,o),
(1,-116,o),
(-1,-116,cs),
(-5,-116,o),
(-7,-120,o),
(-7,-125,cs),
(-7,-141,o),
(12,-170,o),
(51,-170,cs),
(107,-170,o),
(126,-116,o),
(162,-11,cs),
(287,355,ls),
(288,358,o),
(287,360,o),
(284,360,cs),
(271,360,ls),
(265,360,o),
(262,359,o),
(260,351,cs),
(153,35,l),
(53,338,ls),
(49,351,o),
(41,360,o),
(27,360,cs),
(23,360,ls),
(19,360,o),
(18,358,o),
(19,355,cs),
(141,-2,l)
);
}
);
width = 308;
}
);
note = yacute;
unicode = 253;
},
{
glyphname = thorn;
layers = (
{
layerId = m01;
shapes = (
{
closed = 1;
nodes = (
(112,27,o),
(159,-9,o),
(228,-9,cs),
(325,-9,o),
(392,68,o),
(392,179,cs),
(392,288,o),
(324,367,o),
(229,367,cs),
(158,367,o),
(111,325,o),
(94,284,c),
(94,528,ls),
(94,548,o),
(82,556,o),
(73,556,cs),
(71,556,ls),
(69,556,o),
(68,554,o),
(68,553,cs),
(68,-157,ls),
(68,-159,o),
(69,-160,o),
(71,-160,cs),
(91,-160,ls),
(92,-160,o),
(94,-159,o),
(94,-157,cs),
(94,74,l)
);
},
{
closed = 1;
nodes = (
(141,13,o),
(92,73,o),
(92,179,cs),
(92,285,o),
(141,345,o),
(229,345,cs),
(312,345,o),
(366,280,o),
(366,179,cs),
(366,78,o),
(311,13,o),
(228,13,cs)
);
}
);
width = 441;
}
);
note = thorn;
unicode = 254;
},
{
glyphname = ydieresis;
kernLeft = y;
kernRight = y;
layers = (
{
layerId = m01;
shapes = (
{
closed = 1;
nodes = (
(85,434,o),
(93,426,o),
(104,426,cs),
(115,426,o),
(122,434,o),
(122,445,cs),
(122,456,o),
(115,464,o),
(104,464,cs),
(93,464,o),
(85,456,o),
(85,445,cs)
);
},
{
closed = 1;
nodes = (
(175,434,o),
(183,426,o),
(194,426,cs),
(205,426,o),
(213,434,o),
(213,445,cs),
(213,456,o),
(205,464,o),
(194,464,cs),
(183,464,o),
(175,456,o),
(175,445,cs)
);
},
{
closed = 1;
nodes = (
(102,-112,o),
(87,-148,o),
(48,-148,cs),
(33,-148,o),
(15,-138,o),
(7,-123,cs),
(4,-117,o),
(1,-116,o),
(-1,-116,cs),
(-5,-116,o),
(-7,-120,o),
(-7,-125,cs),
(-7,-141,o),
(12,-170,o),
(51,-170,cs),
(107,-170,o),
(126,-116,o),
(162,-11,cs),
(287,355,ls),
(288,358,o),
(287,360,o),
(284,360,cs),
(271,360,ls),
(265,360,o),
(262,359,o),
(260,351,cs),
(153,35,l),
(53,338,ls),
(49,351,o),
(41,360,o),
(27,360,cs),
(23,360,ls),
(19,360,o),
(18,358,o),
(19,355,cs),
(141,-2,l)
);
}
);
width = 308;
}
);
note = ydieresis;
unicode = 255;
},
{
glyphname = dotlessi;
kernLeft = r;
layers = (
{
layerId = m01;
shapes = (
{
closed = 1;
nodes = (
(68,1,o),
(69,0,o),
(71,0,cs),
(91,0,ls),
(92,0,o),
(94,1,o),
(94,3,cs),
(94,332,ls),
(94,353,o),
(82,360,o),
(73,360,cs),
(71,360,ls),
(69,360,o),
(68,359,o),
(68,357,cs),
(68,3,ls)
);
}
);
width = 161;
}
);
note = dotlessi;
unicode = 305;
},
{
glyphname = Lslash;
layers = (
{
layerId = m01;
shapes = (
{
closed = 1;
nodes = (
(104,247,l),
(257,330,ls),
(259,331,o),
(260,332,o),
(260,335,cs),
(260,354,ls),
(260,356,o),
(259,357,o),
(257,356,cs),
(104,273,l),
(104,528,ls),
(104,548,o),
(93,556,o),
(83,556,cs),
(81,556,ls),
(79,556,o),
(78,554,o),
(78,553,cs),
(78,259,l),
(25,232,ls),
(23,231,o),
(22,229,o),
(22,227,cs),
(22,208,ls),
(22,206,o),
(23,205,o),
(25,206,cs),
(78,233,l),
(78,3,ls),
(78,1,o),
(79,0,o),
(81,0,cs),
(319,0,ls),
(324,0,o),
(326,2,o),
(326,6,cs),
(326,9,ls),
(326,19,o),
(321,23,o),
(313,23,cs),
(104,23,l)
);
}
);
width = 349;
}
);
note = Lslash;
unicode = 321;
},
{
glyphname = lslash;
layers = (
{
layerId = m01;
shapes = (
{
closed = 1;
nodes = (
(73,68,ls),
(73,21,o),
(97,-9,o),
(141,-9,cs),
(185,-9,o),
(204,27,o),
(204,46,cs),
(204,52,o),
(202,59,o),
(197,59,cs),
(193,59,o),
(192,56,o),
(190,51,cs),
(180,29,o),
(168,16,o),
(143,16,cs),
(114,16,o),
(99,36,o),
(99,69,cs),
(99,246,l),
(166,281,ls),
(168,282,o),
(169,283,o),
(169,286,cs),
(169,305,ls),
(169,307,o),
(168,308,o),
(166,307,cs),
(99,271,l),
(99,528,ls),
(99,548,o),
(88,556,o),
(78,556,cs),
(76,556,ls),
(74,556,o),
(73,554,o),
(73,553,cs),
(73,257,l),
(25,232,ls),
(23,231,o),
(22,229,o),
(22,227,cs),
(22,208,ls),
(22,206,o),
(23,205,o),
(25,206,cs),
(73,232,l)
);
}
);
width = 206;
}
);
note = lslash;
unicode = 322;
},
{
glyphname = OE;
kernLeft = O;
kernRight = E;
layers = (
{
layerId = m01;
shapes = (
{
closed = 1;
nodes = (
(522,262,l),
(749,262,ls),
(754,262,o),
(756,264,o),
(756,268,cs),
(756,271,ls),
(756,281,o),
(751,285,o),
(742,285,cs),
(522,285,l),
(522,533,l),
(769,533,ls),
(774,533,o),
(776,534,o),
(776,539,cs),
(776,542,ls),
(776,552,o),
(771,556,o),
(762,556,cs),
(500,556,ls),
(497,556,o),
(496,554,o),
(496,553,cs),
(496,426,l),
(464,514,o),
(395,567,o),
(293,567,cs),
(142,567,o),
(63,453,o),
(63,277,cs),
(63,101,o),
(140,-10,o),
(293,-10,cs),
(396,-10,o),
(464,40,o),
(496,126,c),
(496,3,ls),
(496,1,o),
(497,0,o),
(500,0,cs),
(779,0,ls),
(784,0,o),
(786,2,o),
(786,6,cs),
(786,9,ls),
(786,19,o),
(781,23,o),
(772,23,cs),
(522,23,l)
);
},
{
closed = 1;
nodes = (
(176,13,o),
(89,91,o),
(89,277,cs),
(89,462,o),
(176,544,o),
(293,544,cs),
(409,544,o),
(496,462,o),
(496,277,cs),
(496,91,o),
(409,13,o),
(293,13,cs)
);
}
);
width = 823;
}
);
note = OE;
unicode = 338;
},
{
glyphname = oe;
kernLeft = o;
kernRight = e;
layers = (
{
layerId = m01;
shapes = (
{
closed = 1;
nodes = (
(383,31,o),
(434,-9,o),
(507,-9,cs),
(607,-9,o),
(642,54,o),
(642,78,cs),
(642,83,o),
(640,89,o),
(635,89,cs),
(631,89,o),
(628,87,o),
(626,81,cs),
(608,38,o),
(566,13,o),
(508,13,cs),
(425,13,o),
(377,71,o),
(375,172,c),
(631,172,ls),
(638,172,o),
(642,174,o),
(643,183,cs),
(645,192,o),
(645,194,o),
(645,203,cs),
(645,297,o),
(588,367,o),
(503,367,cs),
(435,367,o),
(384,323,o),
(363,256,c),
(341,325,o),
(288,367,o),
(211,367,cs),
(113,367,o),
(49,293,o),
(49,178,cs),
(49,63,o),
(113,-9,o),
(212,-9,cs),
(287,-9,o),
(341,32,o),
(362,101,c)
);
},
{
closed = 1;
nodes = (
(128,13,o),
(75,77,o),
(75,179,cs),
(75,281,o),
(128,345,o),
(211,345,cs),
(297,345,o),
(351,279,o),
(351,178,cs),
(351,78,o),
(297,13,o),
(211,13,cs)
);
},
{
closed = 1;
nodes = (
(381,289,o),
(428,345,o),
(502,345,cs),
(574,345,o),
(622,284,o),
(618,194,c),
(375,194,l)
);
}
);
width = 691;
}
);
note = oe;
unicode = 339;
},
{
glyphname = Scaron;
kernLeft = S;
kernRight = S;
layers = (
{
layerId = m01;
shapes = (
{
closed = 1;
nodes = (
(164,681,ls),
(154,690,o),
(150,691,o),
(139,691,cs),
(131,691,ls),
(128,691,o),
(125,688,o),
(129,685,c),
(186,628,ls),
(192,622,o),
(196,619,o),
(207,619,cs),
(224,619,ls),
(235,619,o),
(239,622,o),
(245,628,cs),
(303,685,l),
(305,688,o),
(303,691,o),
(299,691,cs),
(291,691,ls),
(280,691,o),
(278,690,o),
(266,681,c),
(216,635,l)
);
},
{
closed = 1;
nodes = (
(27,71,o),
(80,-11,o),
(209,-11,cs),
(318,-11,o),
(386,53,o),
(386,150,cs),
(386,322,o),
(71,274,o),
(71,426,cs),
(71,498,o),
(130,544,o),
(214,544,cs),
(268,544,o),
(309,529,o),
(359,493,cs),
(362,491,o),
(365,488,o),
(369,488,cs),
(372,488,o),
(373,490,o),
(375,495,cs),
(376,498,ls),
(380,509,o),
(376,514,o),
(355,527,cs),
(318,548,o),
(276,567,o),
(214,567,cs),
(118,567,o),
(45,509,o),
(45,424,cs),
(45,257,o),
(360,300,o),
(360,149,cs),
(360,63,o),
(304,12,o),
(207,12,cs),
(129,12,o),
(65,51,o),
(46,109,cs),
(44,116,o),
(41,119,o),
(36,119,cs),
(28,119,o),
(27,111,o),
(27,103,cs)
);
}
);
width = 422;
}
);
note = Scaron;
unicode = 352;
},
{
glyphname = scaron;
kernLeft = s;
layers = (
{
layerId = m01;
shapes = (
{
closed = 1;
nodes = (
(99,492,ls),
(89,501,o),
(85,502,o),
(74,502,cs),
(66,502,ls),
(62,502,o),
(60,499,o),
(63,496,cs),
(120,439,ls),
(126,433,o),
(130,431,o),
(141,431,cs),
(158,431,ls),
(169,431,o),
(173,433,o),
(179,439,cs),
(237,496,ls),
(240,499,o),
(237,502,o),
(234,502,cs),
(226,502,ls),
(215,502,o),
(212,501,o),
(201,492,cs),
(150,446,l)
);
},
{
closed = 1;
nodes = (
(257,331,o),
(255,340,o),
(236,349,cs),
(209,362,o),
(186,367,o),
(150,367,cs),
(84,367,o),
(36,328,o),
(36,273,cs),
(36,162,o),
(245,188,o),
(245,92,cs),
(245,42,o),
(205,12,o),
(149,12,cs),
(101,12,o),
(65,30,o),
(44,78,c),
(41,83,o),
(39,87,o),
(35,87,cs),
(30,87,o),
(28,81,o),
(28,74,cs),
(28,48,o),
(66,-11,o),
(149,-11,cs),
(218,-11,o),
(271,33,o),
(271,96,cs),
(271,208,o),
(62,186,o),
(62,276,cs),
(62,318,o),
(97,344,o),
(150,344,cs),
(188,344,o),
(214,336,o),
(240,318,c),
(242,316,o),
(246,313,o),
(250,313,cs),
(252,313,o),
(254,316,o),
(255,319,cs),
(256,324,ls)
);
}
);
width = 299;
}
);
note = scaron;
unicode = 353;
},
{
glyphname = Ydieresis;
kernLeft = Y;
kernRight = Y;
layers = (
{
layerId = m01;
shapes = (
{
closed = 1;
nodes = (
(137,623,o),
(146,615,o),
(156,615,cs),
(167,615,o),
(175,623,o),
(175,634,cs),
(175,645,o),
(167,653,o),
(156,653,cs),
(146,653,o),
(137,645,o),
(137,634,cs)
);
},
{
closed = 1;
nodes = (
(228,623,o),
(236,615,o),
(247,615,cs),
(258,615,o),
(266,623,o),
(266,634,cs),
(266,645,o),
(258,653,o),
(247,653,cs),
(236,653,o),
(228,645,o),
(228,634,cs)
);
},
{
closed = 1;
nodes = (
(196,3,ls),
(196,1,o),
(197,0,o),
(199,0,cs),
(219,0,ls),
(221,0,o),
(222,1,o),
(222,3,cs),
(222,223,l),
(407,552,l),
(408,553,o),
(407,556,o),
(403,556,cs),
(391,556,ls),
(384,556,o),
(381,553,o),
(377,547,cs),
(209,247,l),
(53,533,ls),
(43,551,o),
(36,556,o),
(22,556,cs),
(18,556,ls),
(15,556,o),
(14,553,o),
(15,552,c),
(196,223,l)
);
}
);
width = 421;
}
);
note = Ydieresis;
unicode = 376;
},
{
glyphname = Zcaron;
kernLeft = Z;
kernRight = Z;
layers = (
{
layerId = m01;
shapes = (
{
closed = 1;
nodes = (
(172,681,ls),
(162,690,o),
(158,691,o),
(147,691,cs),
(139,691,ls),
(136,691,o),
(133,688,o),
(137,685,c),
(194,628,ls),
(200,622,o),
(204,619,o),
(215,619,cs),
(232,619,ls),
(243,619,o),
(247,622,o),
(253,628,cs),
(311,685,l),
(313,688,o),
(311,691,o),
(307,691,cs),
(299,691,ls),
(288,691,o),
(286,690,o),
(274,681,c),
(224,635,l)
);
},
{
closed = 1;
nodes = (
(377,505,ls),
(386,519,o),
(389,526,o),
(389,532,cs),
(389,536,ls),
(389,548,o),
(383,556,o),
(365,556,cs),
(64,556,ls),
(63,556,o),
(62,554,o),
(62,553,cs),
(62,536,ls),
(62,534,o),
(63,533,o),
(64,533,cs),
(367,533,l),
(47,38,ls),
(41,29,o),
(40,24,o),
(40,16,cs),
(40,3,ls),
(40,1,o),
(41,0,o),
(43,0,cs),
(382,0,ls),
(384,0,o),
(387,2,o),
(387,6,cs),
(387,9,ls),
(387,19,o),
(382,23,o),
(373,23,cs),
(64,23,l)
);
}
);
width = 437;
}
);
note = Zcaron;
unicode = 381;
},
{
glyphname = zcaron;
kernLeft = z;
kernRight = z;
layers = (
{
layerId = m01;
shapes = (
{
closed = 1;
nodes = (
(116,492,ls),
(106,501,o),
(102,502,o),
(91,502,cs),
(83,502,ls),
(80,502,o),
(77,499,o),
(81,496,c),
(138,439,ls),
(144,433,o),
(148,431,o),
(159,431,cs),
(176,431,ls),
(187,431,o),
(191,433,o),
(197,439,cs),
(255,496,l),
(257,499,o),
(255,502,o),
(251,502,cs),
(243,502,ls),
(232,502,o),
(230,501,o),
(218,492,c),
(168,446,l)
);
},
{
closed = 1;
nodes = (
(272,308,ls),
(283,323,o),
(288,330,o),
(288,338,cs),
(288,356,o),
(280,360,o),
(262,360,cs),
(53,360,ls),
(51,360,o),
(50,359,o),
(50,357,cs),
(50,340,ls),
(50,338,o),
(51,337,o),
(53,337,cs),
(262,337,l),
(45,37,ls),
(41,31,o),
(39,27,o),
(39,21,cs),
(39,3,ls),
(39,1,o),
(40,0,o),
(42,0,cs),
(290,0,ls),
(292,0,o),
(293,1,o),
(293,3,cs),
(293,20,ls),
(293,22,o),
(292,23,o),
(290,23,cs),
(66,23,l)
);
}
);
width = 334;
}
);
note = zcaron;
unicode = 382;
},
{
glyphname = florin;
layers = (
{
layerId = m01;
shapes = (
{
closed = 1;
nodes = (
(48,338,o),
(48,337,o),
(49,337,cs),
(114,337,l),
(39,-93,ls),
(34,-124,o),
(19,-148,o),
(-15,-148,cs),
(-44,-148,o),
(-52,-132,o),
(-57,-111,cs),
(-58,-108,o),
(-59,-106,o),
(-63,-106,cs),
(-71,-106,o),
(-73,-118,o),
(-73,-124,cs),
(-73,-153,o),
(-47,-171,o),
(-18,-171,cs),
(30,-171,o),
(56,-138,o),
(64,-93,cs),
(140,337,l),
(229,337,ls),
(231,337,o),
(233,338,o),
(233,340,cs),
(236,357,ls),
(236,359,o),
(235,360,o),
(233,360,cs),
(144,360,l),
(165,478,ls),
(170,509,o),
(185,533,o),
(219,533,cs),
(246,533,o),
(254,521,o),
(260,496,cs),
(261,493,o),
(262,490,o),
(266,490,cs),
(274,490,o),
(276,503,o),
(276,509,cs),
(276,538,o),
(250,556,o),
(221,556,cs),
(173,556,o),
(147,523,o),
(139,477,cs),
(118,360,l),
(54,360,ls),
(51,360,o),
(50,359,o),
(50,357,cs),
(48,340,ls)
);
}
);
width = 310;
}
);
note = florin;
unicode = 402;
},
{
glyphname = circumflex;
layers = (
{
layerId = m01;
shapes = (
{
closed = 1;
nodes = (
(142,440,ls),
(152,431,o),
(156,431,o),
(167,431,cs),
(175,431,ls),
(179,431,o),
(181,433,o),
(178,436,cs),
(120,493,ls),
(114,499,o),
(110,502,o),
(99,502,cs),
(83,502,ls),
(72,502,o),
(68,499,o),
(62,493,cs),
(4,436,ls),
(1,433,o),
(3,431,o),
(7,431,cs),
(15,431,ls),
(26,431,o),
(29,431,o),
(40,440,cs),
(92,486,l)
);
}
);
width = 178;
}
);
note = circumflex;
unicode = 710;
},
{
glyphname = caron;
layers = (
{
layerId = m01;
shapes = (
{
closed = 1;
nodes = (
(40,492,ls),
(30,501,o),
(26,502,o),
(15,502,cs),
(7,502,ls),
(3,502,o),
(1,499,o),
(4,496,cs),
(62,439,ls),
(68,433,o),
(72,431,o),
(83,431,cs),
(99,431,ls),
(110,431,o),
(114,433,o),
(120,439,cs),
(178,496,ls),
(181,499,o),
(179,502,o),
(175,502,cs),
(167,502,ls),
(156,502,o),
(153,501,o),
(142,492,cs),
(92,446,l)
);
}
);
width = 178;
}
);
note = caron;
unicode = 711;
},
{
glyphname = breve;
layers = (
{
layerId = m01;
shapes = (
{
closed = 1;
nodes = (
(8,455,o),
(42,431,o),
(83,431,cs),
(125,431,o),
(159,455,o),
(165,489,cs),
(166,495,o),
(164,497,o),
(160,497,cs),
(148,497,ls),
(143,497,o),
(142,496,o),
(140,490,cs),
(134,469,o),
(114,452,o),
(83,452,cs),
(53,452,o),
(33,469,o),
(27,490,cs),
(25,496,o),
(24,497,o),
(19,497,cs),
(7,497,ls),
(3,497,o),
(1,495,o),
(2,489,cs)
);
}
);
width = 165;
}
);
note = breve;
unicode = 728;
},
{
glyphname = dotaccent;
layers = (
{
layerId = m01;
shapes = (
{
closed = 1;
nodes = (
(0,434,o),
(8,426,o),
(19,426,cs),
(30,426,o),
(38,434,o),
(38,445,cs),
(38,456,o),
(30,464,o),
(19,464,cs),
(8,464,o),
(0,456,o),
(0,445,cs)
);
}
);
width = 38;
}
);
note = dotaccent;
unicode = 729;
},
{
glyphname = ring;
layers = (
{
layerId = m01;
shapes = (
{
closed = 1;
nodes = (
(0,434,o),
(26,409,o),
(54,409,cs),
(83,409,o),
(109,434,o),
(109,463,cs),
(109,493,o),
(84,519,o),
(54,519,cs),
(24,519,o),
(0,493,o),
(0,463,cs)
);
},
{
closed = 1;
nodes = (
(34,428,o),
(21,443,o),
(21,463,cs),
(21,484,o),
(34,499,o),
(54,499,cs),
(74,499,o),
(88,484,o),
(88,463,cs),
(88,443,o),
(74,428,o),
(54,428,cs)
);
}
);
width = 109;
}
);
note = ring;
unicode = 730;
},
{
glyphname = ogonek;
layers = (
{
layerId = m01;
shapes = (
{
closed = 1;
nodes = (
(0,-112,o),
(25,-133,o),
(58,-133,cs),
(72,-133,o),
(82,-131,o),
(94,-127,cs),
(99,-125,o),
(101,-124,o),
(101,-119,cs),
(101,-108,ls),
(101,-106,o),
(99,-102,o),
(94,-104,cs),
(87,-107,o),
(76,-111,o),
(63,-111,cs),
(40,-111,o),
(26,-98,o),
(26,-77,cs),
(26,-47,o),
(46,-21,o),
(79,-3,c),
(82,-2,o),
(82,2,o),
(78,2,cs),
(67,2,ls),
(63,2,o),
(59,2,o),
(56,0,cs),
(30,-15,o),
(0,-41,o),
(0,-78,cs)
);
}
);
width = 101;
}
);
note = ogonek;
unicode = 731;
},
{
glyphname = tilde;
layers = (
{
layerId = m01;
shapes = (
{
closed = 1;
nodes = (
(24,427,o),
(26,429,o),
(27,436,cs),
(29,447,o),
(34,452,o),
(42,452,cs),
(63,452,o),
(97,426,o),
(125,426,cs),
(151,426,o),
(167,438,o),
(172,467,cs),
(173,472,o),
(172,473,o),
(168,473,cs),
(152,473,ls),
(148,473,o),
(146,471,o),
(145,465,cs),
(143,453,o),
(137,448,o),
(125,448,cs),
(104,448,o),
(66,475,o),
(42,475,cs),
(18,475,o),
(2,459,o),
(0,432,cs),
(0,428,o),
(1,427,o),
(4,427,cs),
(20,427,ls)
);
}
);
width = 173;
}
);
note = tilde;
unicode = 732;
},
{
glyphname = hungarumlaut;
layers = (
{
layerId = m01;
shapes = (
{
closed = 1;
nodes = (
(1,433,o),
(3,431,o),
(7,431,cs),
(14,431,ls),
(25,431,o),
(29,431,o),
(39,440,cs),
(92,496,ls),
(94,498,o),
(93,502,o),
(89,502,cs),
(72,502,ls),
(61,502,o),
(57,500,o),
(51,493,cs),
(4,436,ls)
);
},
{
closed = 1;
nodes = (
(97,433,o),
(99,431,o),
(103,431,cs),
(109,431,ls),
(120,431,o),
(124,431,o),
(134,440,cs),
(187,496,ls),
(189,498,o),
(188,502,o),
(184,502,cs),
(167,502,ls),
(156,502,o),
(152,500,o),
(146,493,cs),
(99,436,ls)
);
}
);
width = 186;
}
);
note = hungarumlaut;
unicode = 733;
},
{
glyphname = uni03BC;
layers = (
{
layerId = m01;
shapes = (
{
closed = 1;
nodes = (
(116,13,o),
(156,-9,o),
(209,-9,cs),
(300,-9,o),
(350,49,o),
(350,159,cs),
(350,332,ls),
(350,353,o),
(339,360,o),
(329,360,cs),
(327,360,ls),
(325,360,o),
(324,359,o),
(324,357,cs),
(324,156,ls),
(324,62,o),
(285,13,o),
(209,13,cs),
(134,13,o),
(94,63,o),
(94,156,cs),
(94,332,ls),
(94,353,o),
(82,360,o),
(73,360,cs),
(71,360,ls),
(69,360,o),
(68,359,o),
(68,357,cs),
(68,-157,ls),
(68,-159,o),
(69,-160,o),
(71,-160,cs),
(91,-160,ls),
(92,-160,o),
(94,-159,o),
(94,-157,cs),
(94,51,l)
);
}
);
width = 417;
}
);
note = uni03BC;
unicode = 956;
},
{
glyphname = uni060C;
layers = (
{
layerId = m01;
shapes = (
{
closed = 1;
nodes = (
(89,62,o),
(100,76,o),
(106,86,cs),
(109,92,o),
(123,108,o),
(111,119,cs),
(109,121,o),
(107,123,o),
(106,121,c),
(78,97,o),
(50,53,o),
(50,14,cs),
(50,-7,o),
(64,-18,o),
(81,-18,cs),
(97,-18,o),
(111,-7,o),
(111,11,cs),
(111,23,o),
(103,38,o),
(84,41,c)
);
}
);
width = 161;
}
);
note = uni060C;
unicode = 1548;
},
{
glyphname = uni061B;
layers = (
{
layerId = m01;
shapes = (
{
closed = 1;
nodes = (
(92,261,o),
(103,274,o),
(109,284,cs),
(112,291,o),
(126,306,o),
(114,318,c),
(112,319,o),
(110,321,o),
(109,319,c),
(81,296,o),
(53,251,o),
(53,213,cs),
(53,191,o),
(67,177,o),
(84,177,cs),
(100,177,o),
(114,192,o),
(114,209,cs),
(114,222,o),
(106,236,o),
(87,239,c)
);
},
{
closed = 1;
nodes = (
(67,44,o),
(53,29,o),
(53,13,cs),
(53,-4,o),
(67,-18,o),
(84,-18,cs),
(100,-18,o),
(114,-4,o),
(114,13,cs),
(114,29,o),
(100,44,o),
(84,44,cs)
);
}
);
width = 167;
}
);
note = uni061B;
unicode = 1563;
},
{
glyphname = uni061F;
layers = (
{
layerId = m01;
shapes = (
{
closed = 1;
nodes = (
(247,116,o),
(250,119,o),
(250,122,cs),
(250,211,ls),
(250,309,o),
(98,308,o),
(95,419,cs),
(92,519,o),
(174,536,o),
(210,536,cs),
(249,535,o),
(276,522,o),
(294,513,c),
(296,511,o),
(299,510,o),
(302,510,cs),
(308,510,o),
(311,514,o),
(309,520,cs),
(302,537,o),
(258,559,o),
(210,559,cs),
(133,559,o),
(67,517,o),
(69,419,cs),
(71,288,o),
(224,291,o),
(224,207,cs),
(224,122,ls),
(224,119,o),
(226,116,o),
(230,116,cs),
(244,116,ls)
);
},
{
closed = 1;
nodes = (
(220,44,o),
(206,29,o),
(206,13,cs),
(206,-4,o),
(220,-18,o),
(236,-18,cs),
(253,-18,o),
(267,-4,o),
(267,13,cs),
(267,29,o),
(253,44,o),
(236,44,cs)
);
}
);
width = 368;
}
);
note = uni061F;
unicode = 1567;
},
{
glyphname = uni0621;
layers = (
{
layerId = m01;
shapes = (
{
closed = 1;
nodes = (
(155,23,o),
(113,99,o),
(113,166,cs),
(113,258,o),
(171,311,o),
(243,311,cs),
(281,311,o),
(304,302,o),
(322,292,cs),
(325,290,o),
(328,289,o),
(330,289,cs),
(335,289,o),
(338,292,o),
(338,296,cs),
(338,304,o),
(325,313,o),
(315,319,cs),
(299,327,o),
(277,334,o),
(247,334,cs),
(160,334,o),
(87,279,o),
(87,166,cs),
(87,108,o),
(110,54,o),
(160,23,c),
(157,23,ls),
(137,24,o),
(118,22,o),
(102,17,cs),
(78,10,o),
(62,-3,o),
(61,-19,cs),
(61,-22,o),
(63,-26,o),
(66,-26,cs),
(70,-26,o),
(72,-24,o),
(75,-22,cs),
(99,-2,o),
(129,0,o),
(163,0,cs),
(375,0,ls),
(377,0,o),
(377,1,o),
(377,2,cs),
(377,3,ls),
(377,11,o),
(369,23,o),
(349,23,cs),
(248,23,ls)
);
}
);
width = 438;
}
);
note = uni0621;
unicode = 1569;
},
{
glyphname = uni0622;
layers = (
{
layerId = m01;
shapes = (
{
closed = 1;
nodes = (
(166,643,o),
(178,657,o),
(178,676,cs),
(178,681,o),
(177,686,o),
(174,691,c),
(172,693,o),
(170,693,o),
(169,691,cs),
(161,676,o),
(156,664,o),
(141,664,cs),
(116,664,o),
(76,694,o),
(47,694,cs),
(25,694,o),
(13,679,o),
(13,661,cs),
(13,656,o),
(14,651,o),
(17,646,c),
(19,644,o),
(21,644,o),
(22,646,cs),
(30,661,o),
(35,672,o),
(50,672,cs),
(75,672,o),
(115,643,o),
(144,643,cs)
);
},
{
closed = 1;
nodes = (
(90,0,o),
(96,4,o),
(99,9,cs),
(104,17,o),
(104,26,o),
(104,34,cs),
(104,553,ls),
(104,554,o),
(104,556,o),
(101,556,cs),
(99,556,ls),
(91,556,o),
(85,552,o),
(82,546,cs),
(77,538,o),
(77,529,o),
(77,521,cs),
(77,3,ls),
(77,1,o),
(77,0,o),
(80,0,cs),
(82,0,ls)
);
}
);
width = 182;
}
);
note = uni0622;
unicode = 1570;
},
{
glyphname = uni0623;
layers = (
{
layerId = m01;
shapes = (
{
closed = 1;
nodes = (
(72,673,o),
(55,694,o),
(55,722,cs),
(55,749,o),
(70,769,o),
(100,769,cs),
(110,769,o),
(117,767,o),
(125,763,cs),
(132,760,o),
(135,757,o),
(139,755,cs),
(142,754,o),
(144,756,o),
(144,758,cs),
(144,772,o),
(124,791,o),
(93,791,cs),
(56,791,o),
(30,762,o),
(30,723,cs),
(30,695,o),
(41,680,o),
(47,672,c),
(35,671,o),
(20,664,o),
(17,651,cs),
(16,648,o),
(16,646,o),
(16,644,cs),
(16,642,o),
(17,641,o),
(18,641,cs),
(19,641,o),
(22,642,o),
(26,643,cs),
(48,650,o),
(59,651,o),
(83,651,cs),
(163,651,ls),
(165,651,o),
(165,652,o),
(165,653,cs),
(165,654,ls),
(165,661,o),
(162,673,o),
(147,673,cs),
(99,673,ls)
);
},
{
closed = 1;
nodes = (
(92,556,o),
(85,552,o),
(82,546,cs),
(78,538,o),
(78,529,o),
(78,521,cs),
(78,3,ls),
(78,1,o),
(78,0,o),
(80,0,cs),
(83,0,ls),
(90,0,o),
(96,4,o),
(99,9,cs),
(104,17,o),
(104,26,o),
(104,34,cs),
(104,553,ls),
(104,554,o),
(104,556,o),
(102,556,cs),
(99,556,ls)
);
}
);
width = 182;
}
);
note = uni0623;
unicode = 1571;
},
{
glyphname = uni0624;
layers = (
{
layerId = m01;
shapes = (
{
closed = 1;
nodes = (
(150,447,o),
(153,449,o),
(156,450,cs),
(178,457,o),
(190,458,o),
(213,458,cs),
(294,458,ls),
(295,458,o),
(296,458,o),
(296,459,cs),
(296,461,ls),
(296,468,o),
(292,479,o),
(278,479,cs),
(229,479,ls),
(202,479,o),
(186,501,o),
(186,529,cs),
(186,556,o),
(201,576,o),
(230,576,cs),
(240,576,o),
(248,574,o),
(255,570,cs),
(262,567,o),
(265,564,o),
(270,562,cs),
(272,561,o),
(274,562,o),
(274,564,cs),
(274,579,o),
(254,598,o),
(224,598,cs),
(186,598,o),
(161,568,o),
(161,529,cs),
(161,502,o),
(171,487,o),
(177,479,c),
(166,478,o),
(150,471,o),
(147,457,c),
(146,455,o),
(146,453,o),
(146,451,cs),
(146,448,o),
(147,447,o),
(149,447,cs)
);
},
{
closed = 1;
nodes = (
(333,324,o),
(291,360,o),
(222,360,cs),
(132,360,o),
(67,286,o),
(67,174,cs),
(67,72,o),
(123,-8,o),
(222,-9,cs),
(275,-11,o),
(319,5,o),
(356,28,c),
(355,-90,o),
(319,-191,o),
(204,-191,cs),
(153,-191,o),
(134,-184,o),
(106,-174,cs),
(103,-173,o),
(100,-173,o),
(98,-173,cs),
(91,-173,o),
(89,-177,o),
(90,-182,cs),
(91,-187,o),
(99,-192,o),
(107,-196,cs),
(132,-207,o),
(161,-214,o),
(204,-214,cs),
(268,-214,o),
(320,-188,o),
(347,-139,cs),
(383,-73,o),
(383,0,o),
(383,107,cs),
(382,166,o),
(374,229,o),
(357,268,cs)
);
},
{
closed = 1;
nodes = (
(140,14,o),
(93,86,o),
(93,174,cs),
(93,273,o),
(149,337,o),
(223,337,cs),
(276,337,o),
(309,307,o),
(330,263,cs),
(349,223,o),
(358,148,o),
(357,89,cs),
(357,77,o),
(356,67,o),
(356,57,c),
(318,27,o),
(274,14,o),
(223,14,cs)
);
}
);
width = 449;
}
);
note = uni0624;
unicode = 1572;
},
{
glyphname = uni0625;
layers = (
{
layerId = m01;
shapes = (
{
closed = 1;
nodes = (
(90,0,o),
(96,4,o),
(100,9,c),
(104,17,o),
(104,26,o),
(104,34,cs),
(104,553,ls),
(104,554,o),
(104,556,o),
(102,556,cs),
(99,556,ls),
(92,556,o),
(86,552,o),
(82,546,cs),
(78,538,o),
(78,529,o),
(78,521,cs),
(78,3,ls),
(78,1,o),
(78,0,o),
(80,0,cs),
(83,0,ls)
);
},
{
closed = 1;
nodes = (
(70,-204,o),
(53,-183,o),
(53,-154,cs),
(53,-128,o),
(68,-107,o),
(98,-107,cs),
(108,-107,o),
(115,-109,o),
(123,-113,cs),
(130,-117,o),
(133,-119,o),
(137,-122,c),
(140,-123,o),
(142,-121,o),
(142,-119,cs),
(142,-104,o),
(122,-86,o),
(91,-86,cs),
(54,-86,o),
(28,-115,o),
(28,-154,cs),
(28,-182,o),
(39,-197,o),
(45,-204,c),
(33,-206,o),
(18,-212,o),
(15,-226,c),
(14,-228,o),
(14,-231,o),
(14,-232,cs),
(14,-235,o),
(15,-236,o),
(16,-236,cs),
(17,-236,o),
(20,-234,o),
(24,-233,cs),
(46,-227,o),
(57,-226,o),
(81,-226,cs),
(161,-226,ls),
(163,-226,o),
(163,-225,o),
(163,-224,cs),
(163,-222,ls),
(163,-216,o),
(160,-204,o),
(145,-204,cs),
(97,-204,ls)
);
}
);
width = 182;
}
);
note = uni0625;
unicode = 1573;
},
{
glyphname = uni0626;
layers = (
{
layerId = m01;
shapes = (
{
closed = 1;
nodes = (
(71,309,o),
(74,311,o),
(78,312,cs),
(99,318,o),
(111,319,o),
(134,319,cs),
(215,319,ls),
(216,319,o),
(217,320,o),
(217,321,cs),
(217,323,ls),
(217,329,o),
(213,341,o),
(199,341,cs),
(150,341,ls),
(123,341,o),
(107,362,o),
(107,391,cs),
(107,417,o),
(122,438,o),
(151,438,cs),
(161,438,o),
(169,436,o),
(176,432,cs),
(183,428,o),
(186,426,o),
(191,423,cs),
(193,422,o),
(195,424,o),
(195,426,cs),
(195,441,o),
(175,459,o),
(145,459,cs),
(108,459,o),
(82,430,o),
(82,391,cs),
(82,363,o),
(93,348,o),
(98,341,c),
(87,339,o),
(71,333,o),
(68,319,c),
(68,317,o),
(68,314,o),
(68,313,cs),
(68,310,o),
(68,309,o),
(70,309,cs)
);
},
{
closed = 1;
nodes = (
(464,64,o),
(443,68,o),
(421,72,cs),
(362,84,o),
(307,126,o),
(307,200,cs),
(307,292,o),
(376,337,o),
(446,337,cs),
(499,337,o),
(523,325,o),
(540,315,cs),
(543,313,o),
(546,312,o),
(549,312,cs),
(553,312,o),
(556,315,o),
(556,319,cs),
(556,328,o),
(544,337,o),
(533,342,cs),
(516,351,o),
(493,360,o),
(445,360,cs),
(363,360,o),
(281,311,o),
(281,200,cs),
(281,117,o),
(337,69,o),
(404,52,cs),
(428,46,o),
(454,41,o),
(477,37,cs),
(528,28,o),
(569,17,o),
(561,-21,cs),
(538,-125,o),
(441,-191,o),
(330,-191,cs),
(208,-191,o),
(93,-104,o),
(93,40,cs),
(93,89,o),
(103,140,o),
(141,208,c),
(144,211,o),
(144,215,o),
(144,217,cs),
(144,222,o),
(140,224,o),
(136,224,cs),
(132,224,o),
(128,222,o),
(125,219,cs),
(90,174,o),
(67,107,o),
(67,33,cs),
(67,-109,o),
(178,-214,o),
(330,-214,cs),
(474,-214,o),
(570,-126,o),
(588,-19,cs),
(596,32,o),
(548,48,o),
(485,60,cs)
);
}
);
width = 650;
}
);
note = uni0626;
unicode = 1574;
},
{
glyphname = uni0627;
layers = (
{
layerId = m01;
shapes = (
{
closed = 1;
nodes = (
(90,0,o),
(96,4,o),
(100,9,c),
(104,17,o),
(104,26,o),
(104,34,cs),
(104,553,ls),
(104,554,o),
(104,556,o),
(102,556,cs),
(99,556,ls),
(92,556,o),
(86,552,o),
(82,546,cs),
(78,538,o),
(78,529,o),
(78,521,cs),
(78,3,ls),
(78,1,o),
(78,0,o),
(80,0,cs),
(83,0,ls)
);
}
);
width = 182;
}
);
note = uni0627;
unicode = 1575;
},
{
glyphname = uni0628;
layers = (
{
layerId = m01;
shapes = (
{
closed = 1;
nodes = (
(170,23,o),
(91,48,o),
(91,147,cs),
(91,187,o),
(105,231,o),
(145,276,cs),
(148,279,o),
(149,282,o),
(149,284,cs),
(149,289,o),
(146,293,o),
(141,293,cs),
(136,293,o),
(132,289,o),
(128,286,c),
(86,244,o),
(67,188,o),
(67,149,cs),
(67,34,o),
(144,0,o),
(251,0,cs),
(541,0,ls),
(618,0,o),
(672,48,o),
(672,143,cs),
(672,338,ls),
(672,340,o),
(672,341,o),
(670,341,cs),
(667,341,ls),
(660,341,o),
(654,337,o),
(650,332,c),
(646,324,o),
(646,315,o),
(646,307,cs),
(646,143,ls),
(646,73,o),
(611,23,o),
(543,23,cs),
(251,23,ls)
);
},
{
closed = 1;
nodes = (
(357,-79,o),
(345,-92,o),
(345,-108,cs),
(345,-124,o),
(357,-137,o),
(373,-137,cs),
(389,-137,o),
(401,-124,o),
(401,-108,cs),
(401,-92,o),
(389,-79,o),
(373,-79,cs)
);
}
);
width = 749;
}
);
note = uni0628;
unicode = 1576;
},
{
glyphname = uni0629;
layers = (
{
layerId = m01;
shapes = (
{
closed = 1;
nodes = (
(158,505,o),
(169,517,o),
(169,532,cs),
(169,546,o),
(158,558,o),
(144,558,cs),
(129,558,o),
(118,546,o),
(118,532,cs),
(118,517,o),
(129,505,o),
(144,505,cs)
);
},
{
closed = 1;
nodes = (
(243,505,o),
(254,517,o),
(254,532,cs),
(254,546,o),
(243,558,o),
(229,558,cs),
(214,558,o),
(203,546,o),
(203,532,cs),
(203,517,o),
(214,505,o),
(229,505,cs)
);
},
{
closed = 1;
nodes = (
(300,320,o),
(296,324,o),
(291,327,c),
(256,356,o),
(225,370,o),
(201,422,c),
(200,426,o),
(199,426,o),
(198,426,cs),
(197,426,o),
(195,426,o),
(193,424,c),
(185,419,o),
(181,402,o),
(195,382,cs),
(204,368,o),
(211,360,o),
(221,352,c),
(106,314,o),
(67,234,o),
(67,159,cs),
(67,62,o),
(128,-9,o),
(224,-9,cs),
(321,-9,o),
(381,62,o),
(381,159,cs),
(381,219,o),
(360,267,o),
(305,316,cs)
);
},
{
closed = 1;
nodes = (
(153,14,o),
(94,71,o),
(94,158,cs),
(94,229,o),
(126,299,o),
(242,333,c),
(274,307,o),
(283,302,o),
(305,278,cs),
(344,238,o),
(354,198,o),
(354,164,cs),
(356,70,o),
(297,14,o),
(224,14,cs)
);
}
);
width = 442;
}
);
note = uni0629;
unicode = 1577;
},
{
glyphname = uni062A;
layers = (
{
layerId = m01;
shapes = (
{
closed = 1;
nodes = (
(349,372,o),
(360,383,o),
(360,398,cs),
(360,413,o),
(349,424,o),
(335,424,cs),
(320,424,o),
(309,413,o),
(309,398,cs),
(309,383,o),
(320,372,o),
(335,372,cs)
);
},
{
closed = 1;
nodes = (
(434,372,o),
(445,383,o),
(445,398,cs),
(445,413,o),
(434,424,o),
(420,424,cs),
(405,424,o),
(394,413,o),
(394,398,cs),
(394,383,o),
(405,372,o),
(420,372,cs)
);
},
{
closed = 1;
nodes = (
(170,23,o),
(91,48,o),
(91,147,cs),
(91,187,o),
(105,231,o),
(145,276,cs),
(148,279,o),
(149,282,o),
(149,284,cs),
(149,289,o),
(146,293,o),
(141,293,cs),
(136,293,o),
(132,289,o),
(128,286,c),
(86,244,o),
(67,188,o),
(67,149,cs),
(67,34,o),
(144,0,o),
(251,0,cs),
(541,0,ls),
(618,0,o),
(672,48,o),
(672,143,cs),
(672,338,ls),
(672,340,o),
(672,341,o),
(670,341,cs),
(667,341,ls),
(660,341,o),
(654,337,o),
(650,332,c),
(646,324,o),
(646,315,o),
(646,307,cs),
(646,143,ls),
(646,73,o),
(611,23,o),
(543,23,cs),
(251,23,ls)
);
}
);
width = 749;
}
);
note = uni062A;
unicode = 1578;
},
{
glyphname = uni062B;
layers = (
{
layerId = m01;
shapes = (
{
closed = 1;
nodes = (
(392,441,o),
(404,452,o),
(404,467,cs),
(404,481,o),
(392,493,o),
(378,493,cs),
(363,493,o),
(351,481,o),
(351,467,cs),
(351,452,o),
(363,441,o),
(378,441,cs)
);
},
{
closed = 1;
nodes = (
(350,372,o),
(361,383,o),
(361,398,cs),
(361,413,o),
(350,424,o),
(335,424,cs),
(321,424,o),
(310,413,o),
(310,398,cs),
(310,383,o),
(321,372,o),
(335,372,cs)
);
},
{
closed = 1;
nodes = (
(435,372,o),
(446,383,o),
(446,398,cs),
(446,413,o),
(435,424,o),
(420,424,cs),
(406,424,o),
(395,413,o),
(395,398,cs),
(395,383,o),
(406,372,o),
(420,372,cs)
);
},
{
closed = 1;
nodes = (
(170,23,o),
(91,48,o),
(91,147,cs),
(91,187,o),
(105,231,o),
(145,276,cs),
(148,279,o),
(149,282,o),
(149,284,cs),
(149,289,o),
(146,293,o),
(141,293,cs),
(136,293,o),
(132,289,o),
(128,286,c),
(86,244,o),
(67,188,o),
(67,149,cs),
(67,34,o),
(144,0,o),
(251,0,cs),
(541,0,ls),
(618,0,o),
(672,48,o),
(672,143,cs),
(672,338,ls),
(672,340,o),
(672,341,o),
(670,341,cs),
(667,341,ls),
(660,341,o),
(654,337,o),
(650,332,c),
(646,324,o),
(646,315,o),
(646,307,cs),
(646,143,ls),
(646,73,o),
(611,23,o),
(543,23,cs),
(251,23,ls)
);
}
);
width = 749;
}
);
note = uni062B;
unicode = 1579;
},
{
glyphname = uni062C;
layers = (
{
layerId = m01;
shapes = (
{
closed = 1;
nodes = (
(321,-333,o),
(360,-323,o),
(400,-308,cs),
(420,-299,o),
(442,-287,o),
(461,-270,cs),
(468,-265,o),
(474,-259,o),
(475,-254,cs),
(476,-244,o),
(467,-243,o),
(458,-249,cs),
(454,-252,o),
(444,-260,o),
(426,-270,cs),
(371,-299,o),
(321,-309,o),
(260,-308,cs),
(146,-304,o),
(94,-230,o),
(94,-154,cs),
(94,-76,o),
(151,0,o),
(260,0,cs),
(535,0,ls),
(550,0,o),
(560,6,o),
(560,22,cs),
(560,23,o),
(559,23,o),
(558,23,cs),
(541,23,o),
(525,28,o),
(515,38,cs),
(487,68,o),
(468,117,o),
(449,198,cs),
(425,296,o),
(369,360,o),
(275,360,cs),
(236,360,o),
(212,350,o),
(186,337,cs),
(168,328,o),
(150,313,o),
(132,296,cs),
(126,289,o),
(121,283,o),
(120,277,cs),
(120,272,o),
(122,269,o),
(126,269,c),
(129,268,o),
(134,270,o),
(137,273,cs),
(141,278,o),
(148,283,o),
(153,287,cs),
(187,315,o),
(223,337,o),
(273,337,cs),
(353,337,o),
(398,282,o),
(422,195,cs),
(451,87,o),
(467,41,o),
(493,23,c),
(260,23,ls),
(133,23,o),
(67,-62,o),
(67,-154,cs),
(67,-244,o),
(130,-327,o),
(260,-331,cs)
);
},
{
closed = 1;
nodes = (
(306,-181,o),
(319,-167,o),
(319,-151,cs),
(319,-135,o),
(306,-122,o),
(290,-122,cs),
(274,-122,o),
(263,-135,o),
(263,-151,cs),
(263,-167,o),
(274,-181,o),
(290,-181,cs)
);
}
);
width = 615;
}
);
note = uni062C;
unicode = 1580;
},
{
glyphname = uni062D;
layers = (
{
layerId = m01;
shapes = (
{
closed = 1;
nodes = (
(321,-333,o),
(360,-323,o),
(400,-308,cs),
(420,-299,o),
(442,-287,o),
(461,-270,cs),
(468,-265,o),
(474,-259,o),
(475,-254,cs),
(476,-244,o),
(467,-243,o),
(458,-249,cs),
(454,-252,o),
(444,-260,o),
(426,-270,cs),
(371,-299,o),
(321,-309,o),
(260,-308,cs),
(146,-304,o),
(94,-230,o),
(94,-154,cs),
(94,-76,o),
(151,0,o),
(260,0,cs),
(535,0,ls),
(550,0,o),
(560,6,o),
(560,22,cs),
(560,23,o),
(559,23,o),
(558,23,cs),
(541,23,o),
(525,28,o),
(515,38,cs),
(487,68,o),
(468,117,o),
(449,198,cs),
(425,296,o),
(369,360,o),
(275,360,cs),
(236,360,o),
(212,350,o),
(186,337,cs),
(168,328,o),
(150,313,o),
(132,296,cs),
(126,289,o),
(121,283,o),
(120,277,cs),
(120,272,o),
(122,269,o),
(126,269,c),
(129,268,o),
(134,270,o),
(137,273,cs),
(141,278,o),
(148,283,o),
(153,287,cs),
(187,315,o),
(223,337,o),
(273,337,cs),
(353,337,o),
(398,282,o),
(422,195,cs),
(451,87,o),
(467,41,o),
(493,23,c),
(260,23,ls),
(133,23,o),
(67,-62,o),
(67,-154,cs),
(67,-244,o),
(130,-327,o),
(260,-331,cs)
);
}
);
width = 615;
}
);
note = uni062D;
unicode = 1581;
},
{
glyphname = uni062E;
layers = (
{
layerId = m01;
shapes = (
{
closed = 1;
nodes = (
(263,495,o),
(251,482,o),
(251,466,cs),
(251,450,o),
(263,437,o),
(279,437,cs),
(295,437,o),
(308,450,o),
(308,466,cs),
(308,482,o),
(295,495,o),
(279,495,cs)
);
},
{
closed = 1;
nodes = (
(321,-333,o),
(360,-323,o),
(400,-308,cs),
(420,-299,o),
(442,-287,o),
(461,-270,cs),
(468,-265,o),
(474,-259,o),
(475,-254,cs),
(476,-244,o),
(467,-243,o),
(458,-249,cs),
(454,-252,o),
(444,-260,o),
(426,-270,cs),
(371,-299,o),
(321,-309,o),
(260,-308,cs),
(146,-304,o),
(94,-230,o),
(94,-154,cs),
(94,-76,o),
(151,0,o),
(260,0,cs),
(535,0,ls),
(550,0,o),
(560,6,o),
(560,22,cs),
(560,23,o),
(559,23,o),
(558,23,cs),
(541,23,o),
(525,28,o),
(515,38,cs),
(487,68,o),
(468,117,o),
(449,198,cs),
(425,296,o),
(369,360,o),
(275,360,cs),
(236,360,o),
(212,350,o),
(186,337,cs),
(168,328,o),
(150,313,o),
(132,296,cs),
(126,289,o),
(121,283,o),
(120,277,cs),
(120,272,o),
(122,269,o),
(126,269,c),
(129,268,o),
(134,270,o),
(137,273,cs),
(141,278,o),
(148,283,o),
(153,287,cs),
(187,315,o),
(223,337,o),
(273,337,cs),
(353,337,o),
(398,282,o),
(422,195,cs),
(451,87,o),
(467,41,o),
(493,23,c),
(260,23,ls),
(133,23,o),
(67,-62,o),
(67,-154,cs),
(67,-244,o),
(130,-327,o),
(260,-331,cs)
);
}
);
width = 615;
}
);
note = uni062E;
unicode = 1582;
},
{
glyphname = uni062F;
layers = (
{
layerId = m01;
shapes = (
{
closed = 1;
nodes = (
(283,0,o),
(343,58,o),
(343,168,cs),
(343,278,o),
(295,360,o),
(199,360,cs),
(175,360,o),
(155,354,o),
(139,347,cs),
(126,341,o),
(118,334,o),
(117,328,c),
(115,323,o),
(118,318,o),
(123,318,cs),
(126,318,o),
(128,319,o),
(132,321,cs),
(149,329,o),
(171,337,o),
(198,337,cs),
(276,337,o),
(317,273,o),
(317,168,cs),
(317,79,o),
(270,23,o),
(194,23,cs),
(89,23,ls),
(69,23,o),
(61,11,o),
(61,3,cs),
(61,2,ls),
(61,1,o),
(62,0,o),
(63,0,cs),
(198,0,ls)
);
}
);
width = 410;
}
);
note = uni062F;
unicode = 1583;
},
{
glyphname = uni0630;
layers = (
{
layerId = m01;
shapes = (
{
closed = 1;
nodes = (
(128,489,o),
(117,477,o),
(117,461,cs),
(117,444,o),
(128,431,o),
(144,431,cs),
(160,431,o),
(173,444,o),
(173,461,cs),
(173,477,o),
(160,489,o),
(144,489,cs)
);
},
{
closed = 1;
nodes = (
(283,0,o),
(343,58,o),
(343,168,cs),
(343,278,o),
(295,360,o),
(199,360,cs),
(175,360,o),
(155,354,o),
(139,347,cs),
(126,341,o),
(118,334,o),
(117,328,c),
(115,323,o),
(118,318,o),
(123,318,cs),
(126,318,o),
(128,319,o),
(132,321,cs),
(149,329,o),
(171,337,o),
(198,337,cs),
(276,337,o),
(317,273,o),
(317,168,cs),
(317,79,o),
(270,23,o),
(194,23,cs),
(89,23,ls),
(69,23,o),
(61,11,o),
(61,3,cs),
(61,2,ls),
(61,1,o),
(62,0,o),
(63,0,cs),
(198,0,ls)
);
}
);
width = 410;
}
);
note = uni0630;
unicode = 1584;
},
{
glyphname = uni0631;
layers = (
{
layerId = m01;
shapes = (
{
closed = 1;
nodes = (
(-21,-191,o),
(-38,-185,o),
(-67,-175,cs),
(-70,-174,o),
(-72,-173,o),
(-75,-173,cs),
(-81,-173,o),
(-84,-178,o),
(-83,-183,cs),
(-82,-188,o),
(-73,-192,o),
(-66,-197,c),
(-41,-208,o),
(-17,-214,o),
(13,-214,cs),
(123,-214,o),
(159,-129,o),
(159,-11,cs),
(159,338,ls),
(159,340,o),
(159,341,o),
(157,341,cs),
(154,341,ls),
(147,341,o),
(141,337,o),
(138,332,cs),
(133,324,o),
(133,315,o),
(133,307,cs),
(133,-21,ls),
(133,-119,o),
(99,-189,o),
(14,-191,cs)
);
}
);
width = 237;
}
);
note = uni0631;
unicode = 1585;
},
{
glyphname = uni0632;
layers = (
{
layerId = m01;
shapes = (
{
closed = 1;
nodes = (
(130,477,o),
(118,464,o),
(118,448,cs),
(118,432,o),
(130,419,o),
(146,419,cs),
(162,419,o),
(174,432,o),
(174,448,cs),
(174,464,o),
(162,477,o),
(146,477,cs)
);
},
{
closed = 1;
nodes = (
(-21,-191,o),
(-38,-185,o),
(-67,-175,cs),
(-70,-174,o),
(-72,-173,o),
(-75,-173,cs),
(-81,-173,o),
(-84,-178,o),
(-83,-183,cs),
(-82,-188,o),
(-73,-192,o),
(-66,-197,c),
(-41,-208,o),
(-17,-214,o),
(13,-214,cs),
(123,-214,o),
(159,-129,o),
(159,-11,cs),
(159,338,ls),
(159,340,o),
(159,341,o),
(157,341,cs),
(154,341,ls),
(147,341,o),
(141,337,o),
(138,332,cs),
(133,324,o),
(133,315,o),
(133,307,cs),
(133,-21,ls),
(133,-119,o),
(99,-189,o),
(14,-191,cs)
);
}
);
width = 237;
}
);
note = uni0632;
unicode = 1586;
},
{
glyphname = uni0633;
layers = (
{
layerId = m01;
shapes = (
{
closed = 1;
nodes = (
(976,341,o),
(970,337,o),
(967,332,cs),
(963,324,o),
(963,315,o),
(963,307,cs),
(963,133,ls),
(963,64,o),
(928,14,o),
(860,14,cs),
(792,14,o),
(757,64,o),
(757,133,cs),
(757,316,ls),
(757,318,o),
(757,319,o),
(755,319,cs),
(752,319,ls),
(745,319,o),
(739,315,o),
(735,309,cs),
(731,302,o),
(731,293,o),
(731,284,cs),
(731,133,ls),
(731,64,o),
(696,14,o),
(628,14,cs),
(560,14,o),
(525,64,o),
(525,133,cs),
(525,294,ls),
(525,296,o),
(525,297,o),
(523,297,cs),
(520,297,ls),
(513,297,o),
(507,293,o),
(504,287,cs),
(499,279,o),
(499,271,o),
(499,262,cs),
(499,36,ls),
(499,-132,o),
(378,-191,o),
(297,-191,cs),
(210,-191,o),
(90,-132,o),
(94,36,cs),
(95,81,o),
(105,138,o),
(148,208,c),
(149,211,o),
(150,214,o),
(150,216,cs),
(151,222,o),
(146,224,o),
(143,224,cs),
(138,224,o),
(134,222,o),
(131,219,cs),
(95,176,o),
(69,98,o),
(68,28,cs),
(67,-138,o),
(181,-214,o),
(297,-214,cs),
(413,-214,o),
(525,-138,o),
(525,28,cs),
(525,39,l),
(548,7,o),
(585,-9,o),
(628,-9,cs),
(681,-9,o),
(724,15,o),
(744,62,c),
(764,15,o),
(807,-9,o),
(860,-9,cs),
(934,-9,o),
(989,39,o),
(989,133,cs),
(989,338,ls),
(989,340,o),
(989,341,o),
(986,341,cs),
(984,341,ls)
);
}
);
width = 1065;
}
);
note = uni0633;
unicode = 1587;
},
{
glyphname = uni0634;
layers = (
{
layerId = m01;
shapes = (
{
closed = 1;
nodes = (
(760,469,o),
(771,480,o),
(771,494,cs),
(771,509,o),
(760,521,o),
(745,521,cs),
(731,521,o),
(719,509,o),
(719,494,cs),
(719,480,o),
(731,469,o),
(745,469,cs)
);
},
{
closed = 1;
nodes = (
(718,399,o),
(729,411,o),
(729,426,cs),
(729,441,o),
(718,452,o),
(703,452,cs),
(689,452,o),
(678,441,o),
(678,426,cs),
(678,411,o),
(689,399,o),
(703,399,cs)
);
},
{
closed = 1;
nodes = (
(763,411,o),
(774,399,o),
(788,399,cs),
(803,399,o),
(814,411,o),
(814,426,cs),
(814,441,o),
(803,452,o),
(788,452,cs),
(774,452,o),
(763,441,o),
(763,426,cs)
);
},
{
closed = 1;
nodes = (
(976,341,o),
(970,337,o),
(967,332,cs),
(963,324,o),
(963,315,o),
(963,307,cs),
(963,133,ls),
(963,64,o),
(928,14,o),
(860,14,cs),
(792,14,o),
(757,64,o),
(757,133,cs),
(757,316,ls),
(757,318,o),
(757,319,o),
(755,319,cs),
(752,319,ls),
(745,319,o),
(739,315,o),
(735,309,cs),
(731,302,o),
(731,293,o),
(731,284,cs),
(731,133,ls),
(731,64,o),
(696,14,o),
(628,14,cs),
(560,14,o),
(525,64,o),
(525,133,cs),
(525,294,ls),
(525,296,o),
(525,297,o),
(523,297,cs),
(520,297,ls),
(513,297,o),
(507,293,o),
(504,287,cs),
(499,279,o),
(499,271,o),
(499,262,cs),
(499,36,ls),
(499,-132,o),
(378,-191,o),
(297,-191,cs),
(210,-191,o),
(90,-132,o),
(94,36,cs),
(95,81,o),
(105,138,o),
(148,208,c),
(149,211,o),
(150,214,o),
(150,216,cs),
(151,222,o),
(146,224,o),
(143,224,cs),
(138,224,o),
(134,222,o),
(131,219,cs),
(95,176,o),
(69,98,o),
(68,28,cs),
(67,-138,o),
(181,-214,o),
(297,-214,cs),
(413,-214,o),
(525,-138,o),
(525,28,cs),
(525,39,l),
(548,7,o),
(585,-9,o),
(628,-9,cs),
(681,-9,o),
(724,15,o),
(744,62,c),
(764,15,o),
(807,-9,o),
(860,-9,cs),
(934,-9,o),
(989,39,o),
(989,133,cs),
(989,338,ls),
(989,340,o),
(989,341,o),
(986,341,cs),
(984,341,ls)
);
}
);
width = 1065;
}
);
note = uni0634;
unicode = 1588;
},
{
glyphname = uni0635;
layers = (
{
layerId = m01;
shapes = (
{
closed = 1;
nodes = (
(781,360,o),
(665,196,o),
(631,23,c),
(628,23,ls),
(560,23,o),
(525,73,o),
(525,143,cs),
(525,338,ls),
(525,340,o),
(525,341,o),
(523,341,cs),
(520,341,ls),
(513,341,o),
(507,337,o),
(504,332,cs),
(499,324,o),
(499,315,o),
(499,307,cs),
(499,36,ls),
(499,-132,o),
(378,-191,o),
(297,-191,cs),
(210,-191,o),
(90,-132,o),
(94,36,cs),
(95,81,o),
(105,138,o),
(148,208,c),
(149,211,o),
(150,214,o),
(150,216,cs),
(151,222,o),
(146,224,o),
(143,224,cs),
(138,224,o),
(134,222,o),
(131,219,cs),
(95,176,o),
(69,98,o),
(68,28,cs),
(67,-138,o),
(181,-214,o),
(297,-214,cs),
(413,-214,o),
(525,-138,o),
(525,28,cs),
(525,48,l),
(549,17,o),
(586,0,o),
(630,0,cs),
(1008,0,ls),
(1093,0,o),
(1161,63,o),
(1161,172,cs),
(1161,301,o),
(1065,360,o),
(968,360,cs)
);
},
{
closed = 1;
nodes = (
(689,185,o),
(803,337,o),
(969,337,cs),
(1052,337,o),
(1133,286,o),
(1135,172,cs),
(1136,84,o),
(1080,23,o),
(1004,23,cs),
(659,23,l)
);
}
);
width = 1226;
}
);
note = uni0635;
unicode = 1589;
},
{
glyphname = uni0636;
layers = (
{
layerId = m01;
shapes = (
{
closed = 1;
nodes = (
(964,437,o),
(976,450,o),
(976,466,cs),
(976,482,o),
(964,495,o),
(948,495,cs),
(932,495,o),
(920,482,o),
(920,466,cs),
(920,450,o),
(932,437,o),
(948,437,cs)
);
},
{
closed = 1;
nodes = (
(781,360,o),
(665,196,o),
(631,23,c),
(628,23,ls),
(560,23,o),
(525,73,o),
(525,143,cs),
(525,338,ls),
(525,340,o),
(525,341,o),
(523,341,cs),
(520,341,ls),
(513,341,o),
(507,337,o),
(504,332,cs),
(499,324,o),
(499,315,o),
(499,307,cs),
(499,36,ls),
(499,-132,o),
(378,-191,o),
(297,-191,cs),
(210,-191,o),
(90,-132,o),
(94,36,cs),
(95,81,o),
(105,138,o),
(148,208,c),
(149,211,o),
(150,214,o),
(150,216,cs),
(151,222,o),
(146,224,o),
(143,224,cs),
(138,224,o),
(134,222,o),
(131,219,cs),
(95,176,o),
(69,98,o),
(68,28,cs),
(67,-138,o),
(181,-214,o),
(297,-214,cs),
(413,-214,o),
(525,-138,o),
(525,28,cs),
(525,48,l),
(549,17,o),
(586,0,o),
(630,0,cs),
(1008,0,ls),
(1093,0,o),
(1161,63,o),
(1161,172,cs),
(1161,301,o),
(1065,360,o),
(968,360,cs)
);
},
{
closed = 1;
nodes = (
(689,185,o),
(803,337,o),
(969,337,cs),
(1052,337,o),
(1133,286,o),
(1135,172,cs),
(1136,84,o),
(1080,23,o),
(1004,23,cs),
(659,23,l)
);
}
);
width = 1226;
}
);
note = uni0636;
unicode = 1590;
},
{
glyphname = uni0637;
layers = (
{
layerId = m01;
shapes = (
{
closed = 1;
nodes = (
(376,360,o),
(270,252,o),
(218,119,c),
(218,553,ls),
(218,554,o),
(218,556,o),
(216,556,cs),
(213,556,ls),
(206,556,o),
(200,552,o),
(197,546,cs),
(192,538,o),
(192,529,o),
(192,521,cs),
(192,23,l),
(89,23,ls),
(69,23,o),
(61,11,o),
(61,3,cs),
(61,2,ls),
(61,1,o),
(62,0,o),
(63,0,cs),
(567,0,ls),
(652,0,o),
(720,63,o),
(720,172,cs),
(720,301,o),
(624,360,o),
(527,360,cs)
);
},
{
closed = 1;
nodes = (
(248,185,o),
(362,337,o),
(528,337,cs),
(611,337,o),
(692,286,o),
(694,172,cs),
(695,84,o),
(639,23,o),
(563,23,cs),
(218,23,l)
);
}
);
width = 787;
}
);
note = uni0637;
unicode = 1591;
},
{
glyphname = uni0638;
layers = (
{
layerId = m01;
shapes = (
{
closed = 1;
nodes = (
(376,360,o),
(270,252,o),
(218,119,c),
(218,553,ls),
(218,554,o),
(218,556,o),
(216,556,cs),
(213,556,ls),
(206,556,o),
(200,552,o),
(197,546,cs),
(192,538,o),
(192,529,o),
(192,521,cs),
(192,23,l),
(89,23,ls),
(69,23,o),
(61,11,o),
(61,3,cs),
(61,2,ls),
(61,1,o),
(62,0,o),
(63,0,cs),
(567,0,ls),
(652,0,o),
(720,63,o),
(720,172,cs),
(720,301,o),
(624,360,o),
(527,360,cs)
);
},
{
closed = 1;
nodes = (
(523,437,o),
(535,450,o),
(535,466,cs),
(535,482,o),
(523,495,o),
(507,495,cs),
(490,495,o),
(479,482,o),
(479,466,cs),
(479,450,o),
(490,437,o),
(507,437,cs)
);
},
{
closed = 1;
nodes = (
(248,185,o),
(362,337,o),
(528,337,cs),
(611,337,o),
(692,286,o),
(694,172,cs),
(695,84,o),
(639,23,o),
(563,23,cs),
(218,23,l)
);
}
);
width = 787;
}
);
note = uni0638;
unicode = 1592;
},
{
glyphname = uni0639;
layers = (
{
layerId = m01;
shapes = (
{
closed = 1;
nodes = (
(416,-276,o),
(393,-287,o),
(369,-294,cs),
(337,-304,o),
(306,-309,o),
(263,-308,cs),
(145,-303,o),
(94,-229,o),
(94,-154,cs),
(94,-76,o),
(151,0,o),
(260,0,cs),
(456,0,ls),
(458,0,o),
(458,1,o),
(458,2,cs),
(458,3,ls),
(458,11,o),
(450,23,o),
(430,23,cs),
(281,23,ls),
(180,23,o),
(136,110,o),
(136,177,cs),
(136,281,o),
(208,337,o),
(288,337,cs),
(343,336,o),
(370,323,o),
(388,314,cs),
(391,312,o),
(394,311,o),
(396,311,cs),
(402,311,o),
(405,316,o),
(403,321,cs),
(396,338,o),
(351,360,o),
(291,360,cs),
(197,360,o),
(110,302,o),
(110,177,cs),
(110,115,o),
(144,44,o),
(200,16,c),
(113,-6,o),
(67,-78,o),
(67,-154,cs),
(67,-243,o),
(129,-328,o),
(263,-331,cs),
(305,-332,o),
(340,-327,o),
(376,-316,cs),
(400,-307,o),
(423,-298,o),
(445,-281,cs),
(451,-276,o),
(458,-270,o),
(459,-265,cs),
(460,-256,o),
(451,-254,o),
(441,-261,cs)
);
}
);
width = 525;
}
);
note = uni0639;
unicode = 1593;
},
{
glyphname = uni063A;
layers = (
{
layerId = m01;
shapes = (
{
closed = 1;
nodes = (
(299,437,o),
(311,450,o),
(311,466,cs),
(311,482,o),
(299,495,o),
(283,495,cs),
(266,495,o),
(255,482,o),
(255,466,cs),
(255,450,o),
(266,437,o),
(283,437,cs)
);
},
{
closed = 1;
nodes = (
(416,-276,o),
(393,-287,o),
(369,-294,cs),
(337,-304,o),
(306,-309,o),
(263,-308,cs),
(145,-303,o),
(94,-229,o),
(94,-154,cs),
(94,-76,o),
(151,0,o),
(260,0,cs),
(456,0,ls),
(458,0,o),
(458,1,o),
(458,2,cs),
(458,3,ls),
(458,11,o),
(450,23,o),
(430,23,cs),
(281,23,ls),
(180,23,o),
(136,110,o),
(136,177,cs),
(136,281,o),
(208,337,o),
(288,337,cs),
(343,336,o),
(370,323,o),
(388,314,cs),
(391,312,o),
(394,311,o),
(396,311,cs),
(402,311,o),
(405,316,o),
(403,321,cs),
(396,338,o),
(351,360,o),
(291,360,cs),
(197,360,o),
(110,302,o),
(110,177,cs),
(110,115,o),
(144,44,o),
(200,16,c),
(113,-6,o),
(67,-78,o),
(67,-154,cs),
(67,-243,o),
(129,-328,o),
(263,-331,cs),
(305,-332,o),
(340,-327,o),
(376,-316,cs),
(400,-307,o),
(423,-298,o),
(445,-281,cs),
(451,-276,o),
(458,-270,o),
(459,-265,cs),
(460,-256,o),
(451,-254,o),
(441,-261,cs)
);
}
);
width = 525;
}
);
note = uni063A;
unicode = 1594;
},
{
glyphname = uni0640;
layers = (
{
layerId = m01;
shapes = (
{
closed = 1;
nodes = (
(-6,0,l),
(110,0,l),
(110,23,l),
(-6,23,l)
);
}
);
width = 104;
}
);
note = uni0640;
unicode = 1600;
},
{
glyphname = uni0641;
layers = (
{
layerId = m01;
shapes = (
{
closed = 1;
nodes = (
(650,437,o),
(662,450,o),
(662,466,cs),
(662,482,o),
(650,495,o),
(634,495,cs),
(618,495,o),
(606,482,o),
(606,466,cs),
(606,450,o),
(618,437,o),
(634,437,cs)
);
},
{
closed = 1;
nodes = (
(535,360,o),
(474,279,o),
(474,179,cs),
(474,112,o),
(501,54,o),
(548,23,c),
(251,23,ls),
(170,23,o),
(91,48,o),
(91,147,cs),
(91,187,o),
(105,231,o),
(145,276,cs),
(148,279,o),
(149,282,o),
(149,284,cs),
(149,289,o),
(146,293,o),
(141,293,cs),
(136,293,o),
(132,289,o),
(128,286,c),
(86,244,o),
(67,188,o),
(67,149,cs),
(67,34,o),
(144,0,o),
(251,0,cs),
(635,0,l),
(726,3,o),
(785,81,o),
(785,179,cs),
(785,279,o),
(724,360,o),
(629,360,cs)
);
},
{
closed = 1;
nodes = (
(551,23,o),
(500,91,o),
(500,178,cs),
(500,267,o),
(551,337,o),
(629,337,cs),
(708,337,o),
(759,267,o),
(759,178,cs),
(759,91,o),
(708,23,o),
(629,23,cs)
);
}
);
width = 851;
}
);
note = uni0641;
unicode = 1601;
},
{
glyphname = uni0642;
layers = (
{
layerId = m01;
shapes = (
{
closed = 1;
nodes = (
(408,440,o),
(419,452,o),
(419,467,cs),
(419,481,o),
(408,493,o),
(394,493,cs),
(379,493,o),
(368,481,o),
(368,467,cs),
(368,452,o),
(379,440,o),
(394,440,cs)
);
},
{
closed = 1;
nodes = (
(493,440,o),
(504,452,o),
(504,467,cs),
(504,481,o),
(493,493,o),
(479,493,cs),
(464,493,o),
(453,481,o),
(453,467,cs),
(453,452,o),
(464,440,o),
(479,440,cs)
);
},
{
closed = 1;
nodes = (
(545,324,o),
(504,360,o),
(435,360,cs),
(345,360,o),
(280,286,o),
(280,174,cs),
(280,72,o),
(336,-8,o),
(435,-9,cs),
(488,-11,o),
(530,4,o),
(568,27,c),
(565,-4,o),
(559,-30,o),
(549,-55,cs),
(514,-139,o),
(432,-191,o),
(334,-191,cs),
(210,-191,o),
(96,-106,o),
(94,36,cs),
(94,87,o),
(103,138,o),
(143,208,c),
(144,211,o),
(145,214,o),
(145,216,cs),
(146,222,o),
(141,224,o),
(138,224,cs),
(133,224,o),
(129,222,o),
(126,219,c),
(91,173,o),
(67,104,o),
(68,28,cs),
(70,-112,o),
(181,-214,o),
(334,-214,cs),
(446,-214,o),
(539,-159,o),
(577,-59,cs),
(589,-28,o),
(593,3,o),
(595,44,cs),
(600,116,o),
(594,214,o),
(570,268,cs)
);
},
{
closed = 1;
nodes = (
(353,14,o),
(306,86,o),
(306,174,cs),
(306,273,o),
(362,337,o),
(436,337,cs),
(489,337,o),
(522,307,o),
(543,263,cs),
(562,223,o),
(570,148,o),
(570,89,cs),
(570,77,o),
(569,67,o),
(569,57,c),
(531,27,o),
(486,14,o),
(436,14,cs)
);
}
);
width = 662;
}
);
note = uni0642;
unicode = 1602;
},
{
glyphname = uni0643;
layers = (
{
layerId = m01;
shapes = (
{
closed = 1;
nodes = (
(660,556,o),
(654,552,o),
(650,546,cs),
(646,538,o),
(646,529,o),
(646,521,cs),
(646,143,ls),
(646,73,o),
(611,23,o),
(543,23,cs),
(251,23,ls),
(170,23,o),
(91,48,o),
(91,147,cs),
(91,187,o),
(105,231,o),
(145,276,cs),
(148,279,o),
(149,282,o),
(149,284,cs),
(149,289,o),
(146,293,o),
(141,293,cs),
(136,293,o),
(132,289,o),
(128,286,c),
(86,244,o),
(67,188,o),
(67,149,cs),
(67,34,o),
(144,0,o),
(251,0,cs),
(541,0,ls),
(618,0,o),
(672,48,o),
(672,143,cs),
(672,553,ls),
(672,554,o),
(672,556,o),
(670,556,cs),
(667,556,ls)
);
},
{
closed = 1;
nodes = (
(303,266,o),
(305,267,o),
(309,268,cs),
(330,275,o),
(355,276,o),
(381,276,cs),
(471,276,ls),
(473,276,o),
(474,277,o),
(474,278,cs),
(474,279,ls),
(474,286,o),
(470,298,o),
(455,298,cs),
(397,298,ls),
(365,298,o),
(344,319,o),
(344,353,cs),
(344,385,o),
(365,406,o),
(399,406,cs),
(413,406,o),
(425,402,o),
(433,399,cs),
(439,396,o),
(444,393,o),
(449,391,cs),
(451,390,o),
(453,392,o),
(452,394,c),
(449,408,o),
(430,427,o),
(394,427,cs),
(351,427,o),
(319,398,o),
(319,353,cs),
(319,322,o),
(331,306,o),
(339,298,c),
(333,297,o),
(325,296,o),
(318,294,cs),
(304,289,o),
(300,280,o),
(299,276,cs),
(299,273,o),
(299,271,o),
(299,269,cs),
(299,267,o),
(300,266,o),
(301,266,cs)
);
}
);
width = 749;
}
);
note = uni0643;
unicode = 1603;
},
{
glyphname = uni0644;
layers = (
{
layerId = m01;
shapes = (
{
closed = 1;
nodes = (
(413,-214,o),
(525,-138,o),
(525,28,cs),
(525,553,ls),
(525,554,o),
(525,556,o),
(523,556,cs),
(520,556,ls),
(513,556,o),
(507,552,o),
(504,546,cs),
(499,538,o),
(499,529,o),
(499,521,cs),
(499,36,ls),
(499,-132,o),
(378,-191,o),
(297,-191,cs),
(210,-191,o),
(90,-132,o),
(94,36,cs),
(95,81,o),
(105,138,o),
(148,208,c),
(149,211,o),
(150,214,o),
(150,216,cs),
(151,222,o),
(146,224,o),
(143,224,cs),
(138,224,o),
(134,222,o),
(131,219,cs),
(95,176,o),
(69,98,o),
(68,28,cs),
(67,-138,o),
(181,-214,o),
(297,-214,cs)
);
}
);
width = 602;
}
);
note = uni0644;
unicode = 1604;
},
{
glyphname = uni0645;
layers = (
{
layerId = m01;
shapes = (
{
closed = 1;
nodes = (
(281,360,o),
(240,235,o),
(193,137,cs),
(183,114,o),
(175,94,o),
(166,79,c),
(102,73,o),
(54,29,o),
(54,-72,cs),
(54,-284,ls),
(54,-286,o),
(54,-287,o),
(56,-287,cs),
(59,-287,ls),
(66,-287,o),
(72,-283,o),
(76,-278,c),
(80,-270,o),
(80,-261,o),
(80,-253,cs),
(80,-72,ls),
(80,11,o),
(117,51,o),
(173,57,cs),
(174,57,l),
(233,20,o),
(311,-9,o),
(394,-9,cs),
(465,-9,o),
(528,21,o),
(528,143,cs),
(528,283,o),
(467,360,o),
(378,360,cs)
);
},
{
closed = 1;
nodes = (
(341,14,o),
(261,33,o),
(193,75,c),
(202,92,o),
(211,111,o),
(221,135,cs),
(273,255,o),
(316,337,o),
(378,337,cs),
(439,337,o),
(502,292,o),
(502,143,cs),
(502,28,o),
(438,14,o),
(393,14,cs)
);
}
);
width = 595;
}
);
note = uni0645;
unicode = 1605;
},
{
glyphname = uni0646;
layers = (
{
layerId = m01;
shapes = (
{
closed = 1;
nodes = (
(296,376,o),
(284,363,o),
(284,347,cs),
(284,331,o),
(296,318,o),
(312,318,cs),
(328,318,o),
(340,331,o),
(340,347,cs),
(340,363,o),
(328,376,o),
(312,376,cs)
);
},
{
closed = 1;
nodes = (
(413,-214,o),
(525,-138,o),
(525,28,cs),
(525,338,ls),
(525,340,o),
(525,341,o),
(523,341,cs),
(520,341,ls),
(513,341,o),
(507,337,o),
(504,332,cs),
(499,324,o),
(499,315,o),
(499,307,cs),
(499,36,ls),
(499,-132,o),
(378,-191,o),
(297,-191,cs),
(210,-191,o),
(90,-132,o),
(94,36,cs),
(95,81,o),
(105,138,o),
(148,208,c),
(149,211,o),
(150,214,o),
(150,216,cs),
(151,222,o),
(146,224,o),
(143,224,cs),
(138,224,o),
(134,222,o),
(131,219,cs),
(95,176,o),
(69,98,o),
(68,28,cs),
(67,-138,o),
(181,-214,o),
(297,-214,cs)
);
}
);
width = 602;
}
);
note = uni0646;
unicode = 1606;
},
{
glyphname = uni0647;
layers = (
{
layerId = m01;
shapes = (
{
closed = 1;
nodes = (
(300,320,o),
(296,324,o),
(291,327,c),
(256,356,o),
(225,370,o),
(201,422,c),
(200,426,o),
(199,426,o),
(198,426,cs),
(197,426,o),
(195,426,o),
(193,424,c),
(185,419,o),
(181,402,o),
(195,382,cs),
(204,368,o),
(211,360,o),
(221,352,c),
(106,314,o),
(67,234,o),
(67,159,cs),
(67,62,o),
(128,-9,o),
(224,-9,cs),
(321,-9,o),
(381,62,o),
(381,159,cs),
(381,219,o),
(360,267,o),
(305,316,cs)
);
},
{
closed = 1;
nodes = (
(153,14,o),
(94,71,o),
(94,158,cs),
(94,229,o),
(126,299,o),
(242,333,c),
(274,307,o),
(283,302,o),
(305,278,cs),
(344,238,o),
(354,198,o),
(354,164,cs),
(356,70,o),
(297,14,o),
(224,14,cs)
);
}
);
width = 448;
}
);
note = uni0647;
unicode = 1607;
},
{
glyphname = uni0648;
layers = (
{
layerId = m01;
shapes = (
{
closed = 1;
nodes = (
(333,324,o),
(291,360,o),
(222,360,cs),
(132,360,o),
(67,286,o),
(67,174,cs),
(67,72,o),
(123,-8,o),
(222,-9,cs),
(275,-11,o),
(319,5,o),
(356,28,c),
(355,-90,o),
(319,-191,o),
(204,-191,cs),
(153,-191,o),
(134,-184,o),
(106,-174,cs),
(103,-173,o),
(100,-173,o),
(98,-173,cs),
(91,-173,o),
(89,-177,o),
(90,-182,cs),
(91,-187,o),
(99,-192,o),
(107,-196,cs),
(132,-207,o),
(161,-214,o),
(204,-214,cs),
(268,-214,o),
(320,-188,o),
(347,-139,cs),
(383,-73,o),
(383,0,o),
(383,107,cs),
(382,166,o),
(374,229,o),
(357,268,cs)
);
},
{
closed = 1;
nodes = (
(140,14,o),
(93,86,o),
(93,174,cs),
(93,273,o),
(149,337,o),
(223,337,cs),
(276,337,o),
(309,307,o),
(330,263,cs),
(349,223,o),
(358,148,o),
(357,89,cs),
(357,77,o),
(356,67,o),
(356,57,c),
(318,27,o),
(274,14,o),
(223,14,cs)
);
}
);
width = 449;
}
);
note = uni0648;
unicode = 1608;
},
{
glyphname = uni0649;
layers = (
{
layerId = m01;
shapes = (
{
closed = 1;
nodes = (
(474,-214,o),
(570,-126,o),
(588,-19,cs),
(596,32,o),
(548,48,o),
(485,60,cs),
(464,64,o),
(443,68,o),
(421,72,cs),
(362,84,o),
(307,126,o),
(307,200,cs),
(307,292,o),
(376,337,o),
(446,337,cs),
(499,337,o),
(523,325,o),
(540,315,cs),
(543,313,o),
(546,312,o),
(549,312,cs),
(553,312,o),
(556,315,o),
(556,319,cs),
(556,328,o),
(544,337,o),
(533,342,cs),
(516,351,o),
(493,360,o),
(445,360,cs),
(363,360,o),
(281,311,o),
(281,200,cs),
(281,117,o),
(337,69,o),
(404,52,cs),
(428,46,o),
(454,41,o),
(477,37,cs),
(528,28,o),
(569,17,o),
(561,-21,cs),
(538,-125,o),
(441,-191,o),
(330,-191,cs),
(208,-191,o),
(93,-104,o),
(93,40,cs),
(93,89,o),
(103,140,o),
(141,208,c),
(144,211,o),
(144,215,o),
(144,217,cs),
(144,222,o),
(140,224,o),
(136,224,cs),
(132,224,o),
(128,222,o),
(125,219,cs),
(90,174,o),
(67,107,o),
(67,33,cs),
(67,-109,o),
(178,-214,o),
(330,-214,cs)
);
}
);
width = 650;
}
);
note = uni0649;
unicode = 1609;
},
{
glyphname = uni064A;
layers = (
{
layerId = m01;
shapes = (
{
closed = 1;
nodes = (
(474,-214,o),
(570,-126,o),
(588,-19,cs),
(596,32,o),
(548,48,o),
(485,60,cs),
(464,64,o),
(443,68,o),
(421,72,cs),
(362,84,o),
(307,126,o),
(307,200,cs),
(307,292,o),
(376,337,o),
(446,337,cs),
(499,337,o),
(523,325,o),
(540,315,cs),
(543,313,o),
(546,312,o),
(549,312,cs),
(553,312,o),
(556,315,o),
(556,319,cs),
(556,328,o),
(544,337,o),
(533,342,cs),
(516,351,o),
(493,360,o),
(445,360,cs),
(363,360,o),
(281,311,o),
(281,200,cs),
(281,117,o),
(337,69,o),
(404,52,cs),
(428,46,o),
(454,41,o),
(477,37,cs),
(528,28,o),
(569,17,o),
(561,-21,cs),
(538,-125,o),
(441,-191,o),
(330,-191,cs),
(208,-191,o),
(93,-104,o),
(93,40,cs),
(93,89,o),
(103,140,o),
(141,208,c),
(144,211,o),
(144,215,o),
(144,217,cs),
(144,222,o),
(140,224,o),
(136,224,cs),
(132,224,o),
(128,222,o),
(125,219,cs),
(90,174,o),
(67,107,o),
(67,33,cs),
(67,-109,o),
(178,-214,o),
(330,-214,cs)
);
},
{
closed = 1;
nodes = (
(273,-296,o),
(261,-307,o),
(261,-322,cs),
(261,-337,o),
(273,-348,o),
(287,-348,cs),
(301,-348,o),
(313,-337,o),
(313,-322,cs),
(313,-307,o),
(301,-296,o),
(287,-296,cs)
);
},
{
closed = 1;
nodes = (
(358,-296,o),
(346,-307,o),
(346,-322,cs),
(346,-337,o),
(358,-348,o),
(372,-348,cs),
(386,-348,o),
(398,-337,o),
(398,-322,cs),
(398,-307,o),
(386,-296,o),
(372,-296,cs)
);
}
);
width = 650;
}
);
note = uni064A;
unicode = 1610;
},
{
glyphname = uni064B;
layers = (
{
layerId = m01;
shapes = (
{
closed = 1;
nodes = (
(26,727,o),
(2,721,o),
(-1,705,c),
(-2,703,o),
(-2,701,o),
(-2,699,cs),
(-2,696,o),
(-1,695,o),
(0,695,cs),
(1,695,o),
(4,697,o),
(8,698,cs),
(30,704,o),
(40,706,o),
(65,706,cs),
(145,706,ls),
(147,706,o),
(147,706,o),
(147,707,cs),
(147,709,ls),
(147,716,o),
(144,727,o),
(129,727,cs),
(45,727,ls)
);
},
{
closed = 1;
nodes = (
(26,654,o),
(2,648,o),
(-1,632,cs),
(-2,629,o),
(-2,627,o),
(-2,626,cs),
(-2,623,o),
(-1,622,o),
(0,622,cs),
(1,622,o),
(4,623,o),
(8,624,cs),
(30,631,o),
(40,632,o),
(65,632,cs),
(145,632,ls),
(147,632,o),
(147,633,o),
(147,634,cs),
(147,636,ls),
(147,642,o),
(144,654,o),
(129,654,cs),
(45,654,ls)
);
}
);
width = 0;
}
);
note = uni064B;
unicode = 1611;
},
{
glyphname = uni064C;
layers = (
{
layerId = m01;
shapes = (
{
closed = 1;
nodes = (
(119,631,o),
(99,604,o),
(100,578,cs),
(101,557,o),
(118,532,o),
(135,521,c),
(125,512,ls),
(119,507,o),
(114,505,o),
(108,505,cs),
(102,505,o),
(96,509,o),
(88,516,cs),
(69,533,o),
(59,538,o),
(45,538,cs),
(32,538,o),
(21,531,o),
(16,521,cs),
(12,511,o),
(11,496,o),
(17,490,cs),
(19,488,o),
(21,488,o),
(22,490,cs),
(29,503,o),
(35,516,o),
(47,516,cs),
(55,516,o),
(65,508,o),
(73,501,cs),
(90,486,o),
(100,482,o),
(108,482,cs),
(113,482,o),
(120,483,o),
(133,491,c),
(152,507,l),
(164,495,ls),
(167,492,o),
(168,493,o),
(170,494,c),
(180,504,o),
(172,517,o),
(168,521,c),
(185,534,o),
(206,551,o),
(207,577,cs),
(208,602,o),
(192,631,o),
(154,631,cs)
);
},
{
closed = 1;
nodes = (
(184,564,o),
(174,551,o),
(152,534,c),
(135,548,o),
(124,563,o),
(123,577,cs),
(122,596,o),
(133,612,o),
(155,612,cs),
(170,612,o),
(186,598,o),
(185,577,cs)
);
}
);
width = 0;
}
);
note = uni064C;
unicode = 1612;
},
{
glyphname = uni064D;
layers = (
{
layerId = m01;
shapes = (
{
closed = 1;
nodes = (
(26,-82,o),
(2,-88,o),
(-1,-104,cs),
(-2,-107,o),
(-2,-109,o),
(-2,-111,cs),
(-2,-113,o),
(-1,-114,o),
(0,-114,cs),
(1,-114,o),
(4,-113,o),
(8,-112,cs),
(30,-105,o),
(40,-104,o),
(65,-104,cs),
(145,-104,ls),
(147,-104,o),
(147,-103,o),
(147,-102,cs),
(147,-101,ls),
(147,-94,o),
(144,-82,o),
(129,-82,cs),
(45,-82,ls)
);
},
{
closed = 1;
nodes = (
(26,-156,o),
(2,-162,o),
(-1,-178,c),
(-2,-180,o),
(-2,-182,o),
(-2,-184,cs),
(-2,-187,o),
(-1,-188,o),
(0,-188,cs),
(1,-188,o),
(4,-186,o),
(8,-185,cs),
(30,-178,o),
(40,-177,o),
(65,-177,cs),
(145,-177,ls),
(147,-177,o),
(147,-177,o),
(147,-176,cs),
(147,-174,ls),
(147,-167,o),
(144,-156,o),
(129,-156,cs),
(45,-156,ls)
);
}
);
width = 0;
}
);
note = uni064D;
unicode = 1613;
},
{
glyphname = uni064E;
layers = (
{
layerId = m01;
shapes = (
{
closed = 1;
nodes = (
(26,654,o),
(2,648,o),
(-1,632,cs),
(-2,629,o),
(-2,627,o),
(-2,626,cs),
(-2,623,o),
(-1,622,o),
(0,622,cs),
(1,622,o),
(4,623,o),
(8,624,cs),
(30,631,o),
(40,632,o),
(65,632,cs),
(145,632,ls),
(147,632,o),
(147,633,o),
(147,634,cs),
(147,636,ls),
(147,642,o),
(144,654,o),
(129,654,cs),
(45,654,ls)
);
}
);
width = 0;
}
);
note = uni064E;
unicode = 1614;
},
{
glyphname = uni064F;
layers = (
{
layerId = m01;
shapes = (
{
closed = 1;
nodes = (
(53,645,o),
(33,618,o),
(34,592,cs),
(34,571,o),
(51,547,o),
(67,535,c),
(31,508,o),
(17,502,o),
(-7,488,c),
(-8,488,o),
(-9,487,o),
(-8,486,cs),
(-6,483,ls),
(-1,478,o),
(4,476,o),
(8,476,cs),
(13,476,o),
(16,478,o),
(23,481,cs),
(34,487,o),
(53,498,o),
(85,521,c),
(97,509,ls),
(100,506,o),
(100,506,o),
(103,508,cs),
(114,518,o),
(105,531,o),
(102,534,c),
(118,548,o),
(139,564,o),
(140,591,cs),
(142,616,o),
(125,645,o),
(88,645,cs)
);
},
{
closed = 1;
nodes = (
(118,578,o),
(108,565,o),
(85,548,c),
(68,562,o),
(58,577,o),
(57,591,cs),
(55,609,o),
(67,626,o),
(89,626,cs),
(103,626,o),
(119,612,o),
(118,591,cs)
);
}
);
width = 0;
}
);
note = uni064F;
unicode = 1615;
},
{
glyphname = uni0650;
layers = (
{
layerId = m01;
shapes = (
{
closed = 1;
nodes = (
(26,-82,o),
(2,-88,o),
(-1,-104,cs),
(-2,-107,o),
(-2,-109,o),
(-2,-111,cs),
(-2,-113,o),
(-1,-114,o),
(0,-114,cs),
(1,-114,o),
(4,-113,o),
(8,-112,cs),
(30,-105,o),
(40,-104,o),
(65,-104,cs),
(145,-104,ls),
(147,-104,o),
(147,-103,o),
(147,-102,cs),
(147,-101,ls),
(147,-94,o),
(144,-82,o),
(129,-82,cs),
(45,-82,ls)
);
}
);
width = 0;
}
);
note = uni0650;
unicode = 1616;
},
{
glyphname = uni0651;
layers = (
{
layerId = m01;
shapes = (
{
closed = 1;
nodes = (
(211,594,o),
(205,591,o),
(201,585,cs),
(197,577,o),
(197,568,o),
(197,560,cs),
(197,537,ls),
(197,505,o),
(181,498,o),
(166,498,cs),
(151,498,o),
(136,505,o),
(136,537,cs),
(136,592,ls),
(136,593,o),
(136,594,o),
(134,594,cs),
(132,594,ls),
(125,594,o),
(120,591,o),
(116,585,cs),
(112,577,o),
(112,568,o),
(112,560,cs),
(112,537,ls),
(112,505,o),
(96,498,o),
(82,498,cs),
(67,498,o),
(51,505,o),
(51,537,cs),
(51,592,ls),
(51,593,o),
(51,594,o),
(49,594,cs),
(47,594,ls),
(40,594,o),
(35,591,o),
(31,585,cs),
(27,577,o),
(27,568,o),
(27,560,cs),
(27,543,ls),
(27,495,o),
(52,477,o),
(83,476,cs),
(98,476,o),
(114,483,o),
(124,497,c),
(134,484,o),
(150,476,o),
(168,476,cs),
(198,477,o),
(221,495,o),
(221,543,cs),
(221,592,ls),
(221,593,o),
(221,594,o),
(219,594,cs),
(217,594,ls)
);
}
);
width = 0;
}
);
note = uni0651;
unicode = 1617;
},
{
glyphname = uni0652;
layers = (
{
layerId = m01;
shapes = (
{
closed = 1;
nodes = (
(85,476,o),
(106,499,o),
(106,531,cs),
(106,563,o),
(85,586,o),
(52,586,cs),
(19,586,o),
(-2,563,o),
(-2,531,cs),
(-2,499,o),
(19,476,o),
(52,476,cs)
);
},
{
closed = 1;
nodes = (
(33,495,o),
(20,509,o),
(20,531,cs),
(20,553,o),
(33,567,o),
(52,567,cs),
(71,567,o),
(84,553,o),
(84,531,cs),
(84,509,o),
(71,495,o),
(52,495,cs)
);
}
);
width = 0;
}
);
note = uni0652;
unicode = 1618;
},
{
glyphname = uni0653;
layers = (
{
layerId = m01;
shapes = (
{
closed = 1;
nodes = (
(188,632,o),
(200,647,o),
(200,665,cs),
(200,671,o),
(199,676,o),
(196,680,cs),
(194,682,o),
(192,682,o),
(191,680,cs),
(183,666,o),
(178,654,o),
(163,654,cs),
(138,654,o),
(98,683,o),
(69,683,cs),
(47,683,o),
(35,669,o),
(35,651,cs),
(35,645,o),
(36,640,o),
(39,636,cs),
(41,633,o),
(43,633,o),
(44,636,c),
(52,650,o),
(57,662,o),
(72,662,cs),
(97,662,o),
(137,632,o),
(166,632,cs)
);
}
);
width = 0;
}
);
note = uni0653;
unicode = 1619;
},
{
glyphname = uni0654;
layers = (
{
layerId = m01;
shapes = (
{
closed = 1;
nodes = (
(104,655,o),
(87,676,o),
(87,704,cs),
(87,731,o),
(102,752,o),
(132,752,cs),
(142,752,o),
(149,749,o),
(157,746,cs),
(164,742,o),
(167,739,o),
(171,737,cs),
(174,736,o),
(176,738,o),
(176,740,cs),
(176,754,o),
(156,773,o),
(125,773,cs),
(88,773,o),
(62,744,o),
(62,705,cs),
(62,677,o),
(73,662,o),
(79,654,c),
(67,653,o),
(52,647,o),
(49,633,c),
(48,631,o),
(48,628,o),
(48,627,cs),
(48,624,o),
(49,623,o),
(50,623,cs),
(51,623,o),
(54,624,o),
(58,626,c),
(80,632,o),
(91,633,o),
(115,633,cs),
(195,633,ls),
(197,633,o),
(197,634,o),
(197,635,cs),
(197,637,ls),
(197,643,o),
(194,655,o),
(179,655,cs),
(131,655,ls)
);
}
);
width = 0;
}
);
note = uni0654;
unicode = 1620;
},
{
glyphname = uni0655;
layers = (
{
layerId = m01;
shapes = (
{
closed = 1;
nodes = (
(70,-201,o),
(53,-179,o),
(53,-151,cs),
(53,-124,o),
(68,-104,o),
(98,-104,cs),
(108,-104,o),
(115,-106,o),
(123,-110,cs),
(130,-113,o),
(133,-116,o),
(137,-118,cs),
(140,-119,o),
(142,-118,o),
(142,-116,cs),
(142,-101,o),
(122,-82,o),
(91,-82,cs),
(54,-82,o),
(28,-112,o),
(28,-151,cs),
(28,-178,o),
(39,-193,o),
(45,-201,c),
(33,-202,o),
(18,-209,o),
(15,-223,c),
(14,-225,o),
(14,-227,o),
(14,-229,cs),
(14,-232,o),
(15,-233,o),
(16,-233,cs),
(17,-233,o),
(20,-231,o),
(24,-230,cs),
(46,-223,o),
(57,-222,o),
(81,-222,cs),
(161,-222,ls),
(163,-222,o),
(163,-222,o),
(163,-221,cs),
(163,-219,ls),
(163,-212,o),
(160,-201,o),
(145,-201,cs),
(97,-201,ls)
);
}
);
width = 0;
}
);
note = uni0655;
unicode = 1621;
},
{
glyphname = smallv;
layers = (
{
layerId = m01;
shapes = (
{
closed = 1;
nodes = (
(208,339,o),
(201,331,o),
(196,319,cs),
(174,269,l),
(151,319,ls),
(146,331,o),
(139,339,o),
(127,339,cs),
(123,339,o),
(121,338,o),
(122,336,cs),
(160,249,l),
(162,247,o),
(163,246,o),
(165,246,cs),
(182,246,ls),
(184,246,o),
(185,247,o),
(187,249,c),
(225,336,ls),
(226,338,o),
(224,339,o),
(220,339,cs)
);
}
);
width = 333;
}
);
note = smallv;
unicode = 1626;
},
{
glyphname = zero.ar;
layers = (
{
layerId = m01;
shapes = (
{
closed = 1;
nodes = (
(371,-10,o),
(426,82,o),
(426,277,cs),
(426,472,o),
(368,567,o),
(244,567,cs),
(120,567,o),
(62,472,o),
(62,277,cs),
(62,82,o),
(116,-10,o),
(244,-10,cs)
);
},
{
closed = 1;
nodes = (
(135,13,o),
(88,92,o),
(88,277,cs),
(88,463,o),
(135,544,o),
(244,544,cs),
(353,544,o),
(400,463,o),
(400,277,cs),
(400,92,o),
(352,13,o),
(244,13,cs)
);
}
);
width = 487;
}
);
note = zero.ar;
unicode = 1632;
},
{
glyphname = one.ar;
layers = (
{
layerId = m01;
shapes = (
{
closed = 1;
nodes = (
(49,23,ls),
(47,23,o),
(46,22,o),
(46,20,cs),
(46,3,ls),
(46,1,o),
(47,0,o),
(49,0,cs),
(285,0,ls),
(290,0,o),
(292,2,o),
(292,6,cs),
(292,9,ls),
(292,19,o),
(287,23,o),
(278,23,cs),
(182,23,l),
(182,534,ls),
(182,548,o),
(175,556,o),
(164,556,cs),
(158,556,ls),
(153,556,o),
(144,553,o),
(137,549,c),
(54,522,ls),
(49,520,o),
(47,518,o),
(47,512,cs),
(47,500,ls),
(47,498,o),
(48,496,o),
(51,497,cs),
(155,533,l),
(155,23,l)
);
}
);
width = 320;
}
);
note = one.ar;
unicode = 1633;
},
{
glyphname = two.ar;
layers = (
{
layerId = m01;
shapes = (
{
closed = 1;
nodes = (
(92,228,o),
(382,233,o),
(382,418,cs),
(382,512,o),
(318,567,o),
(215,567,cs),
(163,567,o),
(126,554,o),
(87,533,cs),
(67,522,o),
(65,516,o),
(67,508,cs),
(68,504,ls),
(69,501,o),
(70,498,o),
(73,498,cs),
(77,498,o),
(80,501,o),
(83,503,cs),
(125,531,o),
(164,544,o),
(213,544,cs),
(304,544,o),
(356,498,o),
(356,417,cs),
(356,242,o),
(49,242,o),
(47,3,cs),
(47,1,o),
(48,0,o),
(50,0,cs),
(373,0,ls),
(378,0,o),
(380,2,o),
(380,6,cs),
(380,9,ls),
(380,19,o),
(375,23,o),
(366,23,cs),
(73,23,l)
);
}
);
width = 442;
}
);
note = two.ar;
unicode = 1634;
},
